<svg width="213" height="41" viewBox="0 0 213 41" fill="none" xmlns="http://www.w3.org/2000/svg">
<mask id="mask0_507_26" style="mask-type:alpha" maskUnits="userSpaceOnUse" x="171" y="0" width="41" height="41">
<path fill-rule="evenodd" clip-rule="evenodd" d="M177.562 2.78042C175.489 2.78042 173.802 4.4536 173.802 6.51034V20.1103C173.802 29.9436 181.737 37.9696 191.489 38.0019H191.551C196.292 38.0019 200.746 36.1717 204.099 32.8441C207.467 29.5022 209.313 25.0583 209.297 20.3312C209.264 10.6537 201.176 2.78042 191.267 2.78042H177.562ZM191.457 40.4119H191.387C180.248 40.3754 171.187 31.2267 171.187 20.0183V6.44552C171.187 2.99351 174.017 0.185303 177.496 0.185303H191.174C202.469 0.185303 211.688 9.17717 211.725 20.23C211.743 25.6286 209.635 30.7043 205.789 34.521C201.959 38.3215 196.872 40.4119 191.457 40.4119V40.4119ZM180.873 26.6939C180.206 26.6939 179.644 26.1814 179.597 25.512C179.547 24.8115 180.079 24.2047 180.785 24.1557C188.544 23.6184 194.802 17.4083 195.343 9.70954C195.392 9.00935 196.01 8.48235 196.709 8.53006C197.415 8.57869 197.947 9.18588 197.898 9.8857C197.269 18.8417 189.989 26.0661 180.964 26.6908C180.933 26.6926 180.903 26.6939 180.873 26.6939M179.572 20.7621C178.862 20.7621 178.286 20.1909 178.286 19.4864C178.286 18.7818 178.862 18.2106 179.572 18.2106C184.964 18.2106 189.352 13.8571 189.352 8.50547C189.352 7.80095 189.928 7.22969 190.638 7.22969C191.348 7.22969 191.923 7.80095 191.923 8.50547C191.923 15.2639 186.382 20.7621 179.572 20.7621M179.578 15.0155C178.864 15.0155 178.286 14.4413 178.286 13.7332C178.286 13.0251 178.864 12.4509 179.578 12.4509C181.767 12.4509 183.548 10.684 183.548 8.51196C183.548 7.80385 184.126 7.22969 184.84 7.22969C185.553 7.22969 186.132 7.80385 186.132 8.51196C186.132 12.098 183.192 15.0155 179.578 15.0155" fill="white"/>
</mask>
<g mask="url(#mask0_507_26)">
<rect x="171" width="41.0989" height="40.7827" fill="white"/>
</g>
<path d="M11.179 17.0994C11.0606 16.7159 10.8973 16.3726 10.6889 16.0696C10.4853 15.7618 10.2391 15.4991 9.95028 15.2812C9.66619 15.0634 9.33949 14.9001 8.97017 14.7912C8.60085 14.6776 8.19839 14.6207 7.76278 14.6207C6.98153 14.6207 6.28551 14.8172 5.67472 15.2102C5.06392 15.6032 4.58333 16.1809 4.23295 16.9432C3.88731 17.7008 3.71449 18.6241 3.71449 19.7131C3.71449 20.8116 3.88731 21.742 4.23295 22.5043C4.5786 23.2666 5.05919 23.8466 5.67472 24.2443C6.29025 24.6373 7.00521 24.8338 7.8196 24.8338C8.55824 24.8338 9.19744 24.6918 9.73722 24.4077C10.2817 24.1236 10.7008 23.7211 10.9943 23.2003C11.2879 22.6747 11.4347 22.0592 11.4347 21.3537L12.0312 21.446H8.08239V19.3864H13.9844V21.1335C13.9844 22.3788 13.7192 23.456 13.1889 24.3651C12.6586 25.2741 11.9295 25.9749 11.0014 26.4673C10.0734 26.955 9.00805 27.1989 7.8054 27.1989C6.46544 27.1989 5.28883 26.8982 4.27557 26.2969C3.26705 25.6908 2.47869 24.8314 1.91051 23.7188C1.34706 22.6013 1.06534 21.2756 1.06534 19.7415C1.06534 18.5672 1.23106 17.5185 1.5625 16.5952C1.89867 15.6719 2.36742 14.8883 2.96875 14.2443C3.57008 13.5956 4.27557 13.1032 5.08523 12.767C5.89489 12.4261 6.77557 12.2557 7.72727 12.2557C8.5322 12.2557 9.28267 12.3741 9.97869 12.6108C10.6747 12.8428 11.2926 13.1742 11.8324 13.6051C12.3769 14.036 12.8243 14.5473 13.1747 15.1392C13.5251 15.7311 13.7547 16.3845 13.8636 17.0994H11.179ZM21.2482 27.2131C20.1545 27.2131 19.2099 26.9858 18.4144 26.5312C17.6237 26.072 17.0153 25.4233 16.5891 24.5852C16.163 23.7424 15.9499 22.7505 15.9499 21.6094C15.9499 20.4872 16.163 19.5024 16.5891 18.6548C17.02 17.8026 17.6213 17.1397 18.3931 16.6662C19.1649 16.188 20.0716 15.9489 21.1133 15.9489C21.7856 15.9489 22.4201 16.0578 23.0167 16.2756C23.618 16.4886 24.1483 16.8201 24.6076 17.2699C25.0716 17.7197 25.4362 18.2926 25.7013 18.9886C25.9665 19.6799 26.0991 20.5038 26.0991 21.4602V22.2486H17.1573V20.5156H23.6346C23.6299 20.0232 23.5233 19.5852 23.315 19.2017C23.1067 18.8134 22.8155 18.508 22.4414 18.2855C22.0721 18.063 21.6412 17.9517 21.1488 17.9517C20.6232 17.9517 20.1616 18.0795 19.7638 18.3352C19.3661 18.5862 19.056 18.9176 18.8335 19.3295C18.6156 19.7367 18.5044 20.1842 18.4996 20.6719V22.1847C18.4996 22.8191 18.6156 23.3636 18.8477 23.8182C19.0797 24.268 19.404 24.6136 19.8207 24.8551C20.2373 25.0919 20.725 25.2102 21.2837 25.2102C21.6578 25.2102 21.9963 25.1581 22.2994 25.054C22.6024 24.9451 22.8652 24.7865 23.0877 24.5781C23.3103 24.3698 23.4783 24.1117 23.592 23.804L25.9925 24.0739C25.841 24.7083 25.5522 25.2623 25.1261 25.7358C24.7047 26.2045 24.1649 26.5691 23.5067 26.8295C22.8486 27.0852 22.0958 27.2131 21.2482 27.2131ZM29.5597 31.0909C29.2093 31.0909 28.8849 31.0625 28.5866 31.0057C28.2931 30.9536 28.0587 30.892 27.8835 30.821L28.4801 28.8182C28.8542 28.9271 29.188 28.9792 29.4815 28.9744C29.7751 28.9697 30.0331 28.8774 30.2557 28.6974C30.483 28.5223 30.6747 28.2287 30.831 27.8168L31.0511 27.2273L27.0952 16.0909H29.8224L32.3366 24.3295H32.4503L34.9716 16.0909H37.706L33.3381 28.321C33.1345 28.8987 32.8646 29.3935 32.5284 29.8054C32.1922 30.2221 31.7803 30.5393 31.2926 30.7571C30.8097 30.9796 30.232 31.0909 29.5597 31.0909ZM39.4851 27V16.0909H41.9425V17.9446H42.0703C42.2976 17.3196 42.674 16.8319 43.1996 16.4815C43.7251 16.1264 44.3525 15.9489 45.0817 15.9489C45.8203 15.9489 46.4429 16.1288 46.9496 16.4886C47.4609 16.8437 47.8208 17.3291 48.0291 17.9446H48.1428C48.3842 17.3385 48.7914 16.8556 49.3643 16.4957C49.942 16.1312 50.6262 15.9489 51.4169 15.9489C52.4207 15.9489 53.2398 16.2661 53.8743 16.9006C54.5088 17.535 54.826 18.4607 54.826 19.6776V27H52.2479V20.0753C52.2479 19.3982 52.0679 18.9034 51.7081 18.5909C51.3482 18.2737 50.9079 18.1151 50.3871 18.1151C49.7668 18.1151 49.2815 18.3092 48.9311 18.6974C48.5855 19.081 48.4126 19.5805 48.4126 20.196V27H45.8913V19.9688C45.8913 19.4053 45.7209 18.9555 45.38 18.6193C45.0438 18.2831 44.6035 18.1151 44.0589 18.1151C43.6896 18.1151 43.3535 18.2098 43.0504 18.3991C42.7474 18.5838 42.5059 18.8466 42.326 19.1875C42.1461 19.5237 42.0561 19.9167 42.0561 20.3665V27H39.4851ZM66.0565 18.9744L63.7127 19.2301C63.6464 18.9934 63.5304 18.7708 63.3647 18.5625C63.2037 18.3542 62.9859 18.1861 62.7113 18.0582C62.4367 17.9304 62.1005 17.8665 61.7028 17.8665C61.1677 17.8665 60.7179 17.9825 60.3533 18.2145C59.9935 18.4465 59.8159 18.7472 59.8207 19.1165C59.8159 19.4337 59.9319 19.6918 60.1687 19.8906C60.4102 20.0895 60.8079 20.2528 61.3619 20.3807L63.2227 20.7784C64.2549 21.0009 65.0219 21.3537 65.5238 21.8366C66.0304 22.3196 66.2861 22.9517 66.2908 23.733C66.2861 24.4195 66.0849 25.0256 65.6871 25.5511C65.2942 26.072 64.7473 26.4792 64.0465 26.7727C63.3458 27.0663 62.5408 27.2131 61.6317 27.2131C60.2965 27.2131 59.2217 26.9337 58.4073 26.375C57.5929 25.8116 57.1076 25.0279 56.9513 24.0241L59.4585 23.7827C59.5721 24.2751 59.8136 24.6468 60.1829 24.8977C60.5522 25.1487 61.0328 25.2741 61.6246 25.2741C62.2354 25.2741 62.7255 25.1487 63.0948 24.8977C63.4689 24.6468 63.6559 24.3366 63.6559 23.9673C63.6559 23.6548 63.5352 23.3968 63.2937 23.1932C63.0569 22.9896 62.6876 22.8333 62.1857 22.7244L60.3249 22.3338C59.2785 22.116 58.5044 21.7491 58.0025 21.233C57.5006 20.7121 57.252 20.054 57.2567 19.2585C57.252 18.5862 57.4343 18.0038 57.8036 17.5114C58.1777 17.0142 58.6961 16.6307 59.359 16.3608C60.0266 16.0862 60.796 15.9489 61.6673 15.9489C62.9457 15.9489 63.9518 16.2211 64.6857 16.7656C65.4244 17.3101 65.8813 18.0464 66.0565 18.9744ZM70.9819 12.4545V27H68.4109V12.4545H70.9819ZM80.5788 22.4119V16.0909H83.1499V27H80.657V25.0611H80.5433C80.2971 25.6719 79.8923 26.1714 79.3288 26.5597C78.7701 26.9479 78.0812 27.142 77.2621 27.142C76.5471 27.142 75.915 26.9834 75.3658 26.6662C74.8213 26.3442 74.3951 25.8778 74.0874 25.267C73.7796 24.6515 73.6257 23.9081 73.6257 23.0369V16.0909H76.1967V22.6392C76.1967 23.3305 76.3861 23.8797 76.7649 24.2869C77.1437 24.6941 77.6409 24.8977 78.2564 24.8977C78.6352 24.8977 79.0021 24.8054 79.3572 24.6207C79.7124 24.4361 80.0036 24.1615 80.2308 23.7969C80.4628 23.4276 80.5788 22.9659 80.5788 22.4119ZM85.9073 27V12.4545H88.4783V17.8949H88.5849C88.7174 17.6297 88.9045 17.348 89.146 17.0497C89.3874 16.7467 89.7141 16.4886 90.1261 16.2756C90.538 16.0578 91.0636 15.9489 91.7028 15.9489C92.5456 15.9489 93.3055 16.1643 93.9826 16.5952C94.6644 17.0213 95.2042 17.6534 95.6019 18.4915C96.0044 19.3248 96.2056 20.3475 96.2056 21.5597C96.2056 22.7576 96.0091 23.7756 95.6161 24.6136C95.2231 25.4517 94.6881 26.0909 94.011 26.5312C93.3339 26.9716 92.5669 27.1918 91.7099 27.1918C91.0849 27.1918 90.5664 27.0876 90.1545 26.8793C89.7425 26.6709 89.4111 26.42 89.1602 26.1264C88.9139 25.8281 88.7222 25.5464 88.5849 25.2812H88.4357V27H85.9073ZM88.4286 21.5455C88.4286 22.2509 88.5281 22.8688 88.7269 23.3991C88.9305 23.9295 89.2217 24.3437 89.6005 24.642C89.984 24.9356 90.448 25.0824 90.9925 25.0824C91.5607 25.0824 92.0366 24.9309 92.4201 24.6278C92.8036 24.3201 93.0924 23.901 93.2866 23.3707C93.4854 22.8357 93.5849 22.2273 93.5849 21.5455C93.5849 20.8684 93.4878 20.267 93.2937 19.7415C93.0996 19.2159 92.8107 18.804 92.4272 18.5057C92.0437 18.2074 91.5655 18.0582 90.9925 18.0582C90.4433 18.0582 89.9769 18.2027 89.5934 18.4915C89.2099 18.7803 88.9187 19.1851 88.7198 19.706C88.5257 20.2268 88.4286 20.84 88.4286 21.5455ZM101.531 27.2202C100.839 27.2202 100.217 27.0971 99.6626 26.8509C99.1134 26.5999 98.6778 26.2306 98.3558 25.7429C98.0386 25.2552 97.88 24.6539 97.88 23.9389C97.88 23.3234 97.9936 22.8144 98.2209 22.4119C98.4482 22.0095 98.7583 21.6875 99.1513 21.446C99.5443 21.2045 99.987 21.0223 100.479 20.8991C100.977 20.7713 101.49 20.679 102.021 20.6222C102.66 20.5559 103.178 20.4967 103.576 20.4446C103.974 20.3878 104.263 20.3026 104.442 20.1889C104.627 20.0705 104.719 19.8883 104.719 19.642V19.5994C104.719 19.0644 104.561 18.6501 104.244 18.3565C103.926 18.063 103.469 17.9162 102.873 17.9162C102.243 17.9162 101.744 18.0535 101.374 18.3281C101.01 18.6027 100.763 18.9271 100.636 19.3011L98.2351 18.9602C98.4245 18.2973 98.737 17.7434 99.1726 17.2983C99.6082 16.8485 100.141 16.5123 100.771 16.2898C101.4 16.0625 102.096 15.9489 102.859 15.9489C103.384 15.9489 103.907 16.0104 104.428 16.1335C104.949 16.2566 105.425 16.4602 105.856 16.7443C106.287 17.0237 106.632 17.4048 106.893 17.8878C107.158 18.3707 107.29 18.9744 107.29 19.6989V27H104.819V25.5014H104.734C104.577 25.8045 104.357 26.0885 104.073 26.3537C103.794 26.6141 103.441 26.8248 103.015 26.9858C102.594 27.142 102.099 27.2202 101.531 27.2202ZM102.198 25.331C102.714 25.331 103.162 25.2292 103.54 25.0256C103.919 24.8172 104.21 24.5426 104.414 24.2017C104.622 23.8608 104.727 23.4891 104.727 23.0866V21.8011C104.646 21.8674 104.509 21.929 104.315 21.9858C104.125 22.0426 103.912 22.0923 103.675 22.1349C103.439 22.1776 103.204 22.2154 102.972 22.2486C102.74 22.2817 102.539 22.3101 102.369 22.3338C101.985 22.3859 101.642 22.4711 101.339 22.5895C101.036 22.7079 100.797 22.8736 100.621 23.0866C100.446 23.295 100.359 23.5649 100.359 23.8963C100.359 24.3698 100.531 24.7273 100.877 24.9688C101.223 25.2102 101.663 25.331 102.198 25.331ZM112.447 20.608V27H109.876V16.0909H112.333V17.9446H112.461C112.712 17.3338 113.112 16.8485 113.661 16.4886C114.215 16.1288 114.899 15.9489 115.714 15.9489C116.467 15.9489 117.122 16.1098 117.681 16.4318C118.245 16.7538 118.68 17.2202 118.988 17.831C119.3 18.4418 119.454 19.1828 119.45 20.054V27H116.879V20.4517C116.879 19.7225 116.689 19.152 116.31 18.7401C115.936 18.3281 115.418 18.1222 114.755 18.1222C114.305 18.1222 113.905 18.2216 113.555 18.4205C113.209 18.6146 112.937 18.8963 112.738 19.2656C112.544 19.6349 112.447 20.0824 112.447 20.608ZM124.407 23.5767L124.4 20.473H124.812L128.732 16.0909H131.737L126.914 21.4602H126.381L124.407 23.5767ZM122.063 27V12.4545H124.634V27H122.063ZM128.91 27L125.359 22.0355L127.092 20.2244L131.985 27H128.91ZM133.45 27V16.0909H136.021V27H133.45ZM134.743 14.5426C134.335 14.5426 133.985 14.4077 133.691 14.1378C133.398 13.8632 133.251 13.5341 133.251 13.1506C133.251 12.7623 133.398 12.4332 133.691 12.1634C133.985 11.8887 134.335 11.7514 134.743 11.7514C135.154 11.7514 135.505 11.8887 135.794 12.1634C136.087 12.4332 136.234 12.7623 136.234 13.1506C136.234 13.5341 136.087 13.8632 135.794 14.1378C135.505 14.4077 135.154 14.5426 134.743 14.5426ZM141.236 20.608V27H138.665V16.0909H141.122V17.9446H141.25C141.501 17.3338 141.901 16.8485 142.45 16.4886C143.004 16.1288 143.688 15.9489 144.503 15.9489C145.256 15.9489 145.911 16.1098 146.47 16.4318C147.034 16.7538 147.469 17.2202 147.777 17.831C148.089 18.4418 148.243 19.1828 148.239 20.054V27H145.668V20.4517C145.668 19.7225 145.478 19.152 145.099 18.7401C144.725 18.3281 144.207 18.1222 143.544 18.1222C143.094 18.1222 142.694 18.2216 142.344 18.4205C141.998 18.6146 141.726 18.8963 141.527 19.2656C141.333 19.6349 141.236 20.0824 141.236 20.608ZM153.423 20.608V27H150.852V16.0909H153.31V17.9446H153.438C153.688 17.3338 154.089 16.8485 154.638 16.4886C155.192 16.1288 155.876 15.9489 156.69 15.9489C157.443 15.9489 158.099 16.1098 158.658 16.4318C159.221 16.7538 159.657 17.2202 159.964 17.831C160.277 18.4418 160.431 19.1828 160.426 20.054V27H157.855V20.4517C157.855 19.7225 157.666 19.152 157.287 18.7401C156.913 18.3281 156.394 18.1222 155.732 18.1222C155.282 18.1222 154.882 18.2216 154.531 18.4205C154.186 18.6146 153.913 18.8963 153.714 19.2656C153.52 19.6349 153.423 20.0824 153.423 20.608Z" fill="white"/>
</svg>
