<svg width="601" height="425" viewBox="0 0 601 425" fill="none" xmlns="http://www.w3.org/2000/svg">
<path d="M560.201 170.7H551.301V191.2H560.201V170.7Z" fill="url(#paint0_linear)"/>
<path d="M579.899 82.8L574.199 90.2L465.699 0H479.999L579.899 82.8Z" fill="url(#paint1_linear)"/>
<path d="M560.201 166.8H551.301L573.301 88.8H582.201L560.201 166.8Z" fill="url(#paint2_linear)"/>
<path d="M428.898 0C428.898 0.1 428.898 0.0999969 428.898 0.199997C428.898 14.3 440.398 25.7 454.498 25.7C468.598 25.7 479.998 14.3 479.998 0.199997C479.998 0.0999969 479.998 0.1 479.998 0H428.898Z" fill="url(#paint3_linear)"/>
<path d="M515.898 200.7H359.498L359.398 195.9H515.798L515.898 200.7Z" fill="#19517A"/>
<path d="M231.599 424.2C237.343 424.2 241.999 419.544 241.999 413.8C241.999 408.056 237.343 403.4 231.599 403.4C225.855 403.4 221.199 408.056 221.199 413.8C221.199 419.544 225.855 424.2 231.599 424.2Z" fill="url(#paint4_linear)"/>
<path d="M293.501 166.1H260.801V196.4H293.501V166.1Z" fill="url(#paint5_linear)"/>
<path d="M318.902 196H238.102V200.8H318.902V196Z" fill="#666666"/>
<path d="M118.4 183H91.5V196.5H118.4V183Z" fill="url(#paint6_linear)"/>
<path d="M137.199 196.5H73.6992V200.8H137.199V196.5Z" fill="#666666"/>
<path d="M272.298 264H135.398V289.3H272.298V264Z" fill="url(#paint7_linear)"/>
<path d="M178.898 289.3H228.598C228.598 293.7 224.998 297.2 220.698 297.2H186.898C182.398 297.2 178.898 293.7 178.898 289.3Z" fill="url(#paint8_linear)"/>
<path d="M209.802 297.1H197.602V319.4H209.802V297.1Z" fill="url(#paint9_linear)"/>
<path d="M202.4 317H205.1C209.5 317 213.1 320.6 213.1 325V390.2H194.4V325C194.3 320.6 197.9 317 202.4 317Z" fill="url(#paint10_linear)"/>
<path d="M203.801 390.2H249.801C255.501 390.2 260.001 394.8 260.001 400.4V403.7H256.701V403V401.6C256.701 397.1 253.101 393.5 248.601 393.5H203.801V390.2Z" fill="url(#paint11_linear)"/>
<path d="M203.801 390.2H223.201C228.901 390.2 233.401 394.8 233.401 400.4V403.7H230.101V403V401.6C230.101 397.1 226.501 393.5 222.001 393.5H203.801V390.2Z" fill="#163D58"/>
<path d="M204.001 390.2H158.001C152.301 390.2 147.801 394.8 147.801 400.4V403.7H151.101V403V401.6C151.101 397.1 154.701 393.5 159.201 393.5H204.001V390.2Z" fill="url(#paint12_linear)"/>
<path d="M203.998 390.2H184.598C178.898 390.2 174.398 394.8 174.398 400.4V403.7H177.698V403V401.6C177.698 397.1 181.298 393.5 185.798 393.5H203.998V390.2Z" fill="#204763"/>
<path d="M176.002 424.2C181.745 424.2 186.402 419.544 186.402 413.8C186.402 408.056 181.745 403.4 176.002 403.4C170.258 403.4 165.602 408.056 165.602 413.8C165.602 419.544 170.258 424.2 176.002 424.2Z" fill="url(#paint13_linear)"/>
<path d="M258.4 424.2C264.144 424.2 268.8 419.544 268.8 413.8C268.8 408.056 264.144 403.4 258.4 403.4C252.656 403.4 248 408.056 248 413.8C248 419.544 252.656 424.2 258.4 424.2Z" fill="url(#paint14_linear)"/>
<path d="M243.199 390.6L231.199 424.1H315.999C315.999 424.1 311.599 415.7 297.099 409.5C282.599 403.3 269.099 390.6 269.099 390.6H243.199Z" fill="url(#paint15_linear)"/>
<path d="M183.102 236.4C183.102 236.4 194.202 262 227.502 265.5C260.802 269 247.302 302.9 244.402 308.2C241.502 313.5 237.902 318.1 235.802 326.3C233.702 334.5 236.702 345.1 233.402 351.1C230.102 357.1 216.202 377.3 220.502 390.6H269.202C269.202 390.6 297.302 280 295.402 269.1C293.502 258.2 296.602 249.4 267.302 235.8C238.002 222.2 218.302 213.7 218.302 213.7L183.102 236.4Z" fill="url(#paint16_linear)"/>
<path d="M149.4 424.2C155.144 424.2 159.8 419.544 159.8 413.8C159.8 408.056 155.144 403.4 149.4 403.4C143.656 403.4 139 408.056 139 413.8C139 419.544 143.656 424.2 149.4 424.2Z" fill="url(#paint17_linear)"/>
<path d="M555.899 173.8C559.047 173.8 561.599 171.248 561.599 168.1C561.599 164.952 559.047 162.4 555.899 162.4C552.751 162.4 550.199 164.952 550.199 168.1C550.199 171.248 552.751 173.8 555.899 173.8Z" fill="url(#paint18_linear)"/>
<path d="M577.7 92.6C580.848 92.6 583.4 90.048 583.4 86.8999C583.4 83.7519 580.848 81.2 577.7 81.2C574.552 81.2 572 83.7519 572 86.8999C572 90.048 574.552 92.6 577.7 92.6Z" fill="url(#paint19_linear)"/>
<path d="M600.7 200.7H0V225.2H600.7V200.7Z" fill="url(#paint20_linear)"/>
<path d="M586.198 225.1H8.39844V232.9H586.198V225.1Z" fill="#154263"/>
<path d="M52.1984 233L17.8984 418.7H7.89844L42.2984 233H52.1984Z" fill="url(#paint21_linear)"/>
<path d="M586.8 418.7H576.8L542.5 233H552.4L586.8 418.7Z" fill="url(#paint22_linear)"/>
<path d="M515.798 195.9H410.898L427.298 138.1H532.498L515.798 195.9Z" fill="url(#paint23_linear)"/>
<path d="M395.002 63.9H159.102V166.4H395.002V63.9Z" fill="url(#paint24_linear)"/>
<path d="M178.898 106.4H31.8984V183.9H178.898V106.4Z" fill="url(#paint25_linear)"/>
<path d="M530.199 191.2H569.399C574.699 191.2 578.999 195.5 578.999 200.8H520.699C520.699 195.5 524.899 191.2 530.199 191.2Z" fill="url(#paint26_linear)"/>
<path d="M117.099 116.8H43.6992V119.6H117.099V116.8Z" fill="white"/>
<path d="M117.099 123.4H43.6992V126.2H117.099V123.4Z" fill="white"/>
<path d="M117.099 130H43.6992V132.8H117.099V130Z" fill="white"/>
<path d="M117.099 136.6H43.6992V139.4H117.099V136.6Z" fill="white"/>
<path d="M499.199 149.4L431.699 149.2L432.499 146.7L499.999 146.9L499.199 149.4Z" fill="white"/>
<path d="M497.598 155.1L430.098 155L430.798 152.5L498.298 152.6L497.598 155.1Z" fill="white"/>
<path d="M495.898 160.8L428.398 160.7L429.098 158.2L496.598 158.4L495.898 160.8Z" fill="white"/>
<path d="M494.199 166.7L426.699 166.5L427.399 164L494.899 164.2L494.199 166.7Z" fill="white"/>
<path d="M243.699 117.6L257.299 103L253.699 99.7001L237.499 117L236.699 117.8L237.599 118.6L254.999 134.7L258.299 131.1L243.699 117.6Z" fill="white"/>
<path d="M304.501 117.6L290.901 103L294.501 99.7001L310.601 117.1L311.401 117.9L310.501 118.7L293.101 134.8L289.801 131.2L304.501 117.6Z" fill="white"/>
<path d="M278.901 93.4L264.801 139.8L269.301 141.1L283.401 94.7L278.901 93.4Z" fill="white"/>
<path d="M274.203 390.6L262.203 424.1H347.003C347.003 424.1 342.603 415.7 328.103 409.5C313.603 403.3 300.103 390.6 300.103 390.6H274.203Z" fill="#666666"/>
<path d="M192.802 230.5C192.802 230.5 189.702 259.2 228.102 265.4C266.502 271.6 268.202 276.3 268.502 286.1C268.802 295.9 265.902 301.7 262.302 311.8C258.702 321.9 258.602 335.8 260.502 343.9C262.402 352 254.002 362.1 250.102 371.6C247.702 377.7 246.802 384.3 247.502 390.8H300.102C300.102 390.8 314.202 295.9 315.202 281.9C316.202 267.9 320.702 253.6 302.502 244.2C284.302 234.8 245.302 217.6 245.302 217.6L192.802 230.5Z" fill="url(#paint27_linear)"/>
<path opacity="0.86" d="M222.202 235.8C222.102 235.9 222.102 236 222.202 236.1C222.302 236.2 222.402 236.2 222.502 236.1C222.602 236 222.602 235.9 222.502 235.8C222.402 235.7 222.302 235.7 222.202 235.8ZM219.102 239.1C219.002 239.2 219.002 239.3 219.102 239.4C219.202 239.5 219.302 239.5 219.402 239.4C219.502 239.3 219.502 239.2 219.402 239.1C219.302 239 219.202 239.1 219.102 239.1ZM236.502 246.6C236.402 246.6 236.302 246.7 236.302 246.8C236.302 246.9 236.402 247 236.502 247C236.602 247 236.702 246.9 236.702 246.8C236.702 246.6 236.602 246.6 236.502 246.6ZM231.902 246.7C231.802 246.7 231.702 246.8 231.702 246.9C231.702 247 231.802 247.1 231.902 247.1C232.002 247.1 232.102 247 232.102 246.9C232.102 246.8 232.002 246.7 231.902 246.7ZM227.402 246.9C227.302 246.9 227.202 247 227.202 247.1C227.202 247.2 227.302 247.3 227.402 247.3C227.502 247.3 227.602 247.2 227.602 247.1C227.602 246.9 227.502 246.9 227.402 246.9ZM222.802 247C222.702 247 222.602 247.1 222.602 247.2C222.602 247.3 222.702 247.4 222.802 247.4C222.902 247.4 223.002 247.3 223.002 247.2C223.002 247.1 222.902 247 222.802 247ZM229.602 264.5C229.502 264.6 229.502 264.7 229.602 264.8C229.702 264.9 229.802 264.9 229.802 264.8C229.902 264.7 229.902 264.6 229.802 264.5C229.702 264.4 229.702 264.5 229.602 264.5ZM231.902 237.9C231.802 237.9 231.802 238.1 231.802 238.1L232.002 238.2C232.102 238.2 232.102 238 232.102 238C232.102 237.9 232.002 237.9 231.902 237.9ZM227.702 239.8C227.602 239.8 227.602 240 227.602 240C227.602 240 227.602 240.1 227.702 240.1C227.802 240.1 227.802 240.1 227.902 240.1C228.002 240.1 228.002 240 228.002 239.9C227.902 239.8 227.802 239.7 227.702 239.8ZM223.602 241.7C223.502 241.7 223.502 241.8 223.502 241.9C223.502 242 223.602 242 223.702 242C223.802 242 223.802 241.9 223.802 241.8C223.802 241.7 223.702 241.6 223.602 241.7ZM219.402 243.5C219.302 243.5 219.302 243.7 219.302 243.7C219.302 243.8 219.402 243.8 219.502 243.8C219.602 243.8 219.602 243.7 219.602 243.6C219.602 243.5 219.502 243.5 219.402 243.5ZM232.502 255.4C232.502 255.5 232.502 255.6 232.602 255.6C232.702 255.6 232.802 255.6 232.802 255.5C232.802 255.4 232.802 255.3 232.702 255.3C232.602 255.3 232.502 255.3 232.502 255.4ZM228.202 253.8C228.202 253.9 228.202 254 228.302 254C228.402 254 228.502 254 228.502 253.9C228.502 253.8 228.502 253.7 228.402 253.7C228.402 253.7 228.302 253.7 228.202 253.8ZM223.202 236.1C223.002 236.2 223.002 236.4 223.002 236.6C223.102 236.7 223.202 236.8 223.302 236.8C223.402 236.8 223.402 236.8 223.502 236.8L223.602 236.7C223.702 236.6 223.702 236.3 223.602 236.2C223.502 236 223.402 236 223.202 236.1ZM257.102 256.1C257.002 256.3 257.102 256.5 257.302 256.5C257.502 256.6 257.702 256.5 257.702 256.3C257.802 256.1 257.702 255.9 257.502 255.9C257.402 255.8 257.202 255.9 257.102 256.1ZM248.802 253.6C248.702 253.8 248.902 254 249.002 254C249.202 254.1 249.402 254 249.402 253.8C249.502 253.6 249.402 253.4 249.202 253.4C249.102 253.3 248.902 253.4 248.802 253.6ZM240.602 251.1C240.602 251.3 240.702 251.5 240.802 251.6C241.002 251.7 241.202 251.6 241.202 251.4C241.302 251.2 241.202 251 241.002 251C240.802 250.8 240.602 250.9 240.602 251.1ZM232.302 248.6C232.202 248.8 232.402 249 232.502 249C232.702 249.1 232.902 249 232.902 248.8C233.002 248.6 232.902 248.4 232.702 248.4C232.602 248.3 232.402 248.4 232.302 248.6ZM224.102 246.1C224.002 246.3 224.202 246.5 224.402 246.5C224.602 246.6 224.802 246.4 224.802 246.3C224.902 246.1 224.802 245.9 224.602 245.9C224.302 245.8 224.102 245.9 224.102 246.1ZM255.102 237.2C254.902 237.2 254.702 237.4 254.802 237.6C254.902 237.8 255.002 238 255.202 237.9C255.402 237.8 255.602 237.7 255.502 237.5C255.402 237.3 255.302 237.2 255.102 237.2ZM246.502 238C246.302 238 246.102 238.2 246.202 238.4C246.202 238.6 246.402 238.8 246.602 238.7C246.802 238.7 247.002 238.5 246.902 238.3C246.902 238.2 246.702 238 246.502 238ZM237.902 238.9C237.702 238.9 237.602 239.1 237.602 239.3C237.602 239.5 237.802 239.6 238.002 239.6C238.202 239.6 238.302 239.4 238.302 239.2C238.302 239 238.102 238.9 237.902 238.9ZM229.302 239.8C229.102 239.8 229.002 240 229.002 240.2C229.002 240.4 229.202 240.5 229.402 240.5C229.602 240.5 229.702 240.3 229.702 240.1C229.702 239.9 229.502 239.8 229.302 239.8ZM220.702 240.6C220.502 240.6 220.402 240.8 220.402 241C220.402 241.2 220.602 241.3 220.802 241.3C221.002 241.3 221.102 241.1 221.102 240.9C221.102 240.8 220.902 240.6 220.702 240.6C220.802 240.6 220.702 240.6 220.702 240.6ZM238.902 263.5C238.802 263.6 238.802 263.9 238.902 264C239.102 264.1 239.302 264.1 239.402 264C239.502 263.8 239.502 263.6 239.302 263.5C239.302 263.4 239.002 263.4 238.902 263.5ZM232.202 258.1C232.102 258.3 232.102 258.5 232.202 258.6C232.302 258.7 232.602 258.7 232.702 258.6C232.802 258.5 232.802 258.2 232.702 258.1C232.602 257.9 232.402 257.9 232.202 258.1ZM225.502 252.6C225.402 252.8 225.402 253 225.602 253.1C225.702 253.2 226.002 253.2 226.102 253.1C226.202 252.9 226.202 252.7 226.102 252.6C225.902 252.5 225.702 252.5 225.502 252.6ZM254.002 228.9C253.802 228.9 253.702 229.1 253.702 229.3C253.702 229.5 253.902 229.6 254.102 229.6C254.302 229.6 254.402 229.4 254.302 229.2C254.402 228.9 254.202 228.8 254.002 228.9ZM246.502 230.4C246.302 230.4 246.202 230.6 246.302 230.8C246.302 231 246.502 231.1 246.702 231C246.902 231 247.002 230.8 246.902 230.6C246.802 230.4 246.702 230.3 246.502 230.4ZM238.902 231.9C238.802 231.9 238.802 231.9 238.702 232C238.602 232.1 238.602 232.2 238.602 232.3C238.602 232.5 238.802 232.6 239.002 232.6C239.202 232.6 239.302 232.4 239.202 232.2C239.202 232.1 239.102 232.1 239.102 232C239.102 231.9 239.002 231.8 238.902 231.9ZM231.402 233.4C231.202 233.4 231.102 233.6 231.202 233.8C231.202 234 231.402 234.1 231.602 234.1C231.802 234.1 231.902 233.9 231.902 233.7C231.702 233.4 231.502 233.3 231.402 233.4ZM247.502 260.8C247.402 260.9 247.402 261.1 247.602 261.2C247.702 261.3 247.902 261.3 248.002 261.1C248.102 260.9 248.102 260.8 247.902 260.6C247.802 260.6 247.602 260.6 247.502 260.8ZM241.102 256.5C241.002 256.6 241.002 256.8 241.202 256.9C241.302 257 241.502 257 241.602 256.8C241.702 256.7 241.702 256.5 241.502 256.4C241.402 256.3 241.202 256.4 241.102 256.5ZM234.702 252.2C234.602 252.3 234.602 252.5 234.802 252.6C234.902 252.7 235.102 252.7 235.202 252.5C235.302 252.4 235.302 252.2 235.102 252.1C235.002 252 234.802 252.1 234.702 252.2ZM228.302 247.9C228.202 248 228.302 248.2 228.402 248.3C228.502 248.4 228.702 248.4 228.802 248.2C228.902 248.1 228.902 247.9 228.702 247.8C228.602 247.8 228.402 247.8 228.302 247.9ZM221.902 243.7C221.802 243.9 221.802 244 222.002 244.2C222.102 244.3 222.302 244.3 222.402 244.1C222.502 244 222.502 243.8 222.302 243.7C222.202 243.5 222.002 243.5 221.902 243.7ZM250.102 244.3C250.102 244.5 250.202 244.6 250.402 244.7C250.602 244.7 250.702 244.6 250.802 244.5C250.802 244.3 250.702 244.2 250.602 244.1C250.302 244 250.102 244.1 250.102 244.3ZM242.602 242.8C242.602 243 242.702 243.1 242.902 243.2C243.102 243.2 243.202 243.1 243.302 243C243.302 242.8 243.202 242.7 243.102 242.6C242.802 242.5 242.602 242.6 242.602 242.8ZM235.002 241.2C235.002 241.4 235.102 241.5 235.202 241.6C235.402 241.6 235.502 241.5 235.602 241.3C235.602 241.1 235.502 241 235.402 240.9C235.202 241 235.102 241.1 235.002 241.2ZM227.502 239.7C227.502 239.9 227.602 240 227.702 240.1C227.802 240.1 227.802 240.1 227.902 240.1C228.002 240.1 228.102 240 228.102 239.9C228.102 239.7 228.002 239.6 227.802 239.5C227.702 239.5 227.502 239.6 227.502 239.7ZM219.902 238.2C219.902 238.3 219.902 238.3 219.902 238.4C220.002 238.4 220.002 238.5 220.002 238.6H220.102C220.302 238.6 220.402 238.5 220.502 238.4C220.502 238.2 220.402 238.1 220.202 238C220.102 237.9 219.902 238.1 219.902 238.2ZM229.802 262.3C229.702 262.4 229.602 262.6 229.702 262.8C229.802 262.9 230.002 263 230.102 262.9C230.202 262.8 230.302 262.6 230.202 262.5C230.102 262.2 229.902 262.2 229.802 262.3ZM236.002 241.9C236.002 242 236.002 242.1 236.102 242.1C236.202 242.1 236.302 242.1 236.302 242C236.302 241.9 236.302 241.8 236.202 241.8C236.102 241.8 236.002 241.8 236.002 241.9ZM231.802 240.2C231.802 240.3 231.802 240.4 231.902 240.4C232.002 240.4 232.102 240.4 232.102 240.3C232.102 240.2 232.102 240.1 232.002 240C231.902 240 231.802 240.1 231.802 240.2ZM227.602 238.4C227.602 238.5 227.602 238.6 227.702 238.6C227.802 238.6 227.902 238.6 227.902 238.5C227.902 238.4 227.902 238.3 227.802 238.3C227.702 238.3 227.602 238.3 227.602 238.4ZM223.402 236.7C223.402 236.8 223.402 236.9 223.502 236.9C223.602 236.9 223.702 236.9 223.702 236.8C223.702 236.7 223.702 236.6 223.602 236.6C223.502 236.5 223.402 236.6 223.402 236.7ZM235.602 232.1C235.502 232.1 235.402 232.2 235.402 232.3C235.402 232.4 235.502 232.5 235.602 232.5C235.702 232.5 235.802 232.4 235.802 232.3C235.802 232.2 235.702 232.1 235.602 232.1ZM228.902 248.2C228.802 248.3 228.802 248.4 228.902 248.4C229.002 248.5 229.102 248.5 229.202 248.4C229.302 248.3 229.302 248.2 229.202 248.1C229.102 248.1 229.002 248.1 228.902 248.2ZM225.702 245C225.602 245.1 225.602 245.2 225.702 245.2C225.802 245.3 225.902 245.3 226.002 245.2C226.102 245.1 226.102 245 226.002 244.9C225.902 244.9 225.802 244.9 225.702 245ZM222.502 241.8C222.402 241.9 222.402 242 222.502 242.1C222.602 242.2 222.702 242.2 222.802 242.1C222.902 242 222.902 241.9 222.802 241.8C222.702 241.7 222.602 241.7 222.502 241.8ZM219.402 238.5C219.302 238.5 219.302 238.5 219.302 238.5C219.202 238.6 219.202 238.7 219.302 238.8H219.402C219.502 238.8 219.502 238.8 219.602 238.8C219.702 238.7 219.702 238.6 219.602 238.5C219.502 238.5 219.502 238.5 219.402 238.5ZM237.302 242.7C237.202 242.8 237.302 242.9 237.402 243C237.502 243.1 237.602 243 237.702 242.9C237.802 242.8 237.802 242.7 237.702 242.6C237.502 242.6 237.402 242.6 237.302 242.7ZM233.002 239.9C232.902 240 233.002 240.1 233.102 240.2C233.202 240.3 233.302 240.2 233.402 240.1C233.502 240 233.402 239.9 233.302 239.8C233.202 239.8 233.002 239.8 233.002 239.9ZM228.602 237.1C228.502 237.2 228.602 237.3 228.702 237.4C228.802 237.5 228.902 237.4 229.002 237.3C229.102 237.2 229.002 237.1 229.002 237C228.802 237 228.702 237 228.602 237.1ZM239.002 231.8C238.902 231.8 238.802 231.8 238.702 232C238.702 232.1 238.802 232.2 238.902 232.2C239.002 232.2 239.102 232.2 239.202 232V231.9C239.202 231.8 239.102 231.8 239.002 231.8ZM228.102 248.5C228.002 248.6 228.002 248.7 228.002 248.8C228.102 248.9 228.202 248.9 228.302 248.9C228.402 248.8 228.402 248.7 228.402 248.6C228.402 248.5 228.202 248.4 228.102 248.5ZM225.202 244.2C225.102 244.3 225.102 244.4 225.102 244.5C225.202 244.6 225.302 244.6 225.402 244.6C225.502 244.5 225.502 244.4 225.502 244.3C225.402 244.2 225.302 244.1 225.202 244.2ZM222.302 239.9C222.202 240 222.202 240.1 222.202 240.2C222.302 240.3 222.402 240.3 222.502 240.2C222.602 240.1 222.602 240 222.602 239.9C222.502 239.9 222.402 239.9 222.302 239.9ZM261.702 232.2C261.702 232.4 261.802 232.6 262.002 232.6C262.202 232.6 262.402 232.5 262.402 232.3C262.402 232.1 262.302 231.9 262.102 231.9C261.902 231.8 261.702 232 261.702 232.2ZM253.002 230.3C253.002 230.5 253.102 230.7 253.302 230.7C253.502 230.7 253.702 230.6 253.702 230.4C253.702 230.2 253.602 230 253.402 230C253.202 230 253.002 230.1 253.002 230.3ZM244.302 228.5C244.302 228.7 244.402 228.9 244.602 228.9C244.802 228.9 245.002 228.8 245.002 228.6C245.002 228.4 244.902 228.2 244.702 228.2C244.502 228.2 244.302 228.3 244.302 228.5ZM240.702 262.8C240.502 262.9 240.502 263.1 240.602 263.3C240.702 263.5 240.902 263.5 241.102 263.4C241.302 263.3 241.302 263.1 241.202 262.9C241.102 262.8 240.902 262.7 240.702 262.8ZM235.802 255.4C235.602 255.5 235.602 255.7 235.702 255.9C235.802 256.1 236.002 256.1 236.202 256C236.402 255.9 236.402 255.7 236.302 255.5C236.202 255.3 236.002 255.3 235.802 255.4ZM231.002 247.9C230.802 248 230.802 248.2 230.902 248.4C231.002 248.6 231.202 248.6 231.402 248.5C231.602 248.4 231.602 248.2 231.502 248C231.402 247.9 231.202 247.8 231.002 247.9ZM226.102 240.5C225.902 240.6 225.902 240.8 226.002 241C226.102 241.2 226.302 241.2 226.502 241.1C226.702 241 226.702 240.8 226.602 240.6C226.502 240.4 226.302 240.4 226.102 240.5ZM251.102 246.7C251.002 246.9 251.002 247.1 251.202 247.2C251.402 247.3 251.602 247.3 251.702 247.1C251.802 246.9 251.802 246.7 251.602 246.6C251.502 246.5 251.202 246.5 251.102 246.7ZM243.802 241.7C243.702 241.9 243.702 242.1 243.902 242.2C244.102 242.3 244.302 242.3 244.402 242.1C244.502 241.9 244.502 241.7 244.302 241.6C244.102 241.5 243.902 241.5 243.802 241.7ZM236.402 236.7C236.302 236.9 236.302 237.1 236.502 237.2C236.702 237.3 236.902 237.3 237.002 237.1C237.102 236.9 237.102 236.7 236.902 236.6C236.802 236.5 236.602 236.5 236.402 236.7ZM255.702 242.7C255.602 242.9 255.602 243.1 255.802 243.2C256.002 243.3 256.202 243.3 256.302 243.1C256.402 242.9 256.402 242.7 256.202 242.6C256.102 242.5 255.802 242.5 255.702 242.7ZM248.202 238C248.102 238.2 248.202 238.4 248.302 238.5C248.502 238.6 248.702 238.5 248.802 238.4C248.902 238.2 248.902 238 248.702 237.9C248.502 237.8 248.302 237.8 248.202 238ZM240.702 233.3C240.602 233.5 240.602 233.7 240.802 233.8C241.002 233.9 241.202 233.9 241.302 233.7C241.402 233.5 241.402 233.3 241.202 233.2C241.002 233.1 240.802 233.2 240.702 233.3ZM221.602 247C221.402 247 221.302 247.2 221.302 247.4C221.302 247.6 221.502 247.7 221.702 247.7C221.902 247.7 222.002 247.5 222.002 247.3C222.002 247 221.802 246.9 221.602 247ZM219.602 238.3C219.502 238.3 219.402 238.4 219.402 238.5C219.302 238.6 219.302 238.7 219.302 238.8V238.9C219.402 239.1 219.602 239.2 219.802 239.1C220.002 239 220.102 238.8 220.002 238.7C220.002 238.6 219.902 238.6 219.902 238.5C219.802 238.3 219.702 238.3 219.602 238.3ZM240.202 252.6C240.002 252.7 240.002 252.9 240.102 253.1C240.202 253.3 240.402 253.3 240.602 253.2C240.802 253.1 240.802 252.9 240.702 252.7C240.602 252.5 240.302 252.4 240.202 252.6ZM235.002 245.4C234.802 245.5 234.802 245.7 234.902 245.9C235.002 246.1 235.202 246.1 235.402 246C235.602 245.9 235.602 245.7 235.502 245.5C235.402 245.3 235.202 245.2 235.002 245.4ZM229.902 238.2C229.702 238.3 229.702 238.5 229.802 238.7C229.902 238.9 230.102 238.9 230.302 238.8C230.502 238.7 230.502 238.5 230.402 238.3C230.302 238.1 230.002 238 229.902 238.2ZM241.502 237.3C241.402 237.4 241.402 237.6 241.502 237.7C241.602 237.8 241.802 237.8 241.902 237.7C242.002 237.6 242.002 237.4 241.902 237.3C241.802 237.2 241.602 237.2 241.502 237.3ZM236.702 232.7C236.602 232.8 236.602 233 236.702 233.1C236.802 233.2 237.002 233.2 237.102 233.1C237.202 233 237.202 232.8 237.102 232.7C237.002 232.6 236.802 232.6 236.702 232.7ZM228.502 242.4C228.402 242.5 228.302 242.6 228.302 242.7C228.402 242.8 228.502 242.9 228.702 242.9C228.802 242.8 228.902 242.7 228.802 242.5C228.802 242.4 228.602 242.3 228.502 242.4ZM225.802 236.3C225.702 236.4 225.602 236.5 225.702 236.7C225.802 236.8 225.902 236.9 226.102 236.8C226.202 236.7 226.302 236.6 226.202 236.4C226.102 236.3 225.902 236.2 225.802 236.3Z" fill="white"/>
<path d="M187.8 129.2C187.8 129.2 153.4 178.5 164.8 228.8C164.8 228.8 202.1 246.9 235.5 214.6C235.5 214.6 204.7 154.3 203 137.2L187.8 129.2Z" fill="url(#paint28_linear)"/>
<path d="M276.303 142.5H297.403V157.9C297.403 163.7 292.703 168.5 286.803 168.5C281.003 168.5 276.203 163.8 276.203 157.9L276.303 142.5Z" fill="url(#paint29_linear)"/>
<path d="M285.701 148.9H288.801C290.101 148.9 291.201 150 291.201 151.3V167.1H283.401V151.3C283.301 150 284.401 148.9 285.701 148.9Z" fill="url(#paint30_linear)"/>
<path d="M273.801 171C273.801 171 279.801 159.4 283.301 157.2C283.301 157.2 283.301 165.2 286.901 165.1C291.101 165 291.301 157.7 291.101 154.2C291.001 151.7 290.701 151.9 293.001 152.6C294.501 153.1 303.101 157.3 301.401 168.9C299.701 180.5 282.601 180.6 280.301 182C279.301 182.6 278.301 183.2 277.301 183.8L273.801 171Z" fill="url(#paint31_linear)"/>
<path d="M203.101 137.2L187.801 129.2L192.501 119C196.701 121.4 201.501 122.5 206.301 122.1C205.501 124.3 202.201 134.1 203.101 137.2Z" fill="url(#paint32_linear)"/>
<path d="M187.803 129.2C187.803 129.2 204.803 130.3 211.603 151.8C218.403 173.3 220.003 189.7 234.403 186.9C248.803 184.1 264.803 176.5 273.503 169.7L283.103 206.4C283.103 206.4 274.303 219.6 261.503 220.8C248.703 222 239.103 229.6 231.603 232.8C224.103 236 206.903 241.2 198.503 229.2C190.103 217.2 176.503 178.9 178.503 145.3C181.203 139.8 184.303 134.4 187.803 129.2Z" fill="url(#paint33_linear)"/>
<path d="M227.502 289.3H135.402L112.202 165.5C110.502 156.3 116.502 147.4 125.802 145.7C126.802 145.5 127.902 145.4 128.902 145.4H186.402C194.602 145.4 201.602 151.2 203.102 159.2L227.502 289.3Z" fill="url(#paint34_linear)"/>
<path d="M220.4 110.6C220.4 110.6 218.1 119.6 208.8 121.7C201.3 123.4 194.8 120.2 192.5 118.9C192.7 118.6 196.2 112.7 192.5 110.3C188.7 107.8 188.7 106.5 188.6 104.7C188.5 102.9 191.2 100.4 195.7 101.9C200.2 103.5 204.7 99.6 205 94.2C209.6 95 214.2 94.7 218.6 93.3C219.2 94.7 222.5 103.3 223.9 105.7C225.5 108.3 221.7 110.4 220.4 110.6Z" fill="#FFBEB6"/>
<path d="M227.203 93.2C226.703 92.9 226.103 92.7 225.503 92.7C223.903 92.7 222.203 94 221.403 96.2C221.303 96.5 221.203 96.9 221.103 97.3C220.803 97.2 220.503 97.1 220.103 97.1C219.003 97.1 218.003 97.4 217.103 98C217.103 97.8 217.103 97.5999 217.003 97.3999C216.803 96.1999 216.303 95.1 215.503 94.2C215.303 93.9 215.003 93.7 214.703 93.5C212.903 92.4 210.803 92.9 209.303 94.7C208.703 95.4 208.303 96.1 207.903 97C207.303 98.6 207.103 100.4 207.403 102.2C207.603 103.4 208.203 104.6 209.003 105.5C209.203 105.7 209.403 105.9 209.703 106.1C210.803 106.8 212.303 106.9 213.503 106.2C214.903 105.4 215.903 104.1 216.403 102.6C216.803 101.4 217.103 100.2 217.003 99C217.903 98.3 219.103 97.9 220.203 98C220.303 98 220.503 98.1 220.603 98.1C220.603 98.2 220.603 98.2 220.603 98.3C220.603 98.4 220.603 98.5 220.603 98.5C220.603 98.7 220.603 98.9 220.703 99.1C221.403 100.8 222.103 102.5 222.703 103.8C224.703 105.1 227.303 103.8 228.503 100.8C229.903 98 229.203 94.5 227.203 93.2ZM215.903 102.1C215.403 103.4 214.503 104.6 213.303 105.3C212.303 105.9 211.103 105.8 210.203 105.2C209.203 104.4 208.503 103.3 208.303 102C208.003 100.5 208.203 98.8999 208.703 97.3999C209.103 96.3999 209.703 95.4 210.603 94.7C211.603 93.7 213.203 93.5 214.503 94.3L214.603 94.3999C214.803 94.4999 214.903 94.6 215.103 94.8C215.803 95.6 216.303 96.5 216.503 97.5C216.603 99 216.503 100.6 215.903 102.1ZM228.103 100.5C227.103 103 225.003 104.2 223.303 103.1C221.603 102 221.103 99.1 222.103 96.6C223.103 94.1 225.203 92.9 226.903 94C228.503 95 229.103 98 228.103 100.5Z" fill="white"/>
<path d="M232.004 72.1C231.904 71.9 231.704 71.8 231.504 71.9C231.304 72 231.204 72.2 231.204 72.3C235.004 85 225.104 93.2 214.104 94.4C219.004 93.7 224.704 91.5 228.404 85.4C235.804 73.1 225.004 68.4 218.804 71.7C212.604 75 208.204 81.4 208.204 81.4C208.204 81.4 198.504 73.8 182.804 80.1C167.104 86.4 172.904 105.5 178.504 111C184.104 116.5 192.504 118.9 192.504 118.9C192.504 118.9 196.304 112.8 192.504 110.3C188.704 107.8 188.704 106.5 188.604 104.7C188.504 102.9 191.204 100.4 195.704 101.9C200.104 103.4 204.504 99.7 205.004 94.5C212.304 96.3 220.204 95.7 226.204 90.7C231.804 86.4 234.104 78.9 232.004 72.1Z" fill="#666666"/>
<defs>
<linearGradient id="paint0_linear" x1="555.883" y1="185.412" x2="554.75" y2="155.405" gradientUnits="userSpaceOnUse">
<stop stop-color="#666666"/>
<stop offset="0.6955" stop-color="#9C9C9C"/>
<stop offset="1" stop-color="#9C9C9C"/>
</linearGradient>
<linearGradient id="paint1_linear" x1="550.87" y1="64.1691" x2="446.467" y2="-19.4069" gradientUnits="userSpaceOnUse">
<stop stop-color="#666666"/>
<stop offset="0.6955" stop-color="#9C9C9C"/>
<stop offset="1" stop-color="#9C9C9C"/>
</linearGradient>
<linearGradient id="paint2_linear" x1="560.349" y1="150.077" x2="583.845" y2="68.2648" gradientUnits="userSpaceOnUse">
<stop stop-color="#666666"/>
<stop offset="0.6955" stop-color="#9C9C9C"/>
<stop offset="1" stop-color="#9C9C9C"/>
</linearGradient>
<linearGradient id="paint3_linear" x1="451.043" y1="44.6591" x2="455.544" y2="-13.8616" gradientUnits="userSpaceOnUse">
<stop offset="0.08983" stop-color="#EEEEEE"/>
<stop offset="0.8178" stop-color="#D6D7D8"/>
</linearGradient>
<linearGradient id="paint4_linear" x1="236.787" y1="406.499" x2="218.263" y2="432.761" gradientUnits="userSpaceOnUse">
<stop offset="0.08983" stop-color="#EEEEEE"/>
<stop offset="0.8178" stop-color="#D6D7D8"/>
</linearGradient>
<linearGradient id="paint5_linear" x1="277.515" y1="152.904" x2="276.869" y2="199.364" gradientUnits="userSpaceOnUse">
<stop offset="0.1291" stop-color="#9C9C9C"/>
<stop offset="0.9987" stop-color="#666666"/>
</linearGradient>
<linearGradient id="paint6_linear" x1="106.394" y1="178.756" x2="103.605" y2="200.095" gradientUnits="userSpaceOnUse">
<stop offset="0.1291" stop-color="#9C9C9C"/>
<stop offset="0.9987" stop-color="#666666"/>
</linearGradient>
<linearGradient id="paint7_linear" x1="281.015" y1="268.355" x2="206.569" y2="276.332" gradientUnits="userSpaceOnUse">
<stop offset="0.14" stop-color="#E45B5B"/>
<stop offset="1" stop-color="#C82C2C"/>
</linearGradient>
<linearGradient id="paint8_linear" x1="202.367" y1="303.269" x2="204.914" y2="276.952" gradientUnits="userSpaceOnUse">
<stop stop-color="#19517A"/>
<stop offset="1" stop-color="#143247"/>
</linearGradient>
<linearGradient id="paint9_linear" x1="161.89" y1="284.679" x2="211.977" y2="312.906" gradientUnits="userSpaceOnUse">
<stop stop-color="#20445E"/>
<stop offset="1" stop-color="#11324A"/>
</linearGradient>
<linearGradient id="paint10_linear" x1="204.067" y1="345.084" x2="201.979" y2="416.913" gradientUnits="userSpaceOnUse">
<stop stop-color="#19517A"/>
<stop offset="1" stop-color="#0E293D"/>
</linearGradient>
<linearGradient id="paint11_linear" x1="235.737" y1="394.359" x2="200.866" y2="384.127" gradientUnits="userSpaceOnUse">
<stop stop-color="#1E3F56"/>
<stop offset="1" stop-color="#1B384D"/>
</linearGradient>
<linearGradient id="paint12_linear" x1="143.787" y1="368.023" x2="171.767" y2="393.288" gradientUnits="userSpaceOnUse">
<stop stop-color="#19517A"/>
<stop offset="1" stop-color="#19517A"/>
</linearGradient>
<linearGradient id="paint13_linear" x1="182.409" y1="408.661" x2="150.05" y2="434.689" gradientUnits="userSpaceOnUse">
<stop offset="0.08983" stop-color="#EEEEEE"/>
<stop offset="0.8178" stop-color="#D6D7D8"/>
</linearGradient>
<linearGradient id="paint14_linear" x1="266.819" y1="404.83" x2="241.963" y2="431.326" gradientUnits="userSpaceOnUse">
<stop offset="0.08983" stop-color="#EEEEEE"/>
<stop offset="0.8178" stop-color="#D6D7D8"/>
</linearGradient>
<linearGradient id="paint15_linear" x1="193.928" y1="385.688" x2="264.744" y2="413.041" gradientUnits="userSpaceOnUse">
<stop offset="0.1291" stop-color="#9C9C9C"/>
<stop offset="0.9987" stop-color="#3C3C3D"/>
</linearGradient>
<linearGradient id="paint16_linear" x1="126.898" y1="315.789" x2="287.338" y2="297.121" gradientUnits="userSpaceOnUse">
<stop stop-color="#14476B"/>
<stop offset="1" stop-color="#123753"/>
</linearGradient>
<linearGradient id="paint17_linear" x1="156.203" y1="404.323" x2="136.507" y2="431.992" gradientUnits="userSpaceOnUse">
<stop offset="0.08983" stop-color="#EEEEEE"/>
<stop offset="0.8178" stop-color="#D6D7D8"/>
</linearGradient>
<linearGradient id="paint18_linear" x1="550.24" y1="168.135" x2="561.556" y2="168.135" gradientUnits="userSpaceOnUse">
<stop stop-color="#19517A"/>
<stop offset="1" stop-color="#113A57"/>
</linearGradient>
<linearGradient id="paint19_linear" x1="572.031" y1="86.8935" x2="583.346" y2="86.8935" gradientUnits="userSpaceOnUse">
<stop stop-color="#19517A"/>
<stop offset="1" stop-color="#133249"/>
</linearGradient>
<linearGradient id="paint20_linear" x1="0.0459" y1="212.983" x2="600.772" y2="212.983" gradientUnits="userSpaceOnUse">
<stop offset="0.08983" stop-color="#EEEEEE"/>
<stop offset="0.8178" stop-color="#D6D7D8"/>
</linearGradient>
<linearGradient id="paint21_linear" x1="7.90844" y1="325.82" x2="52.2184" y2="325.82" gradientUnits="userSpaceOnUse">
<stop stop-color="#19517A"/>
<stop offset="1" stop-color="#0F3957"/>
</linearGradient>
<linearGradient id="paint22_linear" x1="561.968" y1="315.01" x2="547.812" y2="257.641" gradientUnits="userSpaceOnUse">
<stop stop-color="#19517A"/>
<stop offset="1" stop-color="#15486D"/>
</linearGradient>
<linearGradient id="paint23_linear" x1="498.453" y1="122.267" x2="420.655" y2="251.827" gradientUnits="userSpaceOnUse">
<stop stop-color="#19517A"/>
<stop offset="1" stop-color="#13354E"/>
</linearGradient>
<linearGradient id="paint24_linear" x1="246.999" y1="82.861" x2="422.205" y2="271.12" gradientUnits="userSpaceOnUse">
<stop stop-color="#1B3C54"/>
<stop offset="1" stop-color="#19517A"/>
</linearGradient>
<linearGradient id="paint25_linear" x1="29.6889" y1="101.019" x2="192.33" y2="195.73" gradientUnits="userSpaceOnUse">
<stop stop-color="#16405F"/>
<stop offset="1" stop-color="#19517A"/>
</linearGradient>
<linearGradient id="paint26_linear" x1="520.658" y1="195.958" x2="578.977" y2="195.958" gradientUnits="userSpaceOnUse">
<stop stop-color="#19517A"/>
<stop offset="1" stop-color="#0D3857"/>
</linearGradient>
<linearGradient id="paint27_linear" x1="279.115" y1="320.05" x2="149.45" y2="226.712" gradientUnits="userSpaceOnUse">
<stop stop-color="#45708F"/>
<stop offset="1" stop-color="#19517A"/>
</linearGradient>
<linearGradient id="paint28_linear" x1="162.506" y1="181.547" x2="235.531" y2="181.547" gradientUnits="userSpaceOnUse">
<stop stop-color="#A1C3FC"/>
<stop offset="0.6955" stop-color="#81AEF2"/>
<stop offset="1" stop-color="#78A9EF"/>
</linearGradient>
<linearGradient id="paint29_linear" x1="278.466" y1="126.51" x2="291.532" y2="164.556" gradientUnits="userSpaceOnUse">
<stop offset="0.14" stop-color="#E45B5B"/>
<stop offset="1" stop-color="#E45B5B"/>
</linearGradient>
<linearGradient id="paint30_linear" x1="287.635" y1="150.068" x2="286.348" y2="179.809" gradientUnits="userSpaceOnUse">
<stop offset="0.14" stop-color="#E94A47"/>
<stop offset="1" stop-color="#C63030"/>
</linearGradient>
<linearGradient id="paint31_linear" x1="295.666" y1="181.119" x2="268.765" y2="143.457" gradientUnits="userSpaceOnUse">
<stop stop-color="#FFBEB6"/>
<stop offset="1" stop-color="#F2A19C"/>
</linearGradient>
<linearGradient id="paint32_linear" x1="190.862" y1="141.078" x2="204.168" y2="116.15" gradientUnits="userSpaceOnUse">
<stop stop-color="#FFBEB6"/>
<stop offset="1" stop-color="#F2A19C"/>
</linearGradient>
<linearGradient id="paint33_linear" x1="241.055" y1="204.153" x2="176.532" y2="151.219" gradientUnits="userSpaceOnUse">
<stop stop-color="#B8D3FC"/>
<stop offset="0.6955" stop-color="#81AEF2"/>
<stop offset="1" stop-color="#78A9EF"/>
</linearGradient>
<linearGradient id="paint34_linear" x1="192.884" y1="175.7" x2="116.403" y2="334.435" gradientUnits="userSpaceOnUse">
<stop offset="0.14" stop-color="#E46C6C"/>
<stop offset="1" stop-color="#C63030"/>
</linearGradient>
</defs>
</svg>
