<svg width="24" height="24" viewBox="0 0 24 24" fill="none" xmlns="http://www.w3.org/2000/svg">
<path d="M11.5 3L4 7.5L5 12C5.5 13.5 6.8 16.8 8 18C9.2 19.2 11.5 20.5 12.5 21C18 19.5 18 15 19 13.5C19.8 12.3 20 9 20 7.5L11.5 3Z" fill="white"/>
<path d="M20.995 6.89999C20.961 6.55799 20.754 6.25799 20.447 6.10499L12.447 2.10499C12.166 1.96399 11.834 1.96399 11.552 2.10499L3.552 6.10499C3.246 6.25899 3.039 6.55899 3.005 6.89999C2.994 7.00699 2.044 17.667 11.594 21.914C11.723 21.972 11.861 22 12 22C12.139 22 12.277 21.972 12.406 21.914C21.956 17.667 21.006 7.00799 20.995 6.89999ZM12 19.897C5.231 16.625 4.911 9.64199 4.966 7.63499L12 4.11799L19.029 7.63299C19.066 9.62199 18.701 16.651 12 19.897Z" fill="#48A300"/>
<path d="M11 12.586L8.707 10.293L7.293 11.707L11 15.414L16.707 9.707L15.293 8.293L11 12.586Z" fill="#48A300"/>
</svg>
