<svg width="24" height="24" viewBox="0 0 24 24" fill="none" xmlns="http://www.w3.org/2000/svg">
<path d="M11.5 3L4 7.5L5 12C5.5 13.5 6.8 16.8 8 18C9.2 19.2 11.5 20.5 12.5 21C18 19.5 18 15 19 13.5C19.8 12.3 20 9 20 7.5L11.5 3Z" fill="white"/>
<path d="M20.9949 6.90002C20.9609 6.55802 20.7539 6.25802 20.4469 6.10502L12.4469 2.10502C12.1659 1.96402 11.8339 1.96402 11.5519 2.10502L3.55194 6.10502C3.24594 6.25902 3.03894 6.55902 3.00494 6.90002C2.99394 7.00702 2.04394 17.667 11.5939 21.914C11.7229 21.972 11.8609 22 11.9999 22C12.1389 22 12.2769 21.972 12.4059 21.914C21.9559 17.667 21.0059 7.00802 20.9949 6.90002ZM11.9999 19.897C5.23094 16.625 4.91094 9.64202 4.96594 7.63502L11.9999 4.11802L19.0289 7.63302C19.0659 9.62202 18.7009 16.651 11.9999 19.897Z" fill="#27AE60"/>
<path d="M11 12.586L8.70697 10.293L7.29297 11.707L11 15.414L16.707 9.70697L15.293 8.29297L11 12.586Z" fill="#27AE60"/>
</svg>
