<svg width="42" height="41" viewBox="0 0 42 41" fill="none" xmlns="http://www.w3.org/2000/svg">
<mask id="mask0" mask-type="alpha" maskUnits="userSpaceOnUse" x="0" y="0" width="41" height="41">
<path fill-rule="evenodd" clip-rule="evenodd" d="M6.56142 2.78054C4.48876 2.78054 2.80206 4.45372 2.80206 6.51046V20.1104C2.80206 29.9437 10.7363 37.9697 20.4885 38.002H20.5505C25.2916 38.002 29.7454 36.1719 33.0988 32.8443C36.4666 29.5024 38.3127 25.0585 38.2964 20.3313C38.2641 10.6538 30.1757 2.78054 20.2665 2.78054H6.56142ZM20.4569 40.412H20.3865C9.24814 40.3755 0.186523 31.2268 0.186523 20.0184V6.44564C0.186523 2.99364 3.01683 0.185425 6.49592 0.185425H20.1735C31.4684 0.185425 40.6879 9.1773 40.7249 20.2301C40.743 25.6287 38.6351 30.7044 34.7889 34.5211C30.959 38.3216 25.8715 40.412 20.4569 40.412ZM9.87264 26.694C9.20604 26.694 8.64328 26.1815 8.59632 25.5122C8.54692 24.8116 9.0792 24.2048 9.78452 24.1558C17.5441 23.6186 23.8023 17.4084 24.3426 9.70966C24.3914 9.00947 25.0099 8.48248 25.7089 8.53018C26.415 8.57882 26.947 9.186 26.8977 9.88582C26.2692 18.8418 18.9892 26.0663 9.96338 26.6909C9.9327 26.6927 9.90258 26.694 9.87264 26.694ZM8.57131 20.7623C7.86133 20.7623 7.28564 20.191 7.28564 19.4865C7.28564 18.782 7.86133 18.2107 8.57131 18.2107C13.964 18.2107 18.3516 13.8572 18.3516 8.5056C18.3516 7.80107 18.9273 7.22981 19.6373 7.22981C20.3473 7.22981 20.923 7.80107 20.923 8.5056C20.923 15.264 15.3821 20.7623 8.57131 20.7623ZM8.57785 15.0156C7.86425 15.0156 7.28564 14.4414 7.28564 13.7333C7.28564 13.0252 7.86425 12.4511 8.57785 12.4511C10.7668 12.4511 12.5474 10.6842 12.5474 8.51208C12.5474 7.80398 13.126 7.22981 13.8396 7.22981C14.5532 7.22981 15.1318 7.80398 15.1318 8.51208C15.1318 12.0981 12.1915 15.0156 8.57785 15.0156Z" fill="white"/>
</mask>
<g mask="url(#mask0)">
<rect width="41.0989" height="40.7827" fill="#19517A"/>
</g>
</svg>
