<svg width="477" height="518" viewBox="0 0 477 518" fill="none" xmlns="http://www.w3.org/2000/svg">
<path d="M476.339 0.643005H0.460938V282.354H476.339V0.643005Z" fill="#EEEEEE"/>
<path d="M166.348 209.26C166.348 209.26 180.368 201.584 181.39 190.784C182.412 179.984 182.337 181.625 181.341 177.009C180.345 172.393 182.405 171.551 185.193 174.907C187.981 178.263 185.467 183.76 187.489 183.415C189.511 183.07 191.953 183.106 194.619 175.625C197.285 168.144 198.962 165.777 201.176 167.492C203.39 169.207 209.198 178.781 202.985 187.638C196.772 196.495 193.983 192.491 188.685 199.822C183.387 207.153 179.836 220.169 174.905 226.048L166.348 209.26Z" fill="url(#paint0_linear)"/>
<path d="M303.179 187.595C303.179 187.595 285.82 183.538 281.494 172.239C277.168 160.94 277.739 162.681 277.429 157.423C277.119 152.165 274.654 151.877 272.661 156.316C270.668 160.755 275.013 165.91 272.737 166.144C270.461 166.378 267.848 167.147 262.748 159.905C257.648 152.663 255.138 150.621 253.271 153.126C251.404 155.631 248.026 167.654 257.35 175.314C266.674 182.974 268.473 177.838 276.357 184.131C284.241 190.424 291.948 203.348 299.003 208.192L303.179 187.595Z" fill="url(#paint1_linear)"/>
<path d="M134.645 107.145L199.43 212.628H253.002L345.196 67.277H282.903L221.44 167.362L183.649 107.145H134.645Z" fill="url(#paint2_linear)"/>
<path d="M365.899 482.461L378.334 517.149L290.547 517.152C290.547 517.152 295.048 508.47 310.054 502.039C325.06 495.608 339.065 482.461 339.065 482.461H365.899Z" fill="url(#paint3_linear)"/>
<path d="M428.633 482.443L441.068 517.131L353.281 517.134C353.281 517.134 357.782 508.452 372.788 502.021C387.794 495.59 401.799 482.443 401.799 482.443H428.633Z" fill="#E45B5B"/>
<path d="M402.49 281.47C391.91 327.91 391.09 321.39 392.72 353.97C394.36 386.55 389.06 375.56 387.43 409.77C385.8 443.98 387.89 460.87 365.9 482.47H339.07C339.07 482.47 336.89 378.15 337.37 348.66C337.7 328.03 344.19 307.13 347.93 290.06L352.03 272.94C355.978 272.722 359.846 271.741 363.42 270.05C372.74 273.17 389.16 273.83 403.98 273.66C403.59 276.2 403.1 278.8 402.49 281.47Z" fill="url(#paint4_linear)"/>
<path d="M428.637 482.44H401.797C401.797 482.44 359.497 380.5 357.387 358.36C355.717 340.76 356.437 320.48 358.287 301.99L361.987 269.54C374.137 274.35 401.607 274.02 419.337 273.2C418.848 283.297 416.967 293.278 413.747 302.86C396.867 353.52 408.467 351.12 413.937 366.45C419.437 381.77 422.377 391.14 421.127 405.62C419.857 420.11 426.177 416.27 429.567 434.99C432.937 453.73 428.637 482.44 428.637 482.44Z" fill="#19517A"/>
<path d="M372.85 169.057C372.85 169.057 369.675 186.197 345.824 192.089C321.973 197.981 300.366 186.477 300.366 186.477L285.168 225.085C285.168 225.085 292.291 232.608 306.882 231.766C321.473 230.924 328.707 228.848 335.161 230.532C341.615 232.216 371.079 233.338 377.252 213.696C383.425 194.054 389.09 164.47 389.09 164.47C389.09 164.47 382.198 171.279 372.85 169.057Z" fill="url(#paint5_linear)"/>
<path d="M305.335 221.379C305.335 221.379 268.299 215.355 262.942 210.572C257.585 205.789 258.35 202.919 251.653 199.475C244.956 196.031 240.173 193.352 237.686 191.248C235.199 189.144 233.285 194.309 238.26 199.284C243.235 204.259 251.311 208.989 245.954 212.625C245.954 212.625 232.828 212.57 211.305 212.67C210.223 212.675 222.38 221.48 236.921 221.671C251.462 221.862 251.654 217.844 260.264 224.541C268.874 231.238 291.205 248.76 291.205 248.76L304.099 225.644" fill="url(#paint6_linear)"/>
<path opacity="0.86" d="M389.024 276.638C388.979 276.533 388.858 276.485 388.754 276.529C388.649 276.574 388.601 276.695 388.645 276.799C388.689 276.903 388.811 276.952 388.915 276.908C389.02 276.864 389.068 276.743 389.024 276.638ZM367.679 276.581C367.574 276.543 367.458 276.597 367.42 276.702C367.37 276.796 367.406 276.913 367.5 276.963C367.508 276.967 367.516 276.971 367.525 276.974C367.633 277.018 367.756 276.966 367.8 276.858C367.844 276.75 367.792 276.627 367.684 276.583C367.682 276.582 367.68 276.582 367.679 276.581ZM378.282 275.979C378.164 275.978 378.068 276.074 378.067 276.192C378.066 276.31 378.162 276.406 378.28 276.407C378.398 276.408 378.494 276.312 378.495 276.194C378.495 276.076 378.4 275.979 378.282 275.979ZM416.351 277.608C416.191 277.463 415.944 277.474 415.799 277.634C415.796 277.637 415.793 277.641 415.79 277.645C415.649 277.806 415.665 278.05 415.826 278.191C415.827 278.192 415.828 278.192 415.829 278.193C415.989 278.338 416.236 278.327 416.381 278.167C416.384 278.164 416.387 278.16 416.39 278.156C416.531 277.996 416.515 277.751 416.354 277.611C416.352 277.609 416.352 277.609 416.351 277.608ZM387.276 301.745C387.058 301.76 386.893 301.947 386.904 302.165C386.915 302.375 387.094 302.536 387.304 302.525C387.311 302.525 387.318 302.524 387.325 302.523C387.543 302.508 387.708 302.321 387.697 302.103C387.68 301.888 387.492 301.727 387.276 301.745ZM386.598 292.202C386.383 292.219 386.223 292.408 386.24 292.623C386.24 292.623 386.24 292.623 386.24 292.624C386.254 292.843 386.443 293.008 386.662 292.994C386.879 292.98 387.043 292.794 387.032 292.577C387.007 292.358 386.818 292.195 386.598 292.202ZM385.935 282.662C385.716 282.687 385.554 282.876 385.561 283.096C385.572 283.306 385.751 283.467 385.961 283.456C385.968 283.456 385.975 283.455 385.982 283.454C386.197 283.445 386.364 283.263 386.355 283.048C386.355 283.043 386.355 283.039 386.354 283.034C386.339 282.816 386.153 282.651 385.935 282.662ZM406.049 292.225C405.955 292.024 405.716 291.936 405.515 292.03C405.314 292.124 405.226 292.363 405.32 292.564C405.414 292.765 405.653 292.853 405.854 292.759C405.856 292.758 405.859 292.757 405.861 292.756C406.058 292.659 406.141 292.424 406.049 292.225ZM401.781 283.67C401.687 283.469 401.448 283.381 401.247 283.475C401.046 283.569 400.958 283.808 401.052 284.009C401.146 284.21 401.385 284.298 401.586 284.204C401.588 284.203 401.591 284.202 401.593 284.201C401.789 284.104 401.873 283.869 401.781 283.67ZM397.513 275.115C397.405 274.922 397.166 274.845 396.966 274.939C396.769 275.042 396.693 275.284 396.795 275.481C396.895 275.672 397.128 275.751 397.323 275.659C397.519 275.556 397.602 275.318 397.513 275.115ZM369.341 294.895C369.144 294.825 368.927 294.929 368.857 295.126C368.854 295.136 368.851 295.145 368.848 295.155C368.78 295.357 368.888 295.576 369.09 295.644C369.091 295.644 369.093 295.645 369.094 295.645C369.301 295.715 369.525 295.606 369.599 295.401C369.657 295.191 369.545 294.972 369.341 294.895ZM372.378 285.838C372.174 285.765 371.949 285.871 371.876 286.075C371.875 286.077 371.874 286.08 371.874 286.082C371.804 286.289 371.913 286.513 372.118 286.587C372.328 286.645 372.548 286.533 372.625 286.329C372.693 286.127 372.585 285.908 372.383 285.84C372.381 285.839 372.38 285.839 372.378 285.838ZM375.404 276.765C375.197 276.695 374.973 276.804 374.899 277.009C374.827 277.213 374.934 277.437 375.138 277.509C375.144 277.511 375.151 277.513 375.157 277.515C375.354 277.586 375.571 277.484 375.642 277.287C375.644 277.281 375.646 277.275 375.648 277.269C375.718 277.063 375.609 276.839 375.404 276.765ZM414.246 287.864C414.143 287.7 413.926 287.651 413.762 287.754C413.598 287.857 413.549 288.074 413.652 288.238C413.755 288.402 413.972 288.451 414.136 288.348C414.3 288.245 414.35 288.029 414.246 287.864ZM409.724 280.63C409.621 280.466 409.404 280.417 409.24 280.52C409.076 280.623 409.027 280.84 409.13 281.004C409.233 281.168 409.45 281.217 409.614 281.114C409.777 281.016 409.83 280.805 409.732 280.643C409.729 280.639 409.726 280.634 409.724 280.63ZM378.609 293.623C378.42 293.579 378.231 293.697 378.188 293.886C378.188 293.888 378.187 293.89 378.187 293.892C378.138 294.074 378.246 294.261 378.428 294.309C378.433 294.31 378.438 294.312 378.443 294.313C378.637 294.354 378.828 294.236 378.88 294.045C378.913 293.856 378.795 293.671 378.609 293.623ZM380.53 285.311C380.341 285.267 380.152 285.385 380.109 285.574C380.109 285.576 380.108 285.578 380.108 285.58C380.059 285.762 380.167 285.949 380.349 285.997C380.354 285.998 380.359 286 380.364 286.001C380.551 286.045 380.738 285.931 380.785 285.745C380.83 285.556 380.718 285.363 380.53 285.311ZM382.451 276.998C382.262 276.954 382.073 277.072 382.03 277.262C382.03 277.264 382.029 277.266 382.029 277.268C381.977 277.444 382.077 277.629 382.253 277.681C382.264 277.684 382.274 277.687 382.285 277.689C382.474 277.733 382.663 277.615 382.706 277.426C382.706 277.424 382.707 277.422 382.707 277.419C382.748 277.233 382.635 277.048 382.451 276.998ZM396.758 289.854C396.568 289.896 396.443 290.079 396.472 290.271C396.505 290.461 396.685 290.588 396.875 290.555C397.067 290.525 397.199 290.346 397.173 290.154C397.139 289.958 396.954 289.825 396.758 289.854ZM395.353 281.439C395.163 281.481 395.038 281.664 395.067 281.856C395.1 282.046 395.28 282.173 395.47 282.14C395.655 282.114 395.784 281.943 395.758 281.758C395.757 281.751 395.756 281.744 395.754 281.737C395.724 281.545 395.546 281.412 395.353 281.439ZM365.157 282.84C364.999 282.728 364.78 282.761 364.661 282.914C364.547 283.071 364.582 283.29 364.739 283.404C364.742 283.406 364.746 283.409 364.749 283.411C364.895 283.524 365.104 283.498 365.218 283.352C365.222 283.346 365.227 283.34 365.231 283.334C365.348 283.183 365.321 282.965 365.17 282.848C365.166 282.847 365.161 282.844 365.157 282.84ZM370.101 275.889C369.935 275.782 369.714 275.829 369.607 275.995C369.505 276.152 369.542 276.362 369.692 276.475C369.854 276.585 370.075 276.546 370.189 276.387C370.303 276.233 370.271 276.016 370.118 275.901C370.113 275.897 370.107 275.893 370.101 275.889ZM393.604 274.274C393.49 274.27 393.395 274.359 393.391 274.473C393.387 274.587 393.476 274.682 393.59 274.686C393.704 274.69 393.799 274.601 393.803 274.487C393.807 274.374 393.718 274.278 393.604 274.274ZM393.294 276.001C393.166 275.984 393.045 276.065 393.011 276.19C392.983 276.316 393.061 276.441 393.186 276.471C393.303 276.506 393.426 276.44 393.461 276.323C393.464 276.314 393.466 276.305 393.467 276.296C393.501 276.167 393.424 276.035 393.295 276.001H393.294ZM413.843 297.072C413.619 297.107 413.464 297.313 413.493 297.537C413.53 297.758 413.739 297.908 413.96 297.873C414.182 297.836 414.336 297.631 414.31 297.408C414.273 297.186 414.064 297.036 413.843 297.072ZM412.306 287.339C412.084 287.375 411.934 287.585 411.97 287.806C412.006 288.027 412.216 288.178 412.437 288.142C412.659 288.106 412.809 287.896 412.773 287.675C412.737 287.454 412.528 287.304 412.306 287.339ZM410.784 277.608C410.562 277.635 410.404 277.838 410.432 278.06C410.46 278.282 410.662 278.44 410.884 278.412C410.89 278.411 410.896 278.41 410.902 278.409C411.126 278.374 411.281 278.168 411.252 277.944C411.214 277.723 411.006 277.573 410.784 277.608ZM373.831 287.409C373.646 287.278 373.389 287.321 373.257 287.507C373.13 287.686 373.166 287.934 373.34 288.069C373.528 288.198 373.784 288.159 373.923 287.978C374.05 287.795 374.009 287.544 373.831 287.409ZM379.628 279.448C379.446 279.315 379.191 279.355 379.058 279.537C378.925 279.719 378.965 279.974 379.147 280.107C379.148 280.108 379.149 280.109 379.15 280.109C379.332 280.242 379.587 280.202 379.72 280.02C379.853 279.838 379.813 279.583 379.631 279.45C379.631 279.45 379.63 279.449 379.628 279.448ZM394.637 291.873C394.422 291.821 394.206 291.954 394.154 292.169C394.153 292.172 394.153 292.174 394.152 292.177C394.098 292.393 394.225 292.614 394.44 292.674C394.659 292.717 394.875 292.586 394.939 292.372C394.993 292.151 394.858 291.928 394.637 291.873ZM396.946 282.302C396.737 282.247 396.523 282.371 396.467 282.58C396.465 282.589 396.463 282.597 396.461 282.606C396.408 282.819 396.537 283.035 396.75 283.088C396.75 283.088 396.75 283.088 396.751 283.088C396.972 283.142 397.195 283.008 397.249 282.787V282.786C397.304 282.577 397.18 282.363 396.971 282.307C396.964 282.305 396.955 282.303 396.946 282.302ZM400.591 295.052C400.369 295.006 400.151 295.148 400.105 295.37C400.059 295.592 400.201 295.81 400.423 295.856C400.645 295.902 400.862 295.76 400.909 295.539C400.956 295.317 400.814 295.099 400.591 295.052ZM402.495 285.424C402.27 285.389 402.057 285.534 402.007 285.756C401.973 285.973 402.113 286.18 402.327 286.228C402.549 286.274 402.767 286.132 402.813 285.91C402.853 285.69 402.713 285.476 402.495 285.424ZM404.382 275.809C404.163 275.767 403.952 275.91 403.91 276.129C403.868 276.348 404.011 276.559 404.23 276.601C404.452 276.647 404.67 276.505 404.716 276.283C404.749 276.061 404.602 275.852 404.382 275.809ZM418.915 280.118C418.694 280.164 418.55 280.379 418.591 280.601C418.64 280.82 418.857 280.958 419.076 280.911C419.294 280.871 419.438 280.663 419.399 280.445C419.399 280.444 419.399 280.443 419.398 280.442C419.349 280.222 419.137 280.08 418.915 280.118ZM384.242 282.827C384.06 282.705 383.814 282.753 383.692 282.935C383.689 282.94 383.686 282.945 383.682 282.95C383.558 283.134 383.607 283.383 383.79 283.507C383.978 283.633 384.232 283.586 384.361 283.401C384.487 283.214 384.438 282.961 384.252 282.835C384.249 282.832 384.246 282.829 384.242 282.827ZM389.683 274.659C389.501 274.537 389.255 274.585 389.133 274.767C389.13 274.772 389.127 274.777 389.123 274.782C388.999 274.966 389.048 275.215 389.231 275.339C389.419 275.465 389.673 275.418 389.802 275.233C389.928 275.046 389.879 274.793 389.692 274.667C389.69 274.664 389.687 274.662 389.683 274.659ZM400.54 278.203C400.395 278.13 400.219 278.187 400.146 278.332C400.141 278.341 400.137 278.351 400.133 278.361C400.065 278.516 400.137 278.697 400.292 278.765C400.448 278.833 400.628 278.761 400.696 278.606C400.762 278.451 400.693 278.272 400.54 278.203ZM416.089 277.543C415.921 277.539 415.781 277.671 415.776 277.839C415.776 277.84 415.776 277.841 415.776 277.842C415.78 278.008 415.91 278.143 416.075 278.155C416.243 278.156 416.382 278.024 416.388 277.856C416.398 277.693 416.273 277.554 416.111 277.544C416.103 277.543 416.096 277.543 416.089 277.543Z" fill="white"/>
<path d="M388.934 163.608C400.145 171.371 409.613 181.387 416.734 193.017C428.821 212.582 425.585 219.754 432.138 231.277C438.691 242.8 447.788 256.998 435.592 272.179C435.592 272.179 375.839 277.357 359.777 268.515L372.852 169.058C372.851 169.057 380.433 169.934 388.934 163.608Z" fill="url(#paint7_linear)"/>
<path d="M372.85 169.057C372.85 169.057 364.519 191.131 353.649 205.584C342.779 220.037 338.216 220.539 323.285 216.171C308.354 211.803 305.496 209.992 305.496 209.992L284.219 265.256C284.219 265.256 295.603 276.822 312.291 273.274C328.979 269.726 334.511 269.714 342.724 271.995C350.937 274.276 370.522 274.629 381.928 249.488C393.334 224.347 396.678 201.74 389.814 164.052" fill="url(#paint8_linear)"/>
<path d="M373.1 156.165C373.991 160.426 373.907 164.834 372.852 169.058C372.852 169.058 380.166 172.901 389.092 164.471C389.092 164.471 387.233 159.636 385.869 154.554L373.1 156.165Z" fill="url(#paint9_linear)"/>
<path d="M362.197 126.23C362.197 126.23 360.856 131.296 358.025 134.276C355.194 137.256 352.959 139.044 359.068 142.322C359.068 142.322 362.644 162.436 384.844 155.285C384.844 155.285 401.829 148.133 399.296 141.131C396.763 134.129 385.737 124.295 385.737 124.295L372.178 120.421L362.197 126.23Z" fill="#FFBEB6"/>
<path d="M359.311 146.914C360.139 148.773 362.316 149.608 364.175 148.781C364.848 148.481 365.416 147.987 365.805 147.361C366.105 146.887 365.42 146.331 365.116 146.811C364.348 148.157 362.635 148.625 361.29 147.858C360.783 147.569 360.378 147.128 360.133 146.598C359.889 146.09 359.065 146.402 359.311 146.914Z" fill="#1C2868"/>
<path d="M354.065 102.729C351.959 117.079 357.733 123.733 364.326 126.781C355.24 123.775 349.896 114.389 351.947 105.041C352.043 104.57 351.32 104.368 351.224 104.842C348.898 115.307 355.496 125.676 365.961 128.002C367.035 128.241 368.128 128.388 369.227 128.441C372.652 129.212 376.175 129.448 379.672 129.14C379.672 129.14 381.165 135.746 384.329 138.36C387.493 140.974 390.52 137.122 392.308 141.249C394.096 145.376 390.245 147.577 386.118 148.265C381.991 148.953 382.541 154.318 382.541 154.318C385.705 155.694 396.023 153.905 403.589 146.752C411.155 139.599 412.944 129.419 412.944 129.419L354.065 102.729Z" fill="#666666"/>
<path d="M176.37 236.367C176.37 236.367 173.98 242.627 162.75 242.437C151.53 242.257 148.22 244.647 138.47 249.247C134.058 251.329 129.266 252.483 124.39 252.637C116.42 252.817 108.11 249.787 103.32 239.867C95.9503 224.597 82.8103 194.937 81.0703 190.997C85.1093 186.438 89.5473 182.248 94.3303 178.477C98.9903 182.717 102.72 183.387 105.16 183.107C106.335 184.458 107.374 185.921 108.26 187.477C108.42 187.777 108.59 188.087 108.75 188.397C108.75 188.397 119.33 219.627 137.55 217.417C148.633 216.035 159.362 212.603 169.19 207.297L176.37 236.367Z" fill="url(#paint10_linear)"/>
<path d="M172.617 219.389C172.617 219.389 188.083 215.354 191.702 205.127C195.321 194.9 194.849 196.474 195.006 191.754C195.163 187.034 197.366 186.719 199.254 190.653C201.142 194.587 197.366 199.306 199.411 199.464C201.456 199.622 203.513 196.876 208.392 191.978C213.996 186.351 214.83 185.147 216.561 187.35C218.292 189.553 221.596 200.251 213.414 207.331C205.232 214.411 204.488 210.752 197.566 216.574C190.644 222.396 186.717 236.351 180.504 240.854C174.291 245.357 176.833 237.756 176.833 237.756L172.617 219.389Z" fill="url(#paint11_linear)"/>
<path d="M108.74 169.826C108.031 173.83 107.905 177.915 108.365 181.955C108.365 181.955 102.931 186.303 94.3281 178.477L98.6761 163.813L108.74 169.826Z" fill="url(#paint12_linear)"/>
<path d="M120.846 140.998C120.889 141.095 120.918 141.169 120.939 141.211C120.952 141.223 120.953 141.235 120.96 141.253C121.132 141.643 121.293 142.045 121.448 142.467C123.119 147.002 127.35 149.831 127.643 151.118C127.936 152.405 125.621 153.849 124.445 154.241C123.269 154.633 123.195 160.954 119.101 165.545C115.26 169.854 108.281 171.034 103.154 169.568C99.0594 159.979 97.7233 152.855 106.363 146.13C115.791 138.786 115.447 134.035 115.447 134.035C117.745 135.923 119.59 138.302 120.846 140.998Z" fill="#FFBEB6"/>
<path d="M77.7958 134.699C83.4539 134.699 88.0408 130.112 88.0408 124.454C88.0408 118.796 83.4539 114.209 77.7958 114.209C72.1376 114.209 67.5508 118.796 67.5508 124.454C67.5508 130.112 72.1376 134.699 77.7958 134.699Z" fill="url(#paint13_linear)"/>
<path d="M118.097 145.445C119.735 146.652 122.041 146.302 123.248 144.664C123.685 144.071 123.934 143.36 123.963 142.624C123.989 142.064 123.119 141.919 123.092 142.486C123.09 144.035 121.832 145.289 120.283 145.287C119.699 145.286 119.129 145.103 118.654 144.763C118.192 144.443 117.63 145.122 118.097 145.445Z" fill="#1C2868"/>
<path d="M103.312 486.629H126.922C126.922 486.629 139.245 498.196 152.448 503.854C165.651 509.512 169.611 517.151 169.611 517.151L92.3711 517.149L103.312 486.629Z" fill="url(#paint14_linear)"/>
<path d="M53.3238 486.629L78.4298 486.63C78.4298 486.63 89.2568 498.196 102.46 503.854C115.663 509.512 119.623 517.151 119.623 517.151L42.3828 517.149L53.3238 486.629Z" fill="#454545"/>
<path d="M126.931 486.63L103.311 486.61C85.8613 469.49 89.2213 440.89 87.9313 413.75C86.6413 386.62 88.5613 397.38 85.1213 371.74C80.8013 339.39 82.2113 344.95 73.8213 308.11C71.6493 299.229 70.5853 290.113 70.6513 280.97C70.7413 280.12 70.8213 279.35 70.9013 278.65C73.1813 278.81 75.5813 278.91 78.0813 278.92C90.2983 278.998 102.446 277.089 114.051 273.27C115.501 286.32 118.171 310.62 118.241 311.07C119.151 317.2 119.661 320.86 121.521 331.46C121.671 332.31 121.791 333.16 121.881 334.02C123.421 348.97 125.481 372.73 125.811 393.03C126.211 416.42 126.931 486.63 126.931 486.63Z" fill="url(#paint15_linear)"/>
<path d="M122.878 375.58C120.948 394.35 78.4281 486.63 78.4281 486.63H53.3281C53.3281 486.63 54.1981 456.42 57.2581 440.54C60.3381 424.66 66.0781 427.92 64.9281 415.64C63.7881 403.37 66.4681 395.42 71.4581 382.45C76.4381 369.45 87.9581 363.32 72.6081 320.38C67.5881 306.34 64.2881 288.56 65.2081 278.12C69.4791 278.637 73.7761 278.904 78.0781 278.92C91.0001 279.005 103.841 276.868 116.038 272.6L119.748 309.51C119.988 311.81 120.248 313.82 120.568 316.04C123.258 334.46 124.788 356.82 122.878 375.58Z" fill="url(#paint16_linear)"/>
<path opacity="0.86" d="M68.671 288.423C68.633 288.335 68.531 288.294 68.443 288.331C68.355 288.368 68.314 288.471 68.351 288.559C68.388 288.647 68.491 288.688 68.579 288.651C68.668 288.614 68.709 288.512 68.671 288.423ZM67.034 284.499C67.004 284.414 66.91 284.369 66.824 284.399C66.818 284.401 66.812 284.404 66.806 284.407C66.715 284.442 66.669 284.542 66.702 284.633C66.746 284.722 66.85 284.762 66.942 284.726C67.031 284.69 67.072 284.588 67.034 284.499C67.035 284.5 67.035 284.5 67.034 284.499ZM65.398 280.576C65.357 280.485 65.254 280.44 65.16 280.471C65.071 280.515 65.031 280.619 65.067 280.711C65.105 280.799 65.207 280.841 65.295 280.803C65.385 280.768 65.431 280.667 65.398 280.576ZM74.696 281.525C74.629 281.459 74.521 281.46 74.455 281.528C74.389 281.595 74.39 281.703 74.458 281.769C74.525 281.835 74.633 281.834 74.699 281.766C74.765 281.705 74.769 281.603 74.709 281.537C74.704 281.533 74.7 281.529 74.696 281.525ZM91.728 289.242C91.593 289.119 91.385 289.129 91.262 289.264C91.259 289.267 91.257 289.27 91.254 289.273C91.135 289.408 91.149 289.615 91.284 289.733C91.285 289.734 91.285 289.734 91.286 289.735C91.421 289.858 91.629 289.848 91.752 289.713C91.755 289.71 91.757 289.707 91.76 289.704C91.879 289.569 91.865 289.363 91.73 289.244C91.73 289.243 91.729 289.242 91.728 289.242ZM85.633 283.942C85.498 283.823 85.291 283.837 85.173 283.972C85.172 283.973 85.172 283.973 85.171 283.974C85.048 284.113 85.061 284.325 85.2 284.448C85.339 284.571 85.551 284.558 85.674 284.419C85.675 284.418 85.675 284.418 85.676 284.417C85.791 284.273 85.772 284.064 85.633 283.942ZM67.197 309.607C67.013 309.62 66.874 309.777 66.883 309.961C66.892 310.138 67.0429 310.274 67.2199 310.265C67.2259 310.265 67.232 310.264 67.238 310.264C67.422 310.251 67.561 310.094 67.552 309.91C67.538 309.728 67.379 309.592 67.197 309.607ZM66.625 301.556C66.443 301.571 66.308 301.73 66.323 301.911C66.333 302.095 66.491 302.237 66.676 302.226C66.861 302.215 67.002 302.058 66.991 301.873C66.991 301.872 66.991 301.871 66.991 301.871C66.97 301.687 66.81 301.549 66.625 301.556ZM66.065 293.506C65.881 293.527 65.743 293.686 65.749 293.872C65.758 294.049 65.909 294.185 66.086 294.176C66.092 294.176 66.098 294.175 66.104 294.175C66.285 294.167 66.426 294.014 66.419 293.833C66.419 293.829 66.419 293.825 66.418 293.821C66.406 293.636 66.249 293.496 66.065 293.506ZM83.037 301.575C82.958 301.405 82.756 301.332 82.586 301.411C82.416 301.49 82.343 301.692 82.422 301.862C82.501 302.032 82.703 302.105 82.873 302.026C82.875 302.025 82.877 302.024 82.879 302.023C83.044 301.941 83.114 301.742 83.037 301.575ZM79.435 294.357C79.356 294.187 79.154 294.114 78.984 294.193C78.814 294.272 78.74 294.474 78.82 294.644C78.899 294.814 79.101 294.887 79.271 294.808C79.273 294.807 79.275 294.806 79.277 294.805C79.442 294.723 79.512 294.524 79.435 294.357ZM75.834 287.138C75.743 286.975 75.542 286.91 75.373 286.99C75.207 287.077 75.144 287.282 75.231 287.448C75.315 287.608 75.51 287.674 75.674 287.598C75.839 287.51 75.909 287.31 75.834 287.138ZM72.219 279.93C72.143 279.764 71.946 279.691 71.78 279.767C71.614 279.843 71.541 280.04 71.617 280.206C71.619 280.211 71.622 280.216 71.624 280.221C71.704 280.384 71.901 280.452 72.064 280.372C72.067 280.371 72.07 280.369 72.073 280.367C72.231 280.294 72.3 280.107 72.227 279.948C72.226 279.943 72.222 279.936 72.219 279.93ZM89.953 297.896C89.866 297.758 89.683 297.716 89.544 297.803C89.405 297.89 89.364 298.073 89.451 298.212C89.538 298.35 89.721 298.392 89.86 298.305C89.999 298.218 90.04 298.034 89.953 297.896ZM86.137 291.792C86.05 291.654 85.867 291.612 85.728 291.699C85.59 291.786 85.548 291.969 85.635 292.108C85.722 292.246 85.905 292.288 86.044 292.201C86.181 292.119 86.226 291.941 86.144 291.803C86.141 291.799 86.139 291.795 86.137 291.792ZM82.323 285.676C82.3 285.624 82.258 285.584 82.206 285.564L82.194 285.562C82.103 285.522 81.9979 285.53 81.9139 285.583C81.7719 285.672 81.729 285.859 81.818 286.001C81.819 286.002 81.819 286.003 81.82 286.004C81.908 286.141 82.09 286.182 82.229 286.097C82.294 286.059 82.338 285.995 82.35 285.921C82.383 285.84 82.373 285.748 82.323 285.676ZM78.507 279.572C78.419 279.435 78.237 279.393 78.098 279.479C77.957 279.566 77.913 279.752 78 279.893C78.087 280.033 78.271 280.078 78.412 279.992C78.554 279.903 78.597 279.716 78.508 279.574C78.508 279.574 78.507 279.573 78.507 279.572ZM64.735 281.712C64.575 281.683 64.419 281.782 64.378 281.94C64.343 282.102 64.445 282.262 64.607 282.297C64.764 282.331 64.92 282.236 64.961 282.081C64.995 281.918 64.896 281.756 64.735 281.712ZM92.808 280.66C92.676 280.564 92.49 280.593 92.394 280.726C92.392 280.729 92.39 280.732 92.388 280.735C92.292 280.858 92.315 281.035 92.437 281.131C92.442 281.135 92.447 281.138 92.452 281.142C92.58 281.241 92.763 281.218 92.862 281.09C92.865 281.086 92.867 281.083 92.87 281.079C92.965 280.945 92.937 280.76 92.808 280.66ZM75.197 299.575C75.037 299.611 74.931 299.764 74.956 299.927C74.984 300.087 75.136 300.194 75.296 300.167C75.458 300.141 75.57 299.991 75.548 299.828C75.519 299.662 75.363 299.55 75.197 299.575ZM74.012 292.474C73.852 292.51 73.746 292.663 73.771 292.826C73.799 292.986 73.951 293.093 74.111 293.066C74.267 293.044 74.376 292.9 74.354 292.743C74.353 292.737 74.352 292.731 74.351 292.725C74.325 292.564 74.174 292.452 74.012 292.474ZM72.825 285.385C72.669 285.407 72.56 285.551 72.582 285.708C72.583 285.714 72.584 285.72 72.585 285.726C72.613 285.886 72.766 285.993 72.926 285.965C73.085 285.937 73.192 285.785 73.165 285.626C73.143 285.47 72.999 285.361 72.843 285.383C72.837 285.383 72.831 285.384 72.825 285.385ZM89.401 280.213C89.335 280.141 89.222 280.136 89.15 280.202C89.078 280.268 89.073 280.381 89.139 280.453C89.205 280.525 89.318 280.53 89.39 280.464C89.46 280.396 89.465 280.286 89.401 280.213ZM72.536 286.429C72.44 286.426 72.36 286.501 72.356 286.597C72.352 286.693 72.428 286.773 72.524 286.777C72.62 286.78 72.7 286.705 72.704 286.609C72.707 286.513 72.632 286.432 72.536 286.429ZM72.678 282.186C72.586 282.179 72.506 282.248 72.499 282.341C72.499 282.345 72.499 282.35 72.499 282.354C72.496 282.45 72.571 282.53 72.667 282.534C72.765 282.539 72.85 282.466 72.859 282.368C72.861 282.269 72.782 282.188 72.684 282.187C72.681 282.185 72.679 282.185 72.678 282.186ZM81.05 282.863C81.022 282.775 80.928 282.726 80.839 282.754C80.834 282.756 80.828 282.758 80.823 282.76C80.733 282.79 80.686 282.888 80.716 282.977C80.717 282.98 80.718 282.983 80.719 282.986C80.758 283.072 80.855 283.117 80.946 283.09C81.037 283.054 81.083 282.954 81.05 282.863ZM64.709 282.335C64.63 282.293 64.531 282.323 64.489 282.403C64.485 282.41 64.482 282.417 64.48 282.424C64.441 282.512 64.481 282.614 64.569 282.653C64.657 282.692 64.759 282.652 64.798 282.564C64.836 282.476 64.797 282.374 64.709 282.335ZM66.472 278.473C66.393 278.431 66.294 278.461 66.252 278.541C66.248 278.548 66.245 278.555 66.243 278.562C66.201 278.646 66.235 278.747 66.319 278.789C66.319 278.789 66.32 278.789 66.32 278.79C66.411 278.831 66.518 278.793 66.561 278.703C66.601 278.617 66.563 278.516 66.478 278.476C66.476 278.474 66.474 278.473 66.472 278.473ZM92.483 284.397C92.4279 284.306 92.3099 284.278 92.2199 284.332C92.2179 284.333 92.217 284.334 92.215 284.335C92.122 284.389 92.09 284.509 92.144 284.602C92.147 284.606 92.149 284.611 92.152 284.615C92.207 284.706 92.325 284.734 92.415 284.68C92.417 284.679 92.418 284.678 92.42 284.677C92.514 284.616 92.542 284.492 92.483 284.397ZM89.869 280.314C89.814 280.223 89.696 280.195 89.606 280.25C89.604 280.251 89.603 280.252 89.601 280.253C89.506 280.312 89.477 280.438 89.536 280.533C89.595 280.628 89.721 280.657 89.816 280.598C89.817 280.597 89.818 280.597 89.819 280.596C89.91 280.538 89.937 280.418 89.879 280.327C89.875 280.322 89.872 280.318 89.869 280.314ZM72.274 287.886C72.166 287.872 72.064 287.94 72.035 288.046C72.011 288.152 72.077 288.258 72.183 288.283C72.282 288.313 72.385 288.257 72.415 288.158C72.417 288.151 72.419 288.143 72.42 288.135C72.449 288.026 72.384 287.915 72.275 287.886H72.274ZM73.315 283.153C73.207 283.139 73.105 283.207 73.076 283.313C73.052 283.419 73.118 283.525 73.224 283.55C73.333 283.579 73.444 283.514 73.473 283.405V283.404C73.492 283.292 73.423 283.184 73.315 283.153ZM82.436 285.728C82.42 285.621 82.32 285.547 82.213 285.563C82.211 285.563 82.208 285.564 82.206 285.564L82.194 285.562C82.091 285.588 82.024 285.689 82.041 285.794C82.057 285.901 82.157 285.975 82.264 285.959C82.266 285.959 82.269 285.958 82.271 285.958C82.299 285.95 82.325 285.937 82.348 285.921C82.416 285.881 82.451 285.804 82.436 285.728ZM81.35 280.784C81.241 280.811 81.17 280.915 81.184 281.026C81.213 281.133 81.319 281.2 81.428 281.18C81.533 281.159 81.602 281.056 81.581 280.951C81.581 280.95 81.581 280.949 81.58 280.948C81.561 280.84 81.459 280.767 81.35 280.784ZM89.612 305.664C89.423 305.693 89.292 305.867 89.317 306.057C89.348 306.244 89.524 306.37 89.711 306.34C89.898 306.309 90.028 306.136 90.006 305.947C89.975 305.761 89.799 305.634 89.612 305.664ZM88.316 297.452C88.129 297.483 88.002 297.659 88.033 297.846C88.064 298.033 88.24 298.16 88.427 298.129C88.614 298.098 88.741 297.922 88.71 297.735C88.679 297.549 88.503 297.422 88.316 297.452ZM87.032 289.242C86.845 289.265 86.712 289.436 86.735 289.623C86.758 289.81 86.929 289.943 87.116 289.92C87.121 289.919 87.126 289.919 87.131 289.918C87.32 289.889 87.451 289.715 87.426 289.525C87.395 289.339 87.218 289.212 87.032 289.242ZM85.735 281.03C85.55 281.058 85.422 281.232 85.45 281.417C85.45 281.419 85.451 281.422 85.451 281.424C85.482 281.611 85.6579 281.738 85.8449 281.707C86.0319 281.676 86.159 281.5 86.128 281.313C86.1 281.128 85.926 281 85.741 281.029C85.74 281.029 85.738 281.03 85.735 281.03ZM96.336 282.052C96.236 281.888 96.0219 281.837 95.858 281.938C95.694 282.038 95.643 282.252 95.744 282.416C95.844 282.58 96.058 282.631 96.222 282.53C96.382 282.427 96.433 282.216 96.336 282.052ZM73.407 301.278C73.226 301.235 73.043 301.346 73 301.528C72.999 301.53 72.999 301.532 72.998 301.535C72.952 301.717 73.06 301.903 73.241 301.954C73.426 301.99 73.608 301.88 73.662 301.699C73.708 301.512 73.594 301.324 73.407 301.278C73.408 301.278 73.407 301.278 73.407 301.278ZM75.356 293.202C75.18 293.155 74.999 293.26 74.952 293.437C74.95 293.444 74.948 293.451 74.947 293.459C74.902 293.639 75.011 293.821 75.191 293.866C75.377 293.912 75.566 293.798 75.611 293.612V293.611C75.658 293.435 75.553 293.254 75.376 293.207C75.371 293.205 75.363 293.203 75.356 293.202ZM77.306 285.114C77.118 285.075 76.934 285.195 76.895 285.383C76.857 285.566 76.97 285.747 77.152 285.792C77.333 285.836 77.516 285.724 77.559 285.542C77.56 285.54 77.56 285.537 77.561 285.535C77.607 285.348 77.493 285.16 77.306 285.114C77.307 285.114 77.306 285.114 77.306 285.114ZM78.431 303.96C78.244 303.921 78.06 304.041 78.021 304.228C77.982 304.415 78.1019 304.599 78.2889 304.638C78.476 304.677 78.659 304.557 78.699 304.37C78.739 304.183 78.619 304 78.431 303.96ZM80.037 295.837C79.847 295.808 79.667 295.93 79.625 296.117C79.596 296.3 79.714 296.475 79.895 296.516C80.082 296.555 80.266 296.435 80.305 296.248C80.34 296.061 80.222 295.88 80.037 295.837ZM81.63 287.724C81.445 287.688 81.267 287.809 81.231 287.994C81.196 288.179 81.316 288.357 81.501 288.393C81.688 288.432 81.872 288.312 81.911 288.125C81.94 287.937 81.815 287.76 81.63 287.724ZM83.236 279.6C83.054 279.563 82.876 279.68 82.839 279.862C82.838 279.865 82.838 279.867 82.837 279.87C82.803 280.054 82.923 280.232 83.107 280.269C83.285 280.309 83.461 280.198 83.502 280.02C83.504 280.013 83.505 280.006 83.506 279.999C83.543 279.817 83.426 279.639 83.244 279.602C83.241 279.601 83.238 279.601 83.236 279.6ZM93.892 291.36C93.705 291.399 93.584 291.58 93.619 291.768C93.661 291.953 93.843 292.069 94.028 292.029C94.212 291.996 94.334 291.82 94.3 291.636C94.3 291.635 94.3 291.634 94.299 291.633C94.258 291.448 94.079 291.328 93.892 291.36ZM92.27 283.235C92.085 283.276 91.965 283.456 91.997 283.643C92.032 283.828 92.211 283.95 92.396 283.914C92.581 283.879 92.703 283.7 92.667 283.515C92.666 283.512 92.666 283.51 92.665 283.507C92.632 283.323 92.456 283.202 92.272 283.235C92.272 283.235 92.271 283.235 92.27 283.235ZM69.227 286.754C69.074 286.651 68.866 286.692 68.763 286.845C68.76 286.849 68.758 286.853 68.755 286.858C68.651 287.013 68.692 287.224 68.846 287.328C69.004 287.435 69.219 287.395 69.328 287.238C69.434 287.081 69.393 286.867 69.236 286.76C69.234 286.758 69.231 286.756 69.227 286.754ZM73.818 279.862C73.659 279.762 73.449 279.808 73.346 279.965C73.242 280.12 73.283 280.33 73.437 280.435C73.595 280.542 73.81 280.502 73.919 280.345C74.025 280.188 73.984 279.974 73.827 279.867C73.824 279.866 73.821 279.864 73.818 279.862ZM78.388 289.744C78.266 289.682 78.117 289.731 78.055 289.853C78.051 289.861 78.047 289.869 78.044 289.877C77.987 290.008 78.047 290.161 78.178 290.218C78.309 290.275 78.462 290.215 78.519 290.084C78.576 289.953 78.517 289.802 78.388 289.744ZM80.844 284.002C80.716 283.943 80.564 283.998 80.504 284.127C80.503 284.13 80.501 284.133 80.5 284.135C80.442 284.267 80.501 284.42 80.633 284.479C80.765 284.537 80.918 284.478 80.977 284.346C81.035 284.214 80.976 284.06 80.844 284.002ZM91.507 289.187C91.365 289.183 91.247 289.295 91.243 289.437C91.243 289.438 91.243 289.439 91.243 289.439C91.247 289.579 91.356 289.693 91.496 289.703C91.638 289.704 91.755 289.592 91.76 289.45C91.768 289.313 91.663 289.195 91.526 289.187C91.519 289.187 91.513 289.187 91.507 289.187ZM91.576 282.946C91.439 282.944 91.326 283.054 91.324 283.191C91.324 283.194 91.324 283.197 91.324 283.2C91.32 283.342 91.432 283.46 91.574 283.464C91.575 283.464 91.576 283.464 91.576 283.464C91.72 283.459 91.836 283.344 91.841 283.2C91.839 283.058 91.722 282.944 91.579 282.946C91.579 282.946 91.577 282.946 91.576 282.946ZM69.65 280.044C69.558 279.941 69.401 279.932 69.298 280.024C69.296 280.026 69.293 280.028 69.291 280.031C69.187 280.125 69.179 280.286 69.273 280.389C69.278 280.394 69.282 280.399 69.287 280.403C69.386 280.503 69.548 280.504 69.648 280.405C69.748 280.306 69.749 280.145 69.65 280.044ZM89.262 280.868C89.162 280.801 89.026 280.829 88.96 280.929C88.957 280.934 88.953 280.94 88.95 280.945C88.881 281.04 88.901 281.173 88.996 281.243C89.002 281.248 89.009 281.252 89.015 281.256C89.122 281.327 89.266 281.299 89.337 281.192C89.407 281.088 89.379 280.947 89.275 280.877C89.271 280.873 89.267 280.871 89.262 280.868Z" fill="white"/>
<path d="M129.609 266.857C113.628 274.896 95.9677 279.029 78.0787 278.917C58.3487 278.817 45.1887 273.647 45.1887 273.647C45.1887 273.647 41.4187 260.957 50.1087 245.897C64.6387 220.737 55.2787 234.447 66.1787 212.667C70.2387 204.863 75.2387 197.585 81.0687 190.997C85.1077 186.438 89.5457 182.248 94.3287 178.477C101.549 185.057 106.549 183.037 107.959 182.227C108.019 183.977 108.119 185.727 108.259 187.477C110.099 211.137 118.659 235.077 123.569 250.157C123.849 251.007 124.119 251.837 124.389 252.637C127.359 261.457 129.609 266.857 129.609 266.857Z" fill="url(#paint17_linear)"/>
<path d="M192.642 258.867C192.642 258.867 176.862 275.677 161.452 272.237C147.392 269.097 146.132 272.847 139.492 274.367C138.862 274.517 138.212 274.677 137.532 274.857C129.912 276.887 111.772 277.027 101.462 253.637C91.4416 230.977 88.4616 211.447 94.4216 178.557C102.972 186.277 108.372 181.957 108.372 181.957C108.332 181.597 108.302 181.237 108.272 180.887C110.172 184.467 119.232 201.287 128.052 213.267C137.972 226.747 141.062 228.227 154.972 224.487C157.272 223.877 159.402 223.277 161.362 222.737C168.922 220.587 173.692 219.027 173.692 219.027L192.642 258.867Z" fill="url(#paint18_linear)"/>
<path d="M120.96 141.258C119.099 125.178 103.753 124.501 92.0454 126.932C85.9214 128.204 81.9084 131.036 79.4174 134.332C74.7284 136.062 69.4934 133.929 67.3484 129.415C67.1304 128.984 66.4824 129.364 66.7004 129.794C68.8584 134.284 73.9034 136.605 78.7174 135.322C77.0914 137.823 76.1534 140.709 75.9994 143.688C75.8454 146.972 75.2524 153.365 71.5724 158.737C67.8924 164.109 67.8304 173.6 67.8304 173.6C85.6854 180.2 108.715 171.006 108.715 171.006C109.003 160.337 103.24 156.963 106.017 151.251C105.601 152.702 105.542 154.233 105.844 155.712C106.946 160.991 112.488 165.12 110.048 170.929C109.861 171.373 110.587 171.567 110.771 171.128C111.933 168.361 111.511 165.93 110.259 163.24C109.343 161.273 108.037 159.523 107.255 157.49C106.03 154.38 106.398 150.868 108.242 148.081C116.098 139.213 115.442 134.036 115.442 134.036C117.81 135.988 119.698 138.459 120.96 141.258Z" fill="#333333"/>
<defs>
<linearGradient id="paint0_linear" x1="203.29" y1="157.756" x2="174.392" y2="217.677" gradientUnits="userSpaceOnUse">
<stop stop-color="#FFBEB6"/>
<stop offset="0.5925" stop-color="#F7ADA7"/>
<stop offset="1" stop-color="#F2A19C"/>
</linearGradient>
<linearGradient id="paint1_linear" x1="251.109" y1="180.148" x2="303.179" y2="180.148" gradientUnits="userSpaceOnUse">
<stop stop-color="#FFBEB6"/>
<stop offset="1" stop-color="#F2A19C"/>
</linearGradient>
<linearGradient id="paint2_linear" x1="239.92" y1="96.0413" x2="239.92" y2="253.124" gradientUnits="userSpaceOnUse">
<stop offset="0.1291" stop-color="#19517A"/>
<stop offset="0.9987" stop-color="#1D72D8"/>
</linearGradient>
<linearGradient id="paint3_linear" x1="300.652" y1="474.356" x2="410.52" y2="575.773" gradientUnits="userSpaceOnUse">
<stop stop-color="#E45B5B"/>
<stop offset="1" stop-color="#511919"/>
</linearGradient>
<linearGradient id="paint4_linear" x1="362.146" y1="309.345" x2="466.603" y2="324.653" gradientUnits="userSpaceOnUse">
<stop stop-color="#1B3C54"/>
<stop offset="1" stop-color="#19517A"/>
</linearGradient>
<linearGradient id="paint5_linear" x1="347.393" y1="211.43" x2="307.54" y2="159.682" gradientUnits="userSpaceOnUse">
<stop stop-color="#B8D3FC"/>
<stop offset="0.6955" stop-color="#81AEF2"/>
<stop offset="1" stop-color="#78A9EF"/>
</linearGradient>
<linearGradient id="paint6_linear" x1="211.237" y1="219.762" x2="305.336" y2="219.762" gradientUnits="userSpaceOnUse">
<stop stop-color="#FFBEB6"/>
<stop offset="1" stop-color="#F2A19C"/>
</linearGradient>
<linearGradient id="paint7_linear" x1="408.769" y1="240.347" x2="348.196" y2="202.452" gradientUnits="userSpaceOnUse">
<stop stop-color="#B8D3FC"/>
<stop offset="0.6955" stop-color="#81AEF2"/>
<stop offset="1" stop-color="#78A9EF"/>
</linearGradient>
<linearGradient id="paint8_linear" x1="349.57" y1="240.666" x2="283.387" y2="185.345" gradientUnits="userSpaceOnUse">
<stop stop-color="#B8D3FC"/>
<stop offset="0.6955" stop-color="#81AEF2"/>
<stop offset="1" stop-color="#78A9EF"/>
</linearGradient>
<linearGradient id="paint9_linear" x1="372.852" y1="162.242" x2="389.092" y2="162.242" gradientUnits="userSpaceOnUse">
<stop stop-color="#FFBEB6"/>
<stop offset="1" stop-color="#F2A19C"/>
</linearGradient>
<linearGradient id="paint10_linear" x1="116.579" y1="192.197" x2="228.722" y2="259.472" gradientUnits="userSpaceOnUse">
<stop stop-color="#1B3C54"/>
<stop offset="1" stop-color="#19517A"/>
</linearGradient>
<linearGradient id="paint11_linear" x1="199.335" y1="203.37" x2="167.462" y2="236.305" gradientUnits="userSpaceOnUse">
<stop stop-color="#FFBEB6"/>
<stop offset="1" stop-color="#F2A19C"/>
</linearGradient>
<linearGradient id="paint12_linear" x1="98.3486" y1="199.492" x2="103.261" y2="167.914" gradientUnits="userSpaceOnUse">
<stop stop-color="#FFBEB6"/>
<stop offset="1" stop-color="#F2A19C"/>
</linearGradient>
<linearGradient id="paint13_linear" x1="67.551" y1="124.454" x2="88.041" y2="124.454" gradientUnits="userSpaceOnUse">
<stop stop-color="#333333"/>
<stop offset="0.3535" stop-color="#333333"/>
<stop offset="1" stop-color="#333333"/>
</linearGradient>
<linearGradient id="paint14_linear" x1="169.611" y1="501.891" x2="92.3709" y2="501.891" gradientUnits="userSpaceOnUse">
<stop stop-color="#666666"/>
<stop offset="0.51" stop-color="#3F3F41"/>
<stop offset="1" stop-color="#252525"/>
</linearGradient>
<linearGradient id="paint15_linear" x1="171.864" y1="470.579" x2="109.039" y2="381.021" gradientUnits="userSpaceOnUse">
<stop stop-color="#A1C3FC"/>
<stop offset="0.6955" stop-color="#81AEF2"/>
<stop offset="1" stop-color="#78A9EF"/>
</linearGradient>
<linearGradient id="paint16_linear" x1="95.4829" y1="421.808" x2="28.1267" y2="403.16" gradientUnits="userSpaceOnUse">
<stop stop-color="#B8D3FC"/>
<stop offset="0.6955" stop-color="#81AEF2"/>
<stop offset="1" stop-color="#78A9EF"/>
</linearGradient>
<linearGradient id="paint17_linear" x1="76.1333" y1="197.057" x2="194.022" y2="243.763" gradientUnits="userSpaceOnUse">
<stop stop-color="#1B3C54"/>
<stop offset="1" stop-color="#19517A"/>
</linearGradient>
<linearGradient id="paint18_linear" x1="129.102" y1="196.526" x2="260.121" y2="260.3" gradientUnits="userSpaceOnUse">
<stop stop-color="#1B3C54"/>
<stop offset="1" stop-color="#19517A"/>
</linearGradient>
</defs>
</svg>
