<svg width="468" height="435" viewBox="0 0 468 435" fill="none" xmlns="http://www.w3.org/2000/svg">
<path d="M240.783 192.791C250.009 235.979 248.452 229.471 253.209 267.388C256.98 297.444 254.872 284.84 256.294 316.64C257.716 348.451 254.022 381.984 273.198 402.056L299.152 402.076C299.152 402.076 298.359 319.765 297.924 292.348C297.566 268.551 295.294 240.692 293.601 223.167C293.504 222.167 293.379 221.166 293.214 220.166C291.164 207.747 290.604 203.456 289.607 196.267C289.5 195.545 284.993 164.749 284.896 164.11C277.697 164.854 275.215 164.11 266.527 164.854C250.161 166.255 251.633 165.102 243.103 163.61C242.386 163.396 241.69 163.117 241.024 162.774C239.738 162.275 238.493 161.674 237.301 160.98C237.118 169.171 237.969 179.619 240.783 192.791Z" fill="url(#paint0_linear)"/>
<path d="M221.43 401.892H248.57C248.57 401.892 294.545 293.711 296.628 271.71C298.692 249.719 297.037 223.499 294.136 201.91C293.784 199.301 287.982 165.786 287.583 163.269C280.361 163.547 278.795 163.547 269.248 163.547C254.525 163.547 254.247 163.547 245.867 163.426C241.653 163.406 237.695 163.158 234.062 162.777C234.119 173.689 232.903 201.741 239.086 220.483C255.677 270.819 243.718 273.177 236.107 287.433C229.141 300.483 230.113 295.953 227.17 320.908C225.48 335.252 222.308 333.533 218.978 352.152C215.669 370.758 221.43 401.892 221.43 401.892Z" fill="url(#paint1_linear)"/>
<path d="M155.697 276.423C155.381 257.01 149.272 237.339 145.747 221.272C145.747 221.272 131.572 161.833 132.394 159.918C133.215 158.003 115.411 160.465 115.411 160.465L97.6338 166.987L93.4921 174.704C91.3752 185.118 90.8839 198.046 94.3419 213.196C104.31 256.892 105.084 250.757 103.551 281.417C102.009 312.077 107.001 301.729 108.535 333.92C110.069 366.12 108.102 382.011 128.82 402.331L162.664 402.081C162.664 402.083 156.148 304.169 155.697 276.423Z" fill="url(#paint2_linear)"/>
<path d="M127.839 232.503L122.802 160.311L81.1687 158.976C81.1687 158.976 78.184 162.211 73.6879 174.453C76.9259 175.168 69.0548 173.838 73.6879 174.453C68.4804 193.832 69.1428 214.319 75.5913 233.323C91.494 280.995 80.5657 278.736 75.412 293.163C70.2306 307.579 67.461 316.396 68.6385 330.022C69.8346 343.657 63.8808 340.043 60.6875 357.66C57.513 375.295 61.5634 402.312 61.5634 402.312L96.2574 402.085C96.2574 402.085 126.7 306.384 128.687 285.55C130.26 268.986 129.582 249.903 127.839 232.503Z" fill="#19517A"/>
<path d="M96.5366 64.0667C96.5366 64.0667 101.001 88.188 111.43 107.284C119.874 122.747 116.992 118.742 131.939 132.284C140.709 140.23 154.533 151.381 154.533 151.381L125.697 171.388L117.325 176.883C107.978 163.137 100.528 162.778 92.5163 160.57C84.5042 158.361 67.9488 148.845 71.019 122.13C74.0893 95.4161 56.2986 91.6885 80.9394 63.646" fill="url(#paint3_linear)"/>
<path d="M96.5399 64.0667C96.5399 64.0667 118.168 142.783 146.534 178.06C146.534 178.06 82.9292 189.511 60.3718 176.213C60.3718 176.213 36.4293 128.747 80.9427 63.646L96.5399 64.0667Z" fill="url(#paint4_linear)"/>
<path opacity="0.86" d="M243.549 208.604C243.518 208.533 243.435 208.499 243.364 208.53C243.292 208.56 243.258 208.644 243.289 208.715C243.319 208.787 243.403 208.82 243.474 208.79C243.547 208.759 243.58 208.676 243.549 208.604ZM242.216 205.411C242.192 205.342 242.115 205.305 242.045 205.329C242.04 205.331 242.035 205.333 242.03 205.336C241.956 205.364 241.919 205.446 241.946 205.52C241.982 205.592 242.066 205.625 242.141 205.595C242.213 205.565 242.246 205.482 242.216 205.411ZM242.348 225.845C242.198 225.856 242.085 225.983 242.092 226.133C242.1 226.277 242.223 226.388 242.367 226.381C242.372 226.381 242.377 226.38 242.382 226.38C242.532 226.369 242.645 226.241 242.637 226.092C242.626 225.944 242.497 225.834 242.348 225.845ZM241.882 219.292C241.734 219.305 241.624 219.434 241.636 219.581C241.645 219.731 241.775 219.846 241.925 219.837C242.074 219.828 242.189 219.699 242.18 219.549C242.163 219.399 242.034 219.288 241.882 219.292ZM241.426 212.741C241.276 212.758 241.163 212.887 241.168 213.038C241.176 213.183 241.299 213.293 241.443 213.286C241.448 213.286 241.453 213.285 241.458 213.285C241.605 213.279 241.72 213.154 241.714 213.007C241.714 213.004 241.714 213 241.714 212.997C241.704 212.846 241.576 212.733 241.426 212.741ZM240.959 206.198C240.811 206.21 240.701 206.339 240.713 206.487C240.713 206.487 240.713 206.487 240.713 206.488C240.723 206.637 240.853 206.751 241.003 206.741C241.153 206.731 241.267 206.601 241.256 206.451C241.246 206.301 241.116 206.187 240.966 206.198C240.964 206.197 240.961 206.197 240.959 206.198ZM255.255 219.308C255.191 219.17 255.026 219.11 254.887 219.174C254.749 219.239 254.689 219.403 254.754 219.541C254.818 219.68 254.983 219.739 255.121 219.675C255.123 219.674 255.125 219.673 255.126 219.673C255.261 219.606 255.318 219.445 255.255 219.308ZM252.32 213.433C252.256 213.295 252.091 213.235 251.952 213.3C251.814 213.364 251.754 213.528 251.819 213.667C251.884 213.805 252.048 213.865 252.186 213.8C252.188 213.799 252.19 213.799 252.191 213.798C252.326 213.731 252.383 213.57 252.32 213.433ZM249.386 207.559C249.312 207.426 249.148 207.373 249.01 207.438C248.875 207.509 248.824 207.676 248.894 207.811C248.963 207.941 249.122 207.995 249.255 207.933C249.391 207.861 249.447 207.698 249.386 207.559ZM257.781 211.346C257.71 211.233 257.561 211.199 257.448 211.27C257.335 211.341 257.301 211.49 257.372 211.603C257.443 211.715 257.592 211.749 257.705 211.679C257.817 211.612 257.853 211.467 257.787 211.355C257.785 211.351 257.782 211.349 257.781 211.346ZM254.673 206.368C254.654 206.326 254.62 206.293 254.578 206.277L254.568 206.275C254.494 206.243 254.408 206.249 254.34 206.292C254.224 206.365 254.189 206.517 254.262 206.632C254.263 206.633 254.262 206.634 254.263 206.635C254.335 206.746 254.483 206.78 254.597 206.711C254.649 206.68 254.685 206.628 254.695 206.567C254.722 206.501 254.714 206.426 254.673 206.368ZM239.031 208.852C238.901 208.822 238.771 208.903 238.741 209.033C238.741 209.034 238.74 209.036 238.74 209.037C238.704 209.157 238.773 209.284 238.894 209.32C238.902 209.322 238.909 209.324 238.916 209.326C239.046 209.356 239.176 209.274 239.205 209.145C239.205 209.143 239.206 209.142 239.206 209.141C239.235 209.013 239.157 208.886 239.031 208.852ZM248.867 217.68C248.736 217.709 248.65 217.834 248.67 217.967C248.693 218.097 248.817 218.184 248.947 218.162C249.079 218.141 249.171 218.019 249.153 217.886C249.129 217.752 249.002 217.66 248.867 217.68ZM247.901 211.901C247.771 211.93 247.684 212.055 247.705 212.187C247.728 212.317 247.852 212.404 247.982 212.383C248.109 212.365 248.198 212.247 248.18 212.12C248.179 212.115 248.178 212.11 248.177 212.105C248.156 211.974 248.033 211.883 247.901 211.901ZM246.934 206.132C246.807 206.15 246.718 206.267 246.736 206.395C246.737 206.4 246.738 206.405 246.738 206.409C246.761 206.54 246.885 206.627 247.016 206.605C247.146 206.582 247.233 206.458 247.211 206.328C247.193 206.201 247.076 206.112 246.949 206.13C246.944 206.129 246.939 206.13 246.934 206.132ZM246.699 206.981C246.62 206.978 246.554 207.039 246.552 207.117C246.549 207.196 246.611 207.261 246.689 207.264C246.767 207.266 246.833 207.205 246.835 207.127C246.838 207.049 246.777 206.984 246.699 206.981ZM246.485 208.167C246.397 208.155 246.314 208.211 246.29 208.297C246.271 208.383 246.325 208.469 246.411 208.49C246.492 208.514 246.576 208.469 246.6 208.388C246.602 208.382 246.603 208.376 246.604 208.369C246.628 208.281 246.575 208.19 246.486 208.167C246.486 208.167 246.486 208.167 246.485 208.167ZM254.765 206.41C254.752 206.323 254.671 206.263 254.584 206.276C254.582 206.276 254.579 206.277 254.578 206.277L254.568 206.275C254.484 206.296 254.43 206.378 254.443 206.464C254.456 206.551 254.538 206.611 254.625 206.598C254.627 206.598 254.629 206.597 254.631 206.597C254.654 206.591 254.675 206.58 254.694 206.567C254.749 206.536 254.777 206.472 254.765 206.41ZM260.612 222.637C260.458 222.66 260.352 222.802 260.372 222.957C260.397 223.109 260.541 223.211 260.693 223.187C260.845 223.162 260.951 223.021 260.933 222.867C260.908 222.715 260.765 222.612 260.612 222.637ZM259.556 215.953C259.404 215.978 259.3 216.122 259.326 216.274C259.351 216.426 259.494 216.529 259.647 216.504C259.799 216.479 259.903 216.336 259.877 216.183C259.852 216.031 259.709 215.929 259.556 215.953ZM237.09 210.534C236.965 210.443 236.79 210.471 236.698 210.596C236.607 210.721 236.635 210.896 236.76 210.988C236.761 210.988 236.762 210.988 236.763 210.989C236.888 211.08 237.063 211.053 237.155 210.927C237.246 210.802 237.218 210.627 237.093 210.536C237.092 210.535 237.091 210.534 237.09 210.534ZM241.076 205.067C240.957 204.974 240.784 204.996 240.691 205.115C240.689 205.117 240.688 205.119 240.687 205.121C240.598 205.25 240.625 205.425 240.749 205.521C240.875 205.61 241.049 205.582 241.14 205.458C241.231 205.336 241.206 205.163 241.084 205.072C241.081 205.071 241.079 205.069 241.076 205.067ZM247.408 219.066C247.261 219.031 247.112 219.122 247.077 219.27C247.076 219.271 247.076 219.273 247.075 219.275C247.038 219.423 247.126 219.575 247.273 219.616C247.424 219.646 247.572 219.556 247.616 219.409C247.654 219.257 247.561 219.104 247.408 219.066C247.409 219.066 247.409 219.066 247.408 219.066ZM248.996 212.493C248.853 212.455 248.705 212.54 248.667 212.684C248.666 212.69 248.664 212.696 248.663 212.702C248.626 212.849 248.715 212.997 248.862 213.034C249.013 213.071 249.167 212.978 249.204 212.827V212.826C249.242 212.683 249.157 212.536 249.013 212.497C249.009 212.496 249.002 212.495 248.996 212.493ZM250.585 205.911C250.432 205.88 250.282 205.977 250.25 206.13C250.219 206.279 250.311 206.426 250.46 206.463C250.607 206.498 250.756 206.408 250.791 206.26C250.792 206.258 250.792 206.256 250.793 206.254C250.83 206.102 250.738 205.949 250.585 205.911C250.586 205.911 250.586 205.911 250.585 205.911ZM251.502 221.25C251.35 221.218 251.2 221.316 251.168 221.468C251.136 221.62 251.234 221.77 251.386 221.802C251.539 221.833 251.688 221.736 251.72 221.584C251.753 221.431 251.655 221.282 251.502 221.25C251.503 221.25 251.503 221.25 251.502 221.25ZM252.81 214.638C252.656 214.614 252.509 214.713 252.475 214.866C252.451 215.015 252.547 215.157 252.695 215.19C252.847 215.222 252.997 215.125 253.029 214.972C253.057 214.82 252.961 214.674 252.81 214.638ZM254.108 208.035C253.958 208.005 253.813 208.103 253.783 208.253C253.753 208.403 253.851 208.548 254.001 208.578C254.002 208.578 254.003 208.578 254.003 208.578C254.156 208.61 254.306 208.512 254.337 208.36C254.361 208.208 254.26 208.065 254.108 208.035ZM240.262 212.855C240.138 212.771 239.968 212.804 239.884 212.929C239.882 212.932 239.88 212.935 239.878 212.939C239.793 213.065 239.826 213.237 239.952 213.322C240.081 213.409 240.256 213.376 240.345 213.248C240.431 213.121 240.398 212.947 240.27 212.859C240.267 212.858 240.265 212.856 240.262 212.855ZM244.002 207.245C243.878 207.161 243.708 207.195 243.624 207.319C243.622 207.323 243.62 207.326 243.618 207.33C243.533 207.456 243.566 207.628 243.692 207.712C243.821 207.799 243.996 207.767 244.085 207.639C244.172 207.511 244.138 207.337 244.01 207.25C244.008 207.248 244.006 207.247 244.002 207.245ZM251.467 209.679C251.367 209.628 251.246 209.668 251.196 209.767C251.192 209.774 251.189 209.781 251.187 209.787C251.14 209.894 251.189 210.018 251.296 210.065C251.402 210.111 251.527 210.062 251.574 209.955C251.62 209.85 251.572 209.726 251.467 209.679ZM253.468 205.006C253.364 204.958 253.24 205.003 253.191 205.108C253.19 205.11 253.189 205.113 253.188 205.114C253.14 205.222 253.189 205.346 253.296 205.394C253.404 205.442 253.528 205.394 253.576 205.286C253.624 205.179 253.576 205.053 253.468 205.006Z" fill="white"/>
<path opacity="0.86" d="M78.432 204.849C78.3888 204.748 78.2723 204.701 78.1713 204.744C78.0702 204.787 78.023 204.904 78.0661 205.005C78.1093 205.106 78.2259 205.153 78.3269 205.11C78.4279 205.067 78.4752 204.95 78.432 204.849C78.432 204.85 78.432 204.849 78.432 204.849ZM104.786 205.784C104.632 205.644 104.394 205.656 104.253 205.81C104.25 205.813 104.248 205.816 104.245 205.82C104.108 205.975 104.124 206.21 104.28 206.346C104.28 206.347 104.281 206.348 104.282 206.348C104.436 206.488 104.675 206.477 104.815 206.323C104.818 206.32 104.821 206.317 104.824 206.313C104.96 206.158 104.944 205.923 104.79 205.787C104.788 205.785 104.787 205.785 104.786 205.784ZM76.7461 229.036C76.5359 229.05 76.3762 229.23 76.3876 229.44C76.3982 229.642 76.571 229.797 76.7738 229.787C76.7804 229.787 76.7877 229.786 76.7942 229.785C77.0044 229.77 77.1641 229.591 77.1527 229.381C77.1356 229.173 76.9539 229.019 76.7461 229.036C76.747 229.036 76.7461 229.036 76.7461 229.036ZM76.0927 219.843C75.8849 219.861 75.7309 220.042 75.7472 220.249C75.7472 220.249 75.7472 220.249 75.7472 220.25C75.7602 220.46 75.9411 220.621 76.1521 220.608C76.3632 220.596 76.5237 220.414 76.5107 220.203C76.487 219.993 76.3045 219.836 76.0927 219.843ZM75.453 210.652C75.242 210.677 75.0856 210.858 75.0921 211.07C75.1027 211.272 75.2754 211.427 75.4783 211.416C75.4848 211.416 75.4921 211.416 75.4987 211.415C75.7056 211.406 75.867 211.231 75.858 211.024C75.858 211.019 75.8572 211.015 75.8572 211.01C75.8433 210.801 75.6633 210.642 75.453 210.652ZM94.8513 219.865C94.7609 219.672 94.5303 219.587 94.3364 219.677C94.1424 219.768 94.0577 219.998 94.1481 220.192C94.2386 220.386 94.4692 220.47 94.6631 220.38C94.6656 220.379 94.668 220.377 94.6705 220.377C94.8595 220.283 94.9401 220.057 94.8513 219.865ZM90.7349 211.624C90.6444 211.43 90.4139 211.346 90.2199 211.436C90.026 211.526 89.9412 211.757 90.0317 211.95C90.1221 212.144 90.3527 212.229 90.5467 212.138C90.5491 212.138 90.5516 212.136 90.554 212.135C90.743 212.042 90.8237 211.815 90.7349 211.624ZM102.757 215.664C102.657 215.506 102.448 215.459 102.29 215.558C102.132 215.658 102.084 215.867 102.184 216.025C102.283 216.183 102.493 216.23 102.651 216.131C102.809 216.031 102.857 215.823 102.757 215.664ZM98.395 208.696C98.2955 208.538 98.0861 208.491 97.9281 208.59C97.77 208.689 97.7227 208.898 97.8221 209.056C97.9215 209.214 98.131 209.261 98.289 209.162C98.4463 209.068 98.4968 208.865 98.4031 208.708C98.4007 208.704 98.3982 208.7 98.395 208.696ZM85.89 217.582C85.7067 217.622 85.5861 217.798 85.6138 217.984C85.6455 218.166 85.8199 218.289 86.0025 218.257C86.1874 218.228 86.3153 218.056 86.2901 217.871C86.2583 217.682 86.0807 217.553 85.89 217.582ZM84.5358 209.475C84.3524 209.515 84.2319 209.691 84.2596 209.877C84.2913 210.059 84.4657 210.182 84.6482 210.15C84.8267 210.125 84.9513 209.96 84.9261 209.782C84.9253 209.776 84.9236 209.769 84.9228 209.762C84.8935 209.577 84.7215 209.449 84.5358 209.475ZM102.367 224.534C102.151 224.567 102.002 224.766 102.03 224.982C102.066 225.196 102.267 225.34 102.48 225.306C102.695 225.27 102.843 225.074 102.818 224.858C102.783 224.645 102.581 224.5 102.367 224.534ZM100.886 215.158C100.672 215.193 100.527 215.395 100.562 215.608C100.597 215.822 100.799 215.966 101.013 215.931C101.226 215.896 101.371 215.694 101.336 215.481C101.301 215.269 101.1 215.125 100.886 215.158ZM99.4184 205.784C99.2041 205.811 99.0525 206.006 99.0794 206.22C99.1063 206.434 99.301 206.585 99.5153 206.558C99.521 206.558 99.5267 206.557 99.5316 206.556C99.7475 206.523 99.8967 206.324 99.8689 206.107C99.8331 205.895 99.6319 205.75 99.4184 205.784ZM83.8448 219.526C83.637 219.476 83.4292 219.604 83.3795 219.812C83.3787 219.814 83.3787 219.817 83.3779 219.819C83.3258 220.027 83.4488 220.24 83.6558 220.298C83.8668 220.339 84.0754 220.213 84.1365 220.006C84.1887 219.794 84.0591 219.579 83.8456 219.526C83.8456 219.526 83.8456 219.526 83.8448 219.526ZM86.0725 210.306C85.8713 210.252 85.6643 210.372 85.6113 210.573C85.6089 210.581 85.6073 210.59 85.6056 210.599C85.5543 210.804 85.679 211.012 85.8851 211.063C85.8851 211.063 85.8851 211.063 85.8859 211.063C86.0986 211.115 86.3137 210.986 86.3667 210.773V210.772C86.4204 210.571 86.2998 210.364 86.0986 210.311C86.0896 210.309 86.0807 210.307 86.0725 210.306ZM89.5876 222.589C89.3733 222.544 89.1639 222.681 89.1191 222.896C89.0743 223.11 89.212 223.319 89.4263 223.364C89.6398 223.408 89.85 223.272 89.8948 223.058C89.9396 222.843 89.8019 222.633 89.5876 222.589ZM91.4234 213.314C91.2067 213.28 91.0013 213.42 90.9524 213.634C90.919 213.843 91.0543 214.042 91.2612 214.088C91.4755 214.133 91.685 213.996 91.7306 213.782C91.7689 213.57 91.6344 213.363 91.4234 213.314ZM107.259 208.202C107.046 208.247 106.907 208.454 106.947 208.668C106.995 208.879 107.204 209.012 107.415 208.967C107.625 208.928 107.765 208.727 107.726 208.518C107.726 208.517 107.726 208.516 107.725 208.515C107.678 208.303 107.474 208.166 107.259 208.202ZM73.8201 210.812C73.645 210.694 73.4078 210.741 73.2897 210.915C73.2864 210.92 73.2832 210.925 73.2807 210.93C73.1618 211.107 73.2082 211.347 73.385 211.467C73.5659 211.589 73.8112 211.543 73.9358 211.364C74.0573 211.184 74.01 210.94 73.8299 210.819C73.8275 210.817 73.8242 210.814 73.8201 210.812ZM89.5379 206.357C89.3986 206.287 89.2283 206.343 89.1574 206.482C89.1525 206.491 89.1484 206.5 89.1452 206.51C89.08 206.659 89.1484 206.833 89.2984 206.899C89.4483 206.964 89.6227 206.895 89.6878 206.746C89.753 206.597 89.6854 206.423 89.5379 206.357ZM104.534 205.722C104.372 205.718 104.236 205.845 104.232 206.007C104.232 206.008 104.232 206.009 104.232 206.01C104.236 206.169 104.361 206.3 104.521 206.311C104.683 206.313 104.817 206.185 104.822 206.023C104.831 205.866 104.711 205.731 104.555 205.723C104.548 205.722 104.541 205.722 104.534 205.722Z" fill="white"/>
<path d="M304.018 82.9954C304.018 82.9954 307.273 84.2553 327.069 113.866C330.757 119.383 327.142 114.281 327.142 114.281L305.354 132.146C305.354 132.146 286.976 106.807 285.668 97.0756C285.668 97.0756 298.018 84.7745 304.018 82.9954Z" fill="url(#paint5_linear)"/>
<path d="M280.117 74.6074C280.117 74.6074 294.53 131.226 321.158 160.854C321.158 160.854 275.654 191.828 224.758 157.823C224.758 157.823 250.064 81.6036 251.386 75.0005C251.723 73.3166 280.117 74.6074 280.117 74.6074Z" fill="url(#paint6_linear)"/>
<path d="M23.6756 199.358H0.597656V276.068H23.6756V199.358Z" fill="url(#paint7_linear)"/>
<path d="M61.8202 172.732H38.7422V249.441H61.8202V172.732Z" fill="url(#paint8_linear)"/>
<path d="M273.503 163.827H0.644531V204.47H273.503V163.827Z" fill="url(#paint9_linear)"/>
<path d="M359.856 282.242C300.543 282.242 252.289 234.042 252.289 174.797C252.289 115.552 300.543 67.3516 359.856 67.3516C419.169 67.3516 467.424 115.552 467.424 174.797C467.424 234.042 419.169 282.242 359.856 282.242ZM359.856 105.604C321.599 105.604 290.585 136.583 290.585 174.797C290.585 213.011 321.599 243.989 359.857 243.989C398.114 243.989 429.128 213.011 429.128 174.797C429.084 136.601 398.095 105.648 359.856 105.604Z" fill="url(#paint10_linear)"/>
<path d="M273 402.032L261.285 434.674L343.988 434.677C343.988 434.677 339.748 426.507 325.611 420.455C311.475 414.403 298.28 402.032 298.28 402.032H273Z" fill="url(#paint11_linear)"/>
<path d="M222.094 401.726L210.379 434.368L293.082 434.37C293.082 434.37 288.841 426.2 274.705 420.148C260.569 414.096 247.374 401.726 247.374 401.726H222.094Z" fill="#333333"/>
<path d="M304.016 82.9954C297.413 87.0192 291.261 91.7398 285.666 97.0757L275.652 77.3551L280.118 74.6042C280.118 74.6042 292.266 73.4078 304.016 82.9954Z" fill="url(#paint12_linear)"/>
<path d="M278.13 62.5041C278.13 62.5041 277.931 72.0282 280.116 74.6074C280.116 74.6074 275.746 81.3538 266.41 75.7981L267.205 61.1156L278.13 62.5041Z" fill="url(#paint13_linear)"/>
<path d="M250.248 151.237C250.248 151.237 260.641 159.425 267.645 163.118C274.036 166.487 277.209 167.623 279.811 164.238C282.163 161.051 284.217 157.654 285.945 154.091C286.663 152.449 289.217 152.184 288.985 156.314C288.753 160.443 283.34 163.212 285.811 165.122C288.281 167.033 296.358 166.835 302.348 166.049C308.339 165.262 311.619 165.026 306.957 172.833C302.294 180.641 296.292 185.492 278.847 179.812C261.402 174.131 249.555 176.282 243.66 177.301L250.248 151.237Z" fill="url(#paint14_linear)"/>
<path d="M251.501 84.6663C251.501 84.6663 243.123 107.537 242.675 123.233C242.227 138.93 245.056 141.741 257.57 146.861C270.085 151.981 273.01 152.3 273.01 152.3L257.509 201.334C257.509 201.334 243.503 203.02 234.086 191.575C224.669 180.131 220.915 177.127 214.098 174.228C207.28 171.329 193.779 160.964 199.657 137.722C205.535 114.481 215.518 97.3239 240.613 75.4579" fill="#19517A"/>
<path d="M289.141 39.3604C289.155 39.4645 289.163 39.5418 289.171 39.5874C289.178 39.6021 289.181 39.6175 289.179 39.6338C289.235 40.0497 289.278 40.4746 289.31 40.9165C289.653 45.6664 292.89 49.4998 292.815 50.7988C292.74 52.0977 290.152 52.8318 288.93 52.8823C287.708 52.9328 288.006 58.1441 282.871 61.3728C278.052 64.4029 269.017 64.3655 264.559 61.5771C263.3 51.3799 255.003 29.3577 265.031 25.3509C275.975 20.9738 285.927 31.2947 285.927 31.2947C287.589 33.7095 288.687 36.4654 289.141 39.3604Z" fill="#FFBEB6"/>
<path d="M285.796 43.6373C286.951 45.2773 289.218 45.6712 290.86 44.518C291.455 44.1004 291.91 43.5144 292.167 42.8356C292.367 42.3204 291.599 41.9127 291.397 42.4344C290.909 43.8815 289.341 44.6596 287.892 44.1737C287.346 43.9906 286.87 43.6414 286.533 43.175C286.199 42.7298 285.461 43.1889 285.796 43.6373Z" fill="#1C2868"/>
<path d="M287.977 32.2445C285.896 29.5082 279.32 25.4575 275.484 24.1439C275.27 24.0495 275.038 24.0014 274.804 24.0055C271.301 22.6699 267.493 22.3427 263.812 23.0614C252.943 25.2768 242.724 37.1824 245.508 48.9423C246.157 52.9507 245.336 57.0584 243.198 60.5109C241.018 63.9666 237.57 65.9314 234.316 68.2404C230.372 71.0377 226.826 74.6058 227.362 79.7968C227.402 80.1834 228.014 80.1875 227.974 79.7968C227.007 70.433 238.384 68.0914 242.996 61.8847C245.103 59.0247 246.262 55.5787 246.313 52.0277C248.539 62.4927 241.574 66.0193 237.564 69.1161C231.213 74.0206 230.944 80.0597 230.944 80.0597C255.596 88.0398 270.661 80.2876 270.661 80.2876C270.661 80.2876 277.28 72.3074 272.031 61.1359C266.781 49.9645 267.465 48.8242 275.911 41.5285C276.033 41.4227 276.145 41.3275 276.264 41.225C273.024 44.9607 270.267 49.2808 271.04 54.4148C271.612 58.2173 273.898 61.5128 274.691 65.2681C275.694 70.3378 274.873 75.5987 272.373 80.1232C272.189 80.4699 272.716 80.7783 272.901 80.4316C275.811 75.1788 276.488 68.9786 274.781 63.2219C273.527 59.1574 271.124 55.6568 271.661 51.2219C272.272 46.1775 276.035 42.0706 279.393 38.5521C282.544 35.8655 283.881 34.6422 284.183 33.1666C284.756 33.6647 288.456 35.2461 289.069 38.9249C289.068 38.9257 290.059 34.9816 287.977 32.2445Z" fill="url(#paint15_linear)"/>
<path d="M362.979 123.706C362.947 124.146 362.906 124.585 362.857 125.025C362.824 125.375 362.784 125.716 362.735 126.066C362.702 126.359 362.661 126.644 362.613 126.929C362.564 127.255 362.515 127.58 362.45 127.898C362.409 128.174 362.36 128.443 362.303 128.712C362.27 128.899 362.23 129.078 362.189 129.257C362.14 129.509 362.083 129.761 362.018 130.006C362.008 130.072 361.994 130.137 361.977 130.201C361.953 130.299 361.928 130.404 361.895 130.502C361.847 130.73 361.781 130.966 361.716 131.194C361.7 131.275 361.675 131.357 361.651 131.446C361.561 131.772 361.464 132.097 361.358 132.423C361.211 132.911 361.04 133.391 360.861 133.863C360.779 134.091 360.69 134.319 360.592 134.547C360.593 134.558 360.59 134.57 360.584 134.58C360.445 134.921 360.307 135.255 360.152 135.589C359.858 136.248 359.533 136.892 359.174 137.518C358.987 137.86 358.783 138.201 358.579 138.527C355.912 142.286 352.27 145.246 348.044 147.089C347.954 147.13 347.864 147.162 347.775 147.195C346.637 147.656 345.462 148.018 344.263 148.277C344.092 148.326 343.913 148.367 343.741 148.399C343.578 148.44 343.407 148.473 343.236 148.505C342.526 148.648 341.807 148.751 341.085 148.815C338.103 149.073 335.101 149.018 332.13 148.652L331.886 148.627C330.723 148.498 329.573 148.273 328.447 147.952C327.14 147.582 325.858 147.128 324.61 146.593C321.545 145.25 318.615 143.62 315.858 141.726C314.036 140.567 312.306 139.269 310.684 137.843C310.644 137.811 310.619 137.778 310.595 137.77C310.587 137.754 310.57 137.746 310.562 137.738L310.554 137.729C310.542 137.716 310.529 137.706 310.513 137.697C310.52 137.696 310.525 137.693 310.53 137.689C309.943 137.07 307.702 134.718 305.355 132.146C305.706 131.698 306.064 131.251 306.431 130.811C312.151 123.885 319.16 118.131 327.07 113.866C326.923 112.962 326.7 112.072 326.402 111.205C326.202 110.611 325.968 110.03 325.701 109.463C325.279 108.576 324.792 107.722 324.243 106.907C319.794 100.339 323.061 94.9595 323.322 94.5526C323.326 94.5436 323.332 94.5355 323.338 94.5282L358.115 89.8564L358.05 90.0274L358.172 90.0111C358.563 91.118 360.901 98.1337 362.58 111.319C363.132 115.424 363.265 119.574 362.979 123.706Z" fill="url(#paint16_linear)"/>
<path d="M344.237 91.2075C344.286 91.354 344.351 91.5086 344.433 91.6958L330.98 93.5027C325.431 77.5504 321.618 77.4772 322.123 73.8635C322.208 72.602 322.929 71.4707 324.038 70.8603C327.876 69.2895 328.218 68.2558 336.904 67.0838C338.37 66.8803 340.179 67.0757 340.758 68.6709C341.243 69.777 341.79 70.8562 342.396 71.902C343.357 73.6438 343.683 70.7138 344.734 68.4105C345.728 67.6731 347.038 67.5119 348.181 67.9872C348.336 71.1207 346.975 76.3296 343.911 78.4457C339.552 81.4652 342.2 85.6649 344.237 91.2075Z" fill="url(#paint17_linear)"/>
<path d="M362.58 111.319C360.901 98.1337 358.563 91.118 358.172 90.0111C358.131 89.9053 358.115 89.8564 358.115 89.8564L323.339 94.5282C323.332 94.5355 323.326 94.5436 323.322 94.5526C323.062 94.9595 319.794 100.339 324.243 106.907C325.684 108.997 326.655 111.374 327.087 113.874L327.07 113.866C327.07 113.866 327.087 113.948 327.119 114.094C327.127 114.151 327.136 114.208 327.144 114.281C328.008 120.044 327.52 125.929 325.718 131.471C325.628 131.739 325.547 132.016 325.482 132.293C325.464 132.354 325.451 132.42 325.435 132.482C324.606 135.738 324.262 139.098 324.414 142.453C324.414 142.474 324.414 142.495 324.414 142.515C324.406 142.547 324.406 142.581 324.414 142.613C324.43 144.07 324.504 145.429 324.61 146.593C325.858 147.129 327.14 147.582 328.447 147.952C329.573 148.273 330.723 148.498 331.886 148.627L332.13 148.652C335.101 149.018 338.103 149.073 341.085 148.815C341.807 148.751 342.526 148.648 343.236 148.505C343.407 148.473 343.579 148.44 343.742 148.399C343.913 148.367 344.092 148.326 344.263 148.277C345.462 148.018 346.637 147.656 347.775 147.195C347.864 147.162 347.954 147.13 348.044 147.089C352.423 145.504 356.136 142.487 358.579 138.527C358.783 138.201 358.987 137.86 359.174 137.518C359.345 137.218 359.509 136.915 359.665 136.608L359.674 136.592C359.841 136.261 360.001 135.927 360.152 135.589C360.297 135.276 360.426 134.963 360.556 134.644C360.598 134.542 360.634 134.438 360.675 134.335C360.739 134.178 360.805 134.021 360.861 133.863C361.013 133.462 361.152 133.052 361.284 132.639C361.321 132.522 361.362 132.407 361.398 132.289C361.487 132.008 361.574 131.727 361.651 131.445C361.676 131.356 361.7 131.274 361.716 131.193C361.781 130.965 361.847 130.729 361.896 130.501C361.928 130.404 361.953 130.298 361.977 130.2C363.411 124.276 363.387 117.626 362.58 111.319Z" fill="url(#paint18_linear)"/>
<path d="M134.746 402.032L123.031 434.674L205.734 434.677C205.734 434.677 201.494 426.507 187.358 420.455C173.221 414.403 160.026 402.032 160.026 402.032H134.746Z" fill="url(#paint19_linear)"/>
<path d="M61.5662 402.311L49.8516 434.953L132.554 434.955C132.554 434.955 128.314 426.785 114.178 420.733C100.042 414.681 86.8466 402.311 86.8466 402.311H61.5662Z" fill="#666666"/>
<path d="M180.024 177.919C188.017 185.008 191.268 203.036 188.017 207.472C184.758 211.899 174.108 219.582 169.081 218.109C164.053 216.628 175.591 205.99 173.815 202.45C172.039 198.901 168.486 210.426 166.123 211.02C163.752 211.606 162.277 208.359 164.942 202.743C167.598 197.127 173.22 187.67 167.899 183.242C164.942 180.784 143.772 172.242 136.754 163.807L152.626 152.634" fill="url(#paint20_linear)"/>
<path d="M82.9117 167.609C82.9117 167.609 96.8165 185.93 105.691 191.249C114.566 196.568 118.117 196.863 122.258 195.091C126.4 193.318 137.05 186.521 138.234 187.408C139.417 188.294 137.938 192.135 134.683 193.909C131.429 195.682 126.696 201.001 137.05 203.365C147.405 205.73 150.955 206.025 150.955 207.502C150.955 208.98 148.884 215.481 139.713 220.209C130.542 224.937 124.921 217.549 120.188 213.708C115.455 209.866 109.833 203.069 105.396 203.069C100.958 203.069 74.3325 194.204 66.6406 189.771L82.9117 167.609Z" fill="url(#paint21_linear)"/>
<path d="M91.7196 75.2325C91.7196 75.2325 78.1146 98.9297 74.6386 116.199C71.1626 133.468 71.5912 139.772 81.8978 150.892C89.9425 159.57 97.6335 166.988 97.6335 166.988L72.5348 211.343C72.5348 211.343 56.4454 204.272 52.166 190.128C47.3529 174.222 40.3487 171.66 33.3617 167.163C26.3747 162.666 13.4167 148.649 24.3287 124.067C35.2407 99.4847 49.535 82.4086 81.4317 62.9892" fill="url(#paint22_linear)"/>
<path d="M96.5386 64.0668C95.7718 57.4303 96.6135 54.6932 97.003 52.7757C96.5304 52.7114 93.5963 52.7008 93.1416 52.6015C91.917 52.4281 90.7143 52.1213 89.5564 51.6867L86.6141 50.006C87.4396 49.525 87.4461 49.3606 87.5569 48.8991C87.9725 47.172 86.7347 46.6007 85.0815 45.9683C85.5329 52.0163 80.9414 63.646 80.9414 63.646C92.6853 68.653 96.5386 64.0668 96.5386 64.0668Z" fill="url(#paint23_linear)"/>
<path d="M106.017 50.3324C110.833 46.4615 111.954 40.2117 113.183 40.022C114.414 39.8234 116.938 38.7784 116.868 37.451C116.787 36.1308 113.062 32.636 112.146 27.8674C112.068 27.423 111.975 27.0039 111.872 26.5823C111.867 26.5619 111.869 26.5522 111.852 26.5392L111.795 26.3129C111.719 26.0337 111.58 25.5568 111.363 24.9456C108.679 27.4336 105.895 28.7228 104.289 28.4127C99.7401 27.5386 100.04 30.2684 97.0781 34.5616C94.1057 38.863 90.1269 38.0939 84.5968 38.3674C79.065 38.6506 80.4038 43.8904 82.9142 45.0982C85.4222 46.315 87.1806 46.6829 86.5898 49.1205C86.5393 49.6178 86.3845 50.0996 86.1368 50.5342L86.7894 50.8142C86.9964 50.9029 87.2066 50.981 87.4209 51.0494L90.4056 51.9968C95.772 53.6701 101.507 53.968 106.017 50.3324Z" fill="#FFBEB6"/>
<path d="M50.3876 53.1639L109.565 19.0367L110.857 21.2725L50.2988 56.1964L49.8042 55.3402C49.3634 54.5784 49.6241 53.6042 50.3876 53.1639Z" fill="url(#paint24_linear)"/>
<path d="M66.2869 19.3891L98.9039 0.579346L109.564 19.0221L70.2616 41.6873L63.4611 29.9217C61.3296 26.2339 62.595 21.5183 66.2869 19.3891Z" fill="url(#paint25_linear)"/>
<path opacity="0.86" d="M73.4036 25.6243C73.4329 25.6984 73.5169 25.7358 73.5918 25.7065C73.6611 25.6821 73.6961 25.6056 73.6717 25.5372C73.6692 25.5316 73.6668 25.5259 73.6643 25.5202C73.6383 25.4485 73.5584 25.4111 73.4859 25.4371C73.4117 25.4656 73.3743 25.5503 73.4036 25.6243ZM66.0499 25.171C66.0548 25.2499 66.1183 25.3126 66.1974 25.3175C66.2789 25.3175 66.344 25.2508 66.344 25.1702C66.344 25.0896 66.2772 25.0237 66.1965 25.0237C66.1175 25.0286 66.0548 25.0921 66.0499 25.171ZM66.0613 21.7095C66.0637 21.7877 66.1297 21.8487 66.2071 21.8463C66.2829 21.852 66.3489 21.7958 66.3546 21.7201C66.3546 21.716 66.3554 21.712 66.3546 21.7079C66.3522 21.6273 66.287 21.563 66.2071 21.5614C66.1289 21.5671 66.0662 21.6306 66.0613 21.7095ZM72.1659 38.3609C72.2164 38.5017 72.3712 38.5766 72.513 38.5285C72.6523 38.483 72.7289 38.334 72.6833 38.1949C72.6833 38.194 72.6825 38.1932 72.6825 38.1916C72.6458 38.0524 72.5032 37.9702 72.3639 38.0068C72.3574 38.0085 72.3508 38.0109 72.3435 38.0134C72.2034 38.0654 72.126 38.2168 72.1659 38.3609ZM70.0857 32.1306C70.1386 32.2706 70.2894 32.3479 70.4344 32.308C70.5754 32.2575 70.6503 32.1029 70.6023 31.9613C70.5542 31.8205 70.401 31.744 70.26 31.792C70.2584 31.7928 70.2568 31.7928 70.2552 31.7936C70.1158 31.8392 70.0392 31.9881 70.0848 32.1273C70.0857 32.1289 70.0857 32.1297 70.0857 32.1306ZM68.0071 25.91C68.0495 26.0476 68.1945 26.1249 68.3322 26.0834C68.3363 26.0817 68.3403 26.0809 68.3444 26.0793C68.487 26.037 68.5685 25.8872 68.5261 25.7448C68.5245 25.7407 68.5237 25.7358 68.522 25.7318C68.4731 25.5893 68.3183 25.5137 68.1757 25.5625C68.0332 25.6113 67.9574 25.766 68.0063 25.9084C68.0063 25.9076 68.0071 25.9092 68.0071 25.91ZM65.9179 19.6805C65.9684 19.8213 66.1232 19.8962 66.265 19.8482C66.4027 19.8058 66.4801 19.661 66.4385 19.5234C66.4369 19.5194 66.4361 19.5153 66.4345 19.5112C66.3889 19.3696 66.2381 19.2907 66.0955 19.333C65.9521 19.3826 65.8739 19.5356 65.9179 19.6805ZM64.4765 31.7301C64.5083 31.8579 64.6378 31.936 64.7658 31.9059C64.892 31.8783 64.9719 31.7529 64.9442 31.6268C64.9434 31.6235 64.9426 31.6203 64.9418 31.617C64.914 31.4868 64.7861 31.4029 64.6557 31.4306C64.6541 31.4306 64.6525 31.4314 64.6517 31.4314C64.5213 31.4672 64.4447 31.5999 64.4765 31.7301ZM63.1541 26.0126C63.1818 26.1428 63.3097 26.2266 63.44 26.1989C63.4417 26.1989 63.4433 26.1981 63.4441 26.1981C63.568 26.1745 63.6494 26.0549 63.6258 25.9312C63.6242 25.9238 63.6226 25.9165 63.6201 25.9092C63.5924 25.779 63.4645 25.6951 63.3341 25.7228C63.3325 25.7228 63.3308 25.7236 63.33 25.7236C63.2037 25.757 63.1263 25.8848 63.1541 26.0126ZM75.1685 30.0755C75.2394 30.1805 75.3828 30.2073 75.4871 30.1365C75.4911 30.1341 75.4952 30.1308 75.4993 30.1276C75.6101 30.0535 75.6394 29.9038 75.5645 29.7931C75.5628 29.7906 75.5612 29.7882 75.5596 29.7858C75.4781 29.6808 75.3282 29.658 75.219 29.7345C75.1114 29.8102 75.0854 29.9583 75.1611 30.0657C75.1644 30.0698 75.1669 30.0722 75.1685 30.0755ZM71.7601 25.3029C71.8391 25.4119 71.9907 25.4388 72.1023 25.3631C72.2107 25.2817 72.2327 25.1279 72.1504 25.0196C72.073 24.9171 71.9288 24.891 71.8204 24.961C71.7104 25.0335 71.6795 25.1808 71.752 25.2906C71.7544 25.2955 71.7568 25.2988 71.7601 25.3029ZM69.1926 33.2635C69.2888 33.3872 69.4648 33.4141 69.5935 33.3254C69.7166 33.2293 69.7386 33.0519 69.6424 32.929C69.5495 32.8102 69.3792 32.7849 69.2562 32.872C69.134 32.9648 69.1063 33.1373 69.1926 33.2635ZM65.2074 27.7966C65.2994 27.9187 65.4722 27.9472 65.5985 27.8601C65.724 27.7698 65.7525 27.5948 65.6621 27.4694C65.5716 27.3441 65.3964 27.3156 65.2709 27.4059C65.1471 27.4971 65.1186 27.6705 65.2074 27.7966Z" fill="white"/>
<path d="M105.887 44.8321C106.347 46.7838 108.303 47.9941 110.257 47.535C110.964 47.369 111.606 46.9946 112.099 46.4607C112.477 46.057 111.915 45.3921 111.533 45.8014C110.542 46.9629 108.795 47.1004 107.632 46.1099C107.194 45.7363 106.883 45.235 106.743 44.6767C106.6 44.1411 105.743 44.2917 105.887 44.8321Z" fill="#1C2868"/>
<path d="M121.132 13.5885C120.999 13.2215 120.409 13.3802 120.543 13.7505C122.891 20.2462 118.707 24.7754 113.303 26.7133C116.636 25.3248 119.717 23.0655 120.353 19.8343C121.5 14.0134 116.054 9.14715 113.189 15.2538C110.323 21.3604 110.858 21.2717 109.559 21.9333C108.259 22.595 70.9648 44.1663 70.9648 44.1663C70.9648 44.1663 72.1333 48.0877 77.7848 50.5375C83.4364 52.9873 86.1367 50.5342 86.1367 50.5342C86.1367 50.5342 88.7327 47.2192 83.8609 45.2154C78.9891 43.2117 80.5177 37.2003 86.0585 38.4406C91.5992 39.681 97.0446 37.105 98.5732 32.9062C100.102 28.7073 101.726 28.5169 105.929 28.4217C106.171 28.416 106.43 28.4013 106.702 28.3785C110.928 28.6056 115.376 27.6647 118.477 24.6053C121.438 21.7657 122.475 17.4643 121.132 13.5885Z" fill="#333333"/>
<defs>
<linearGradient id="paint0_linear" x1="322.697" y1="202.593" x2="391.067" y2="249.196" gradientUnits="userSpaceOnUse">
<stop offset="0.21877" stop-color="#B8D3FC"/>
<stop offset="0.6955" stop-color="#81AEF2"/>
<stop offset="1" stop-color="#78A9EF"/>
</linearGradient>
<linearGradient id="paint1_linear" x1="265.613" y1="329.473" x2="189.591" y2="308.173" gradientUnits="userSpaceOnUse">
<stop stop-color="#B8D3FC"/>
<stop offset="0.6955" stop-color="#81AEF2"/>
<stop offset="1" stop-color="#78A9EF"/>
</linearGradient>
<linearGradient id="paint2_linear" x1="200.887" y1="363.621" x2="140.28" y2="292.443" gradientUnits="userSpaceOnUse">
<stop stop-color="#19517A"/>
<stop offset="1" stop-color="#0C2D45"/>
</linearGradient>
<linearGradient id="paint3_linear" x1="49.2421" y1="76.6124" x2="67.58" y2="82.4902" gradientUnits="userSpaceOnUse">
<stop stop-color="#B8D3FC"/>
<stop offset="0.6955" stop-color="#81AEF2"/>
<stop offset="1" stop-color="#78A9EF"/>
</linearGradient>
<linearGradient id="paint4_linear" x1="109.383" y1="146.603" x2="42.6348" y2="102.89" gradientUnits="userSpaceOnUse">
<stop stop-color="#B8D3FC"/>
<stop offset="0.6955" stop-color="#81AEF2"/>
<stop offset="1" stop-color="#78A9EF"/>
</linearGradient>
<linearGradient id="paint5_linear" x1="295.881" y1="102.489" x2="345.865" y2="131.397" gradientUnits="userSpaceOnUse">
<stop stop-color="#23286B"/>
<stop offset="0.0713" stop-color="#222768"/>
<stop offset="0.6731" stop-color="#181D55"/>
<stop offset="1" stop-color="#151A4F"/>
</linearGradient>
<linearGradient id="paint6_linear" x1="272.958" y1="79.9709" x2="272.958" y2="197.409" gradientUnits="userSpaceOnUse">
<stop stop-color="#19517A"/>
<stop offset="0.5746" stop-color="#123752"/>
<stop offset="1" stop-color="#0C2F47"/>
</linearGradient>
<linearGradient id="paint7_linear" x1="12.1371" y1="196.113" x2="12.1371" y2="283.485" gradientUnits="userSpaceOnUse">
<stop stop-color="#F1B505"/>
<stop offset="1" stop-color="#D89C05"/>
</linearGradient>
<linearGradient id="paint8_linear" x1="50.2811" y1="168.969" x2="50.2811" y2="262.279" gradientUnits="userSpaceOnUse">
<stop stop-color="#F1B505"/>
<stop offset="1" stop-color="#D89C05"/>
</linearGradient>
<linearGradient id="paint9_linear" x1="0.644205" y1="184.148" x2="273.503" y2="184.148" gradientUnits="userSpaceOnUse">
<stop stop-color="#F1B505"/>
<stop offset="1" stop-color="#D89C05"/>
</linearGradient>
<linearGradient id="paint10_linear" x1="252.289" y1="174.797" x2="467.424" y2="174.797" gradientUnits="userSpaceOnUse">
<stop stop-color="#F1B505"/>
<stop offset="1" stop-color="#D89C05"/>
</linearGradient>
<linearGradient id="paint11_linear" x1="345.556" y1="434.553" x2="282.108" y2="418.89" gradientUnits="userSpaceOnUse">
<stop stop-color="#333333"/>
<stop offset="0.5746" stop-color="#333333"/>
<stop offset="1"/>
</linearGradient>
<linearGradient id="paint12_linear" x1="289.834" y1="78.656" x2="289.834" y2="122.282" gradientUnits="userSpaceOnUse">
<stop stop-color="#19517A"/>
<stop offset="0.5746" stop-color="#10344E"/>
<stop offset="1" stop-color="#151A4F"/>
</linearGradient>
<linearGradient id="paint13_linear" x1="266.41" y1="69.5537" x2="280.116" y2="69.5537" gradientUnits="userSpaceOnUse">
<stop stop-color="#FFBEB6"/>
<stop offset="1" stop-color="#F2A19C"/>
</linearGradient>
<linearGradient id="paint14_linear" x1="289.121" y1="179.196" x2="237.852" y2="148.259" gradientUnits="userSpaceOnUse">
<stop stop-color="#FFBEB6"/>
<stop offset="1" stop-color="#F2A19C"/>
</linearGradient>
<linearGradient id="paint15_linear" x1="227.308" y1="53.1785" x2="289.304" y2="53.1785" gradientUnits="userSpaceOnUse">
<stop offset="0.1291" stop-color="#666666"/>
<stop offset="0.9987" stop-color="#3A3B3C"/>
</linearGradient>
<linearGradient id="paint16_linear" x1="334.625" y1="143.438" x2="333.659" y2="98.2369" gradientUnits="userSpaceOnUse">
<stop stop-color="#113148"/>
<stop offset="0.0713" stop-color="#133E5C"/>
<stop offset="0.6731" stop-color="#19517A"/>
<stop offset="1" stop-color="#151A4F"/>
</linearGradient>
<linearGradient id="paint17_linear" x1="336.715" y1="78.224" x2="332.911" y2="61.9029" gradientUnits="userSpaceOnUse">
<stop stop-color="#FFBEB6"/>
<stop offset="1" stop-color="#F2A19C"/>
</linearGradient>
<linearGradient id="paint18_linear" x1="342.26" y1="99.9951" x2="340.719" y2="59.7626" gradientUnits="userSpaceOnUse">
<stop stop-color="#19517A"/>
<stop offset="0.5746" stop-color="#3C3C3D"/>
<stop offset="1" stop-color="#16405E"/>
</linearGradient>
<linearGradient id="paint19_linear" x1="178.05" y1="418.595" x2="46.7918" y2="417.725" gradientUnits="userSpaceOnUse">
<stop offset="0.1291" stop-color="#666666"/>
<stop offset="0.9987" stop-color="#272727"/>
</linearGradient>
<linearGradient id="paint20_linear" x1="168.443" y1="204.208" x2="158.467" y2="161.404" gradientUnits="userSpaceOnUse">
<stop stop-color="#FFBEB6"/>
<stop offset="1" stop-color="#F2A19C"/>
</linearGradient>
<linearGradient id="paint21_linear" x1="130.381" y1="212.469" x2="67.6093" y2="158.703" gradientUnits="userSpaceOnUse">
<stop stop-color="#FFBEB6"/>
<stop offset="1" stop-color="#F2A19C"/>
</linearGradient>
<linearGradient id="paint22_linear" x1="66.5331" y1="166.412" x2="-0.371339" y2="136.99" gradientUnits="userSpaceOnUse">
<stop stop-color="#B8D3FC"/>
<stop offset="0.6955" stop-color="#81AEF2"/>
<stop offset="1" stop-color="#78A9EF"/>
</linearGradient>
<linearGradient id="paint23_linear" x1="89.2555" y1="63.829" x2="88.5057" y2="50.0772" gradientUnits="userSpaceOnUse">
<stop stop-color="#FFBEB6"/>
<stop offset="1" stop-color="#F29B94"/>
</linearGradient>
<linearGradient id="paint24_linear" x1="80.2066" y1="36.1921" x2="80.3448" y2="50.4492" gradientUnits="userSpaceOnUse">
<stop offset="0.1291" stop-color="#E45B5B"/>
<stop offset="0.9987" stop-color="#8F3838"/>
</linearGradient>
<linearGradient id="paint25_linear" x1="93.9843" y1="16.1978" x2="64.2052" y2="31.8668" gradientUnits="userSpaceOnUse">
<stop stop-color="#E45B5B"/>
<stop offset="0.9979" stop-color="#A23B3B"/>
</linearGradient>
</defs>
</svg>
