<svg width="540" height="472" viewBox="0 0 540 472" fill="none" xmlns="http://www.w3.org/2000/svg">
<path d="M447.071 138.276L439.312 146.475C438.093 139.02 434.95 132.012 430.192 126.145C422.952 116.815 424.582 112.115 428.302 107.595C432.022 103.065 432.602 105.105 433.422 108.905C434.252 112.705 435.892 117.645 437.592 118.725C439.282 119.805 439.782 115.915 442.242 114.875C444.692 113.835 445.092 115.445 444.252 116.235C442.466 118.058 440.852 120.044 439.432 122.165C437.942 124.475 437.682 124.945 440.462 129.215C442.47 132.372 444.678 135.398 447.071 138.276Z" fill="url(#paint0_linear)"/>
<path d="M402.287 471.467L424.225 243.14H430.519V240.14H421.5L399.273 471.467H402.287Z" fill="url(#paint1_linear)"/>
<path d="M460.195 471.467L430.432 243.14H496.417L536.394 471.467H539.44L499.154 241.381L498.936 240.14H427.016L457.17 471.467H460.195Z" fill="url(#paint2_linear)"/>
<path d="M505.532 295.22H437.222L436.832 292.22H505.002L505.532 295.22Z" fill="url(#paint3_linear)"/>
<path d="M510.631 324.35H441.011L440.621 321.35H510.101L510.631 324.35Z" fill="url(#paint4_linear)"/>
<path d="M515.75 353.59H444.83L444.43 350.59H515.22L515.75 353.59Z" fill="url(#paint5_linear)"/>
<path d="M520.85 382.72H448.62L448.23 379.72H520.32L520.85 382.72Z" fill="url(#paint6_linear)"/>
<path d="M500.412 266.01H433.242L432.852 263.01H499.892L500.412 266.01Z" fill="url(#paint7_linear)"/>
<path d="M525.973 411.97H452.433L452.043 408.97H525.453L525.973 411.97Z" fill="url(#paint8_linear)"/>
<path d="M531.07 441.1H456.23L455.84 438.1H530.55L531.07 441.1Z" fill="url(#paint9_linear)"/>
<path d="M471.263 136.013C471.263 136.013 474.591 140.157 467.523 144.225C460.455 148.293 458.542 147.504 453.424 142.223C448.306 136.942 447.511 135.494 447.511 135.494L428.562 155.563C428.562 155.563 430.903 163.285 438.222 165.404C445.541 167.523 447.746 168.748 450.584 171.598C453.422 174.448 460.442 180.08 472.417 177.791C490.753 174.286 490.086 142.446 477.399 129.291L492.76 120.367" fill="url(#paint10_linear)"/>
<path d="M439.743 0.0750122L270.984 88.326L450.065 190.51L439.743 0.0750122Z" fill="#E45B5B"/>
<path d="M0.402344 430.18C38.4763 477.553 107.745 485.092 155.118 447.018C196.441 413.806 208.211 355.853 183.117 309.152L0.402344 430.18Z" fill="url(#paint11_linear)"/>
<path d="M329.072 311.393C376.149 311.393 414.312 273.23 414.312 226.153C414.312 179.076 376.149 140.913 329.072 140.913C281.995 140.913 243.832 179.076 243.832 226.153C243.832 273.23 281.995 311.393 329.072 311.393Z" fill="url(#paint12_linear)"/>
<path d="M409.02 311.407H249.125V471.302H409.02V311.407Z" fill="url(#paint13_linear)"/>
<path d="M485.083 272.702L492.079 292.218L442.688 292.22C442.688 292.22 445.221 287.335 453.663 283.717C462.105 280.099 469.984 272.702 469.984 272.702H485.083Z" fill="url(#paint14_linear)"/>
<path d="M501.415 300.696L508.822 321.358L456.531 321.36C456.531 321.36 459.212 316.188 468.15 312.358C477.088 308.528 485.431 300.697 485.431 300.697L501.415 300.696Z" fill="#4690FF"/>
<path d="M463.311 169.581C463.311 169.581 455.987 191.391 452.083 201.87C448.078 212.62 446.97 218.435 453.534 233.082C458.714 244.641 469.988 272.703 469.988 272.703H483.681C484.869 266.128 484.509 259.366 482.628 252.954C479.468 242.948 477.098 244.264 476.308 236.892C475.518 229.52 467.355 224.516 472.622 212.403C477.889 200.29 486.627 202.168 495.292 168.841L463.311 169.581Z" fill="url(#paint15_linear)"/>
<path d="M501.422 300.696H485.436C485.436 300.696 460.682 245.104 459.521 233.798C458.371 222.497 459.293 209.023 460.91 197.929C461.106 196.588 462.18 179.852 462.402 178.559C466.978 178.239 471.57 178.189 476.152 178.408C476.944 178.428 485.503 178.353 487.805 178.153C490.153 178.142 492.358 178.015 494.383 177.819C494.351 183.427 493.249 190.911 489.803 200.543C480.559 226.41 487.497 230.104 490.497 237.933C493.502 245.751 495.119 250.538 494.43 257.932C493.736 265.326 497.197 263.365 499.052 272.933C500.897 282.493 501.422 300.696 501.422 300.696Z" fill="url(#paint16_linear)"/>
<path opacity="0.86" d="M476.548 193.6C476.56 193.54 476.521 193.483 476.462 193.471C476.402 193.459 476.345 193.498 476.333 193.557C476.321 193.616 476.36 193.674 476.419 193.686C476.478 193.699 476.536 193.66 476.548 193.6ZM477.092 190.971C477.107 190.916 477.073 190.859 477.018 190.844C477.014 190.843 477.01 190.842 477.006 190.842C476.946 190.828 476.886 190.864 476.871 190.923C476.862 190.985 476.902 191.043 476.963 191.057C477.022 191.069 477.08 191.03 477.092 190.971ZM467.171 187.159C467.136 187.111 467.069 187.1 467.02 187.134C466.97 187.16 466.951 187.223 466.977 187.273C466.979 187.277 466.982 187.281 466.985 187.285C467.02 187.337 467.089 187.35 467.141 187.316C467.193 187.281 467.206 187.212 467.172 187.16C467.172 187.16 467.172 187.159 467.171 187.159ZM482.148 192.149C482.136 192.091 482.08 192.053 482.021 192.064C481.963 192.076 481.925 192.132 481.936 192.191C481.947 192.25 482.004 192.287 482.063 192.276C482.119 192.268 482.158 192.216 482.15 192.16C482.149 192.156 482.149 192.153 482.148 192.149ZM472.018 190.081C471.966 190.045 471.895 190.058 471.859 190.11C471.823 190.162 471.836 190.233 471.888 190.269C471.94 190.305 472.011 190.292 472.047 190.24C472.083 190.188 472.07 190.117 472.018 190.081ZM488.282 202.243C488.255 202.131 488.143 202.062 488.031 202.088C488.029 202.089 488.026 202.089 488.024 202.09C487.914 202.118 487.847 202.231 487.876 202.341C487.876 202.342 487.876 202.342 487.876 202.343C487.903 202.455 488.015 202.524 488.127 202.498C488.129 202.497 488.132 202.497 488.134 202.496C488.244 202.468 488.311 202.355 488.282 202.245C488.283 202.244 488.283 202.243 488.282 202.243ZM486.992 197.307C486.964 197.197 486.851 197.13 486.741 197.159C486.74 197.159 486.74 197.159 486.739 197.159C486.625 197.188 486.557 197.304 486.586 197.417C486.615 197.53 486.731 197.599 486.844 197.57C486.956 197.536 487.021 197.42 486.992 197.307ZM468.231 204.124C468.131 204.065 468.002 204.098 467.941 204.197C467.883 204.293 467.913 204.417 468.009 204.476C468.012 204.478 468.016 204.48 468.019 204.482C468.119 204.541 468.248 204.508 468.309 204.409C468.366 204.309 468.331 204.181 468.231 204.124ZM470.801 199.721C470.701 199.664 470.574 199.699 470.517 199.799C470.457 199.899 470.49 200.029 470.59 200.089C470.69 200.149 470.82 200.116 470.88 200.016C470.934 199.912 470.9 199.784 470.801 199.721ZM473.377 195.323C473.273 195.268 473.145 195.302 473.082 195.401C473.024 195.497 473.054 195.621 473.15 195.68C473.153 195.682 473.157 195.684 473.16 195.686C473.257 195.747 473.385 195.717 473.446 195.62C473.447 195.618 473.449 195.616 473.45 195.614C473.509 195.512 473.477 195.383 473.377 195.323ZM475.943 190.925C475.843 190.868 475.716 190.903 475.659 191.003C475.6 191.104 475.633 191.233 475.734 191.292C475.835 191.351 475.964 191.318 476.023 191.217C476.082 191.116 476.049 190.987 475.948 190.928C475.946 190.927 475.945 190.926 475.943 190.925ZM479.354 205.579C479.373 205.462 479.294 205.352 479.177 205.333C479.06 205.314 478.95 205.393 478.931 205.509C478.912 205.626 478.991 205.736 479.107 205.755C479.108 205.755 479.11 205.755 479.111 205.756C479.228 205.772 479.335 205.693 479.354 205.579ZM480.048 200.53C480.067 200.413 479.988 200.303 479.872 200.284C479.755 200.265 479.645 200.344 479.626 200.46C479.607 200.577 479.686 200.687 479.802 200.706C479.803 200.706 479.805 200.706 479.806 200.707C479.921 200.724 480.029 200.645 480.048 200.53ZM480.741 195.482C480.752 195.365 480.67 195.259 480.553 195.24C480.435 195.227 480.329 195.311 480.316 195.429C480.303 195.542 480.381 195.646 480.494 195.664C480.612 195.678 480.72 195.599 480.741 195.482ZM462.397 195.718C462.331 195.628 462.205 195.608 462.115 195.674C462.111 195.677 462.106 195.681 462.102 195.684C462.011 195.752 461.993 195.881 462.061 195.972C462.061 195.973 462.062 195.973 462.062 195.974C462.132 196.067 462.263 196.087 462.358 196.018C462.447 195.943 462.464 195.813 462.397 195.718ZM466.456 192.645C466.388 192.551 466.257 192.53 466.164 192.598C466.163 192.599 466.162 192.6 466.161 192.6C466.068 192.67 466.048 192.801 466.117 192.896C466.192 192.985 466.322 193.002 466.418 192.935C466.509 192.867 466.527 192.738 466.459 192.647C466.458 192.647 466.457 192.646 466.456 192.645ZM470.515 189.562C470.445 189.469 470.314 189.449 470.219 189.518C470.126 189.586 470.106 189.717 470.174 189.81C470.176 189.813 470.178 189.816 470.181 189.818C470.246 189.908 470.373 189.929 470.463 189.863C470.466 189.861 470.468 189.859 470.471 189.857C470.564 189.788 470.584 189.656 470.515 189.562ZM484.273 206.124C484.277 206.021 484.196 205.934 484.093 205.93C483.99 205.926 483.903 206.007 483.899 206.11C483.895 206.213 483.976 206.3 484.079 206.304C484.182 206.307 484.269 206.227 484.273 206.124ZM484.457 201.58C484.461 201.477 484.38 201.39 484.277 201.386C484.174 201.382 484.087 201.463 484.083 201.566C484.079 201.669 484.16 201.756 484.263 201.76C484.364 201.766 484.451 201.689 484.457 201.588C484.457 201.586 484.457 201.583 484.457 201.58ZM484.647 197.031C484.654 196.996 484.646 196.96 484.626 196.931L484.62 196.926C484.587 196.873 484.529 196.84 484.466 196.837C484.36 196.833 484.271 196.915 484.267 197.021C484.267 197.022 484.267 197.022 484.267 197.023C484.264 197.126 484.344 197.212 484.447 197.217C484.494 197.22 484.54 197.203 484.573 197.168C484.62 197.138 484.648 197.087 484.647 197.031ZM466.858 197.944C466.788 197.868 466.669 197.863 466.593 197.933C466.592 197.934 466.591 197.935 466.59 197.935C466.514 198 466.505 198.115 466.571 198.191C466.573 198.193 466.575 198.195 466.576 198.197C466.649 198.273 466.769 198.279 466.849 198.21C466.922 198.138 466.926 198.022 466.858 197.944ZM470.202 194.864C470.132 194.788 470.013 194.783 469.937 194.853C469.936 194.854 469.935 194.855 469.934 194.855C469.858 194.92 469.849 195.035 469.915 195.111C469.917 195.113 469.919 195.115 469.92 195.117C469.989 195.193 470.106 195.199 470.182 195.131C470.261 195.062 470.269 194.943 470.202 194.864ZM473.547 191.783C473.477 191.707 473.358 191.702 473.282 191.772C473.281 191.773 473.28 191.774 473.279 191.774C473.203 191.836 473.192 191.947 473.253 192.023C473.257 192.028 473.261 192.032 473.265 192.036C473.335 192.112 473.454 192.117 473.53 192.047C473.531 192.046 473.532 192.045 473.533 192.045C473.607 191.976 473.613 191.86 473.547 191.783ZM490.335 193.88C490.295 193.785 490.188 193.736 490.09 193.769C489.992 193.807 489.942 193.916 489.979 194.014C490.02 194.111 490.131 194.157 490.228 194.116C490.32 194.078 490.367 193.974 490.335 193.88ZM475.978 201.742C475.882 201.704 475.772 201.746 475.727 201.84C475.685 201.933 475.726 202.044 475.819 202.086C475.913 202.13 476.025 202.092 476.071 201.999C476.115 201.902 476.074 201.788 475.978 201.742ZM477.89 197.616C477.794 197.577 477.684 197.62 477.639 197.714C477.597 197.807 477.638 197.918 477.731 197.96C477.82 198.004 477.928 197.968 477.973 197.878C477.975 197.875 477.976 197.871 477.978 197.868C478.021 197.774 477.983 197.662 477.89 197.616ZM479.797 193.496C479.708 193.452 479.6 193.488 479.555 193.578C479.553 193.581 479.552 193.585 479.55 193.588C479.507 193.681 479.549 193.792 479.642 193.834C479.735 193.877 479.846 193.835 479.888 193.742C479.932 193.653 479.896 193.545 479.806 193.5C479.804 193.499 479.8 193.497 479.797 193.496ZM464.18 189.155C464.144 189.058 464.038 189.007 463.94 189.039C463.843 189.074 463.792 189.181 463.827 189.278C463.828 189.28 463.829 189.282 463.829 189.284C463.859 189.378 463.959 189.429 464.053 189.399C464.057 189.398 464.06 189.397 464.064 189.395C464.161 189.364 464.215 189.26 464.183 189.163C464.182 189.161 464.181 189.158 464.18 189.155ZM468.445 187.582C468.404 187.485 468.292 187.44 468.195 187.48C468.103 187.519 468.057 187.622 468.088 187.716C468.127 187.813 468.235 187.862 468.333 187.827C468.43 187.794 468.481 187.689 468.448 187.592C468.448 187.589 468.447 187.586 468.445 187.582ZM490.286 196.704C490.277 196.643 490.22 196.6 490.159 196.609C490.098 196.618 490.055 196.675 490.064 196.736C490.073 196.797 490.13 196.84 490.191 196.831C490.251 196.821 490.293 196.765 490.286 196.704ZM489.879 194.057C489.87 193.996 489.813 193.953 489.752 193.962C489.691 193.971 489.648 194.028 489.657 194.089C489.666 194.15 489.723 194.193 489.784 194.184C489.845 194.173 489.886 194.117 489.879 194.057ZM479.274 193.937C479.225 193.901 479.156 193.912 479.12 193.96C479.084 194.009 479.095 194.078 479.143 194.114C479.191 194.15 479.261 194.139 479.297 194.091C479.333 194.042 479.323 193.973 479.274 193.937ZM480.86 191.774C480.814 191.738 480.748 191.745 480.711 191.791C480.709 191.793 480.708 191.795 480.706 191.798C480.67 191.847 480.68 191.916 480.729 191.951C480.778 191.988 480.849 191.98 480.888 191.933C480.924 191.882 480.912 191.812 480.861 191.776C480.861 191.775 480.861 191.775 480.86 191.774ZM484.986 195.111C485.003 195.055 484.971 194.996 484.915 194.979C484.912 194.978 484.908 194.977 484.905 194.976C484.847 194.96 484.788 194.994 484.772 195.051C484.771 195.053 484.771 195.055 484.77 195.057C484.76 195.116 484.794 195.173 484.851 195.192C484.91 195.206 484.971 195.17 484.986 195.111ZM490.402 199.984C490.406 199.917 490.354 199.86 490.288 199.857C490.287 199.857 490.285 199.857 490.284 199.857C490.216 199.852 490.157 199.903 490.152 199.971C490.152 199.974 490.152 199.977 490.152 199.981C490.148 200.048 490.2 200.105 490.266 200.108C490.267 200.108 490.269 200.108 490.27 200.108C490.34 200.11 490.399 200.055 490.402 199.984ZM490.494 196.923C490.498 196.856 490.446 196.799 490.38 196.796C490.379 196.796 490.377 196.796 490.376 196.796C490.305 196.794 490.246 196.85 490.245 196.921C490.243 196.991 490.298 197.049 490.367 197.052C490.435 197.054 490.492 197.001 490.494 196.933C490.494 196.93 490.494 196.927 490.494 196.923ZM490.59 193.867C490.592 193.796 490.537 193.737 490.466 193.734C490.395 193.732 490.336 193.787 490.333 193.858C490.328 193.864 490.333 193.869 490.334 193.879C490.345 193.94 490.395 193.986 490.457 193.99C490.528 193.993 490.587 193.938 490.59 193.867ZM478.618 194.604C478.566 194.558 478.489 194.557 478.437 194.602C478.387 194.649 478.383 194.727 478.43 194.778C478.471 194.829 478.545 194.836 478.596 194.795C478.6 194.792 478.603 194.789 478.607 194.785C478.659 194.74 478.665 194.658 478.618 194.604C478.619 194.604 478.619 194.604 478.618 194.604ZM480.847 192.506C480.795 192.46 480.718 192.459 480.666 192.504C480.616 192.551 480.612 192.629 480.659 192.68C480.705 192.734 480.787 192.74 480.84 192.693C480.84 192.693 480.84 192.693 480.841 192.692C480.89 192.641 480.893 192.561 480.847 192.506ZM484.687 197.099C484.717 197.037 484.691 196.963 484.63 196.933C484.629 196.932 484.627 196.932 484.626 196.931L484.62 196.926C484.557 196.903 484.486 196.932 484.458 196.993C484.428 197.055 484.454 197.129 484.516 197.159C484.517 197.16 484.519 197.16 484.52 197.161C484.537 197.167 484.555 197.17 484.574 197.169C484.622 197.172 484.668 197.144 484.687 197.099ZM485.882 194.133C485.816 194.108 485.741 194.137 485.709 194.2C485.686 194.266 485.717 194.339 485.781 194.367C485.843 194.394 485.916 194.365 485.942 194.302C485.942 194.301 485.942 194.301 485.943 194.3C485.973 194.238 485.945 194.163 485.882 194.133ZM481.327 210.054C481.218 210.002 481.088 210.046 481.033 210.154C480.983 210.263 481.03 210.391 481.138 210.442C481.247 210.492 481.376 210.449 481.432 210.342C481.482 210.234 481.435 210.105 481.327 210.054ZM483.577 205.309C483.468 205.258 483.339 205.305 483.289 205.414C483.238 205.523 483.285 205.652 483.394 205.702C483.503 205.753 483.632 205.706 483.682 205.597C483.732 205.489 483.685 205.36 483.577 205.309ZM485.832 200.569C485.726 200.514 485.596 200.556 485.541 200.662C485.486 200.768 485.528 200.898 485.634 200.953C485.637 200.954 485.64 200.956 485.643 200.957C485.752 201.009 485.882 200.965 485.937 200.857C485.987 200.749 485.941 200.62 485.832 200.569ZM488.082 195.824C487.975 195.773 487.847 195.818 487.796 195.924C487.795 195.925 487.795 195.927 487.794 195.928C487.743 196.037 487.79 196.166 487.899 196.216C488.008 196.267 488.137 196.22 488.187 196.111C488.238 196.004 488.193 195.876 488.087 195.825C488.085 195.825 488.084 195.825 488.082 195.824ZM466.623 193.773C466.581 193.66 466.454 193.602 466.341 193.644C466.231 193.685 466.173 193.804 466.208 193.916C466.252 194.029 466.376 194.089 466.492 194.052C466.604 194.009 466.661 193.886 466.623 193.773ZM471.568 192.013C471.528 191.9 471.404 191.84 471.291 191.88C471.178 191.92 471.118 192.044 471.158 192.157C471.158 192.158 471.159 192.159 471.159 192.16C471.199 192.273 471.323 192.333 471.436 192.293C471.549 192.253 471.609 192.129 471.569 192.016C471.569 192.015 471.568 192.014 471.568 192.013ZM476.513 190.252C476.477 190.14 476.357 190.078 476.245 190.114C476.243 190.115 476.241 190.115 476.24 190.116C476.127 190.16 476.067 190.284 476.104 190.4C476.146 190.512 476.27 190.57 476.382 190.53C476.494 190.492 476.553 190.37 476.515 190.259C476.515 190.257 476.514 190.254 476.513 190.252ZM474.438 201.993C474.359 201.906 474.224 201.899 474.137 201.978C474.136 201.979 474.135 201.98 474.134 201.981C474.045 202.06 474.035 202.195 474.111 202.286C474.195 202.371 474.329 202.378 474.421 202.303C474.511 202.222 474.519 202.083 474.438 201.993ZM478.332 198.475C478.257 198.388 478.125 198.378 478.038 198.454C478.034 198.457 478.031 198.46 478.028 198.464C477.94 198.542 477.933 198.676 478.01 198.763C478.091 198.853 478.23 198.861 478.32 198.78C478.407 198.705 478.417 198.573 478.342 198.486C478.338 198.482 478.335 198.478 478.332 198.475ZM482.231 194.951C482.148 194.863 482.009 194.86 481.921 194.943C481.835 195.025 481.83 195.161 481.91 195.249C481.989 195.336 482.124 195.343 482.211 195.264C482.212 195.263 482.213 195.262 482.214 195.261C482.304 195.181 482.312 195.042 482.231 194.951ZM476.103 205.182C476.019 205.095 475.881 205.092 475.794 205.176C475.707 205.26 475.704 205.398 475.788 205.485C475.872 205.572 476.01 205.575 476.097 205.491C476.184 205.408 476.186 205.269 476.103 205.182ZM479.835 201.517C479.746 201.434 479.609 201.434 479.52 201.516C479.44 201.601 479.439 201.734 479.519 201.82C479.603 201.907 479.741 201.91 479.829 201.826C479.913 201.742 479.915 201.605 479.835 201.517ZM483.556 197.853C483.472 197.769 483.336 197.768 483.252 197.852C483.168 197.936 483.167 198.072 483.251 198.156C483.335 198.243 483.473 198.246 483.561 198.162C483.642 198.074 483.64 197.938 483.556 197.853ZM487.288 194.188C487.206 194.104 487.072 194.102 486.988 194.183C486.987 194.184 486.986 194.185 486.984 194.187C486.901 194.271 486.9 194.406 486.983 194.491C487.061 194.575 487.193 194.58 487.277 194.502C487.28 194.499 487.284 194.496 487.287 194.492C487.371 194.41 487.374 194.276 487.292 194.192C487.291 194.19 487.289 194.189 487.288 194.188ZM488.656 204.118C488.545 204.072 488.417 204.123 488.368 204.233C488.324 204.344 488.378 204.47 488.488 204.515C488.596 204.563 488.722 204.515 488.77 204.407C488.77 204.406 488.77 204.406 488.771 204.405C488.816 204.295 488.765 204.168 488.656 204.118ZM472.583 194.887C472.54 194.779 472.417 194.726 472.309 194.769C472.306 194.77 472.303 194.771 472.3 194.773C472.19 194.817 472.137 194.941 472.18 195.051C472.225 195.163 472.351 195.219 472.464 195.176C472.576 195.132 472.63 195.006 472.586 194.894C472.585 194.891 472.584 194.889 472.583 194.887ZM477.433 192.928C477.39 192.82 477.267 192.767 477.159 192.81C477.156 192.811 477.153 192.812 477.15 192.814C477.04 192.858 476.987 192.982 477.03 193.092C477.075 193.204 477.201 193.26 477.313 193.217C477.425 193.173 477.479 193.047 477.435 192.935C477.434 192.932 477.434 192.93 477.433 192.928ZM481.145 197.751C481.103 197.675 481.008 197.648 480.933 197.689C480.928 197.692 480.923 197.695 480.919 197.698C480.843 197.746 480.82 197.847 480.868 197.924C480.916 198.001 481.017 198.023 481.094 197.975C481.169 197.927 481.192 197.828 481.145 197.751ZM484.472 195.632C484.426 195.555 484.327 195.53 484.25 195.576C484.248 195.577 484.247 195.578 484.245 195.579C484.168 195.627 484.144 195.728 484.192 195.806C484.24 195.884 484.341 195.907 484.419 195.859C484.496 195.81 484.52 195.709 484.472 195.632ZM487.799 193.512C487.751 193.435 487.65 193.411 487.572 193.459C487.495 193.507 487.471 193.608 487.519 193.686C487.567 193.763 487.668 193.787 487.746 193.739C487.822 193.69 487.846 193.59 487.799 193.512ZM488.186 202.135C488.113 202.082 488.012 202.099 487.959 202.171L487.958 202.172C487.91 202.246 487.926 202.345 487.996 202.4C488.07 202.451 488.17 202.434 488.224 202.362C488.277 202.293 488.265 202.194 488.196 202.141C488.193 202.14 488.19 202.137 488.186 202.135ZM490.446 198.905C490.375 198.855 490.277 198.872 490.227 198.943C490.226 198.945 490.225 198.946 490.224 198.948C490.172 199.021 490.188 199.122 490.26 199.175L490.261 199.176C490.338 199.225 490.439 199.206 490.494 199.133C490.544 199.058 490.523 198.957 490.448 198.907C490.447 198.906 490.447 198.905 490.446 198.905ZM489.98 196.996C489.951 196.926 489.871 196.892 489.801 196.92C489.797 196.921 489.794 196.923 489.79 196.925C489.72 196.95 489.683 197.027 489.708 197.097C489.71 197.102 489.711 197.106 489.714 197.11C489.744 197.185 489.829 197.222 489.905 197.191C489.979 197.162 490.014 197.078 489.985 197.005C489.983 197.002 489.981 196.999 489.98 196.996Z" fill="white"/>
<path d="M469.059 123.571C469.396 127.812 468.955 132.079 467.758 136.161C467.758 136.161 472.61 130.551 474.933 129.273L476.296 123.034L468.919 123.15L469.059 123.571Z" fill="url(#paint17_linear)"/>
<path d="M478.92 120.79C477.54 121.06 476 122.53 475.19 124.61C474.22 124.63 473.55 124.6 473.55 124.6C459.26 123.24 462.49 110.26 462.49 110.26C461.22 107.16 461.3 106.41 464.85 106.35C467.5 106.31 471.92 102.69 471.92 102.69C472.022 102.604 472.137 102.533 472.26 102.48C472.338 105.427 472.93 108.337 474.01 111.08C476.06 116.09 477.18 116.6 479.02 116.5C480.86 116.39 482.08 120.18 478.92 120.79Z" fill="#FFBEB6"/>
<path d="M499.711 192.47C499.711 192.47 481.441 201.1 457.711 174.99L467.771 136.14C468.061 135.81 472.681 130.51 474.931 129.27L475.011 128.92C475.691 128.32 476.401 127.67 477.141 126.99C483.355 132.013 488.453 138.276 492.111 145.38C498.331 157.34 496.131 161.39 499.461 168.41C502.791 175.43 507.501 184.12 499.711 192.47Z" fill="url(#paint18_linear)"/>
<path d="M435.7 141.041L427.941 149.24C426.722 141.785 423.579 134.777 418.821 128.91C411.581 119.58 413.211 114.88 416.931 110.36C420.651 105.83 421.231 107.87 422.051 111.67C422.881 115.47 424.521 120.41 426.221 121.49C427.911 122.57 428.411 118.68 430.871 117.64C433.321 116.6 433.721 118.21 432.881 119C431.095 120.823 429.481 122.809 428.061 124.93C426.571 127.24 426.311 127.71 429.091 131.98C431.1 135.137 433.307 138.164 435.7 141.041Z" fill="url(#paint19_linear)"/>
<path d="M462.212 181.62C450.232 183.91 443.212 178.28 440.372 175.43C437.532 172.58 435.332 171.35 428.012 169.23C420.692 167.11 418.352 159.39 418.352 159.39L437.302 139.32C437.302 139.32 438.092 140.77 443.212 146.05C448.332 151.33 450.242 152.12 457.312 148.05C464.382 143.99 467.762 136.16 467.762 136.16C467.763 136.152 467.766 136.145 467.772 136.14L467.812 136.1L471.902 131.72C471.917 131.712 471.931 131.702 471.942 131.69C472.858 130.788 473.86 129.979 474.935 129.274L474.812 128.61L481.282 121.69V121.99C493.962 135.15 480.542 178.12 462.212 181.62Z" fill="url(#paint20_linear)"/>
<path d="M494.849 112.633C498.539 112.633 501.53 109.642 501.53 105.952C501.53 102.262 498.539 99.271 494.849 99.271C491.159 99.271 488.168 102.262 488.168 105.952C488.168 109.642 491.159 112.633 494.849 112.633Z" fill="url(#paint21_linear)"/>
<path d="M464.965 114.272C463.767 115.037 462.175 114.687 461.409 113.488C461.132 113.054 460.991 112.547 461.005 112.032C461.013 111.64 461.626 111.579 461.618 111.976C461.548 113.056 462.366 113.989 463.447 114.06C463.854 114.087 464.26 113.985 464.607 113.77C464.945 113.569 465.306 114.068 464.965 114.272Z" fill="#1C2868"/>
<path d="M506.057 134.734C503.721 131.827 499.875 130.834 497.161 128.538C496.542 127.951 495.972 127.314 495.458 126.634C495.376 126.508 495.289 126.389 495.213 126.256C495.206 126.243 495.193 126.245 495.184 126.234C493.548 123.763 493.697 121.469 493.635 116.906C493.602 115.623 493.369 114.352 492.946 113.14C495.73 114.112 498.822 113.509 501.037 111.564C501.284 111.357 500.93 111.005 500.684 111.21C498.497 113.127 495.41 113.637 492.722 112.525C489.516 104.322 480.934 99.555 472.276 101.168C472.181 104.555 472.772 107.927 474.013 111.08C476.057 116.087 477.181 116.598 479.02 116.496C480.859 116.394 482.085 120.175 478.917 120.788C476.866 121.185 474.477 124.238 474.625 128.005C474.618 128.181 474.598 128.35 474.601 128.53C474.721 134.527 483.281 141.354 477.075 146.717C476.831 146.928 477.186 147.28 477.429 147.071C479.391 145.435 480.229 142.811 479.58 140.34C479.019 138.144 478.208 136.02 477.164 134.009C477.301 134.167 477.439 134.325 477.588 134.482C480.984 137.936 481.989 143.084 480.143 147.562C480.143 147.562 495.778 152.058 506.304 145.007C506.304 145.007 509.37 138.262 501.297 132.029C500.582 131.477 499.957 130.975 499.37 130.492C500.305 131 501.276 131.493 502.232 132.09C506.422 134.67 508.84 139.358 508.51 144.267C508.494 144.589 508.994 144.588 509.01 144.267C509.246 140.834 508.193 137.434 506.057 134.734Z" fill="#666666"/>
<defs>
<linearGradient id="paint0_linear" x1="442.18" y1="131.015" x2="457.668" y2="149.758" gradientUnits="userSpaceOnUse">
<stop stop-color="#FFBEB6"/>
<stop offset="1" stop-color="#F2A19C"/>
</linearGradient>
<linearGradient id="paint1_linear" x1="398.954" y1="355.803" x2="430.519" y2="355.803" gradientUnits="userSpaceOnUse">
<stop offset="0.0898" stop-color="#EEEEEE"/>
<stop offset="0.8178" stop-color="#D6D7D8"/>
</linearGradient>
<linearGradient id="paint2_linear" x1="427.016" y1="355.803" x2="539.69" y2="355.803" gradientUnits="userSpaceOnUse">
<stop offset="0.0898" stop-color="#EEEEEE"/>
<stop offset="0.8178" stop-color="#D6D7D8"/>
</linearGradient>
<linearGradient id="paint3_linear" x1="436.832" y1="293.72" x2="505.532" y2="293.72" gradientUnits="userSpaceOnUse">
<stop offset="0.0898" stop-color="#EEEEEE"/>
<stop offset="0.8178" stop-color="#D6D7D8"/>
</linearGradient>
<linearGradient id="paint4_linear" x1="440.621" y1="322.85" x2="510.631" y2="322.85" gradientUnits="userSpaceOnUse">
<stop offset="0.0898" stop-color="#EEEEEE"/>
<stop offset="0.8178" stop-color="#D6D7D8"/>
</linearGradient>
<linearGradient id="paint5_linear" x1="444.43" y1="352.09" x2="515.75" y2="352.09" gradientUnits="userSpaceOnUse">
<stop offset="0.0898" stop-color="#EEEEEE"/>
<stop offset="0.8178" stop-color="#D6D7D8"/>
</linearGradient>
<linearGradient id="paint6_linear" x1="448.23" y1="381.22" x2="520.85" y2="381.22" gradientUnits="userSpaceOnUse">
<stop offset="0.0898" stop-color="#EEEEEE"/>
<stop offset="0.8178" stop-color="#D6D7D8"/>
</linearGradient>
<linearGradient id="paint7_linear" x1="432.852" y1="264.51" x2="500.412" y2="264.51" gradientUnits="userSpaceOnUse">
<stop offset="0.0898" stop-color="#EEEEEE"/>
<stop offset="0.8178" stop-color="#D6D7D8"/>
</linearGradient>
<linearGradient id="paint8_linear" x1="452.043" y1="410.47" x2="525.973" y2="410.47" gradientUnits="userSpaceOnUse">
<stop offset="0.0898" stop-color="#EEEEEE"/>
<stop offset="0.8178" stop-color="#D6D7D8"/>
</linearGradient>
<linearGradient id="paint9_linear" x1="455.84" y1="439.6" x2="531.07" y2="439.6" gradientUnits="userSpaceOnUse">
<stop offset="0.0898" stop-color="#EEEEEE"/>
<stop offset="0.8178" stop-color="#D6D7D8"/>
</linearGradient>
<linearGradient id="paint10_linear" x1="467.002" y1="160.772" x2="431.623" y2="127.789" gradientUnits="userSpaceOnUse">
<stop stop-color="#B8D3FC"/>
<stop offset="0.6955" stop-color="#81AEF2"/>
<stop offset="1" stop-color="#78A9EF"/>
</linearGradient>
<linearGradient id="paint11_linear" x1="117.659" y1="422.185" x2="18.4561" y2="321.34" gradientUnits="userSpaceOnUse">
<stop stop-color="#B8D3FC"/>
<stop offset="0.6955" stop-color="#81AEF2"/>
<stop offset="1" stop-color="#78A9EF"/>
</linearGradient>
<linearGradient id="paint12_linear" x1="337.438" y1="185.356" x2="289.689" y2="418.222" gradientUnits="userSpaceOnUse">
<stop offset="0.0898" stop-color="#EEEEEE"/>
<stop offset="0.8178" stop-color="#D6D7D8"/>
</linearGradient>
<linearGradient id="paint13_linear" x1="307.071" y1="332.136" x2="390.664" y2="557.133" gradientUnits="userSpaceOnUse">
<stop stop-color="#19517A"/>
<stop offset="1" stop-color="#143D5A"/>
</linearGradient>
<linearGradient id="paint14_linear" x1="446.656" y1="271.896" x2="473.222" y2="288.186" gradientUnits="userSpaceOnUse">
<stop offset="0.1291" stop-color="#4690FF"/>
<stop offset="0.9987" stop-color="#2E69C0"/>
</linearGradient>
<linearGradient id="paint15_linear" x1="413.659" y1="225.39" x2="462.99" y2="221.888" gradientUnits="userSpaceOnUse">
<stop stop-color="#23286B"/>
<stop offset="1" stop-color="#151A4F"/>
</linearGradient>
<linearGradient id="paint16_linear" x1="459.008" y1="239.257" x2="501.422" y2="239.257" gradientUnits="userSpaceOnUse">
<stop stop-color="#23286B"/>
<stop offset="1" stop-color="#151A4F"/>
</linearGradient>
<linearGradient id="paint17_linear" x1="470.787" y1="137.666" x2="472.988" y2="120.057" gradientUnits="userSpaceOnUse">
<stop stop-color="#FFBEB6"/>
<stop offset="1" stop-color="#F2A19C"/>
</linearGradient>
<linearGradient id="paint18_linear" x1="485.396" y1="173.591" x2="449.825" y2="152.883" gradientUnits="userSpaceOnUse">
<stop stop-color="#B8D3FC"/>
<stop offset="0.6955" stop-color="#81AEF2"/>
<stop offset="1" stop-color="#78A9EF"/>
</linearGradient>
<linearGradient id="paint19_linear" x1="430.81" y1="133.781" x2="446.298" y2="152.524" gradientUnits="userSpaceOnUse">
<stop stop-color="#FFBEB6"/>
<stop offset="1" stop-color="#F2A19C"/>
</linearGradient>
<linearGradient id="paint20_linear" x1="459.014" y1="163.842" x2="422.073" y2="128.921" gradientUnits="userSpaceOnUse">
<stop stop-color="#B8D3FC"/>
<stop offset="0.6955" stop-color="#81AEF2"/>
<stop offset="1" stop-color="#78A9EF"/>
</linearGradient>
<linearGradient id="paint21_linear" x1="501.28" y1="98.7639" x2="482.509" y2="119.744" gradientUnits="userSpaceOnUse">
<stop stop-color="#666666"/>
<stop offset="1" stop-color="#2C2C2C"/>
</linearGradient>
</defs>
</svg>
