<svg width="213" height="40" viewBox="0 0 213 40" fill="none" xmlns="http://www.w3.org/2000/svg">
<mask id="mask0" mask-type="alpha" maskUnits="userSpaceOnUse" x="171" y="1" width="41" height="39">
<path fill-rule="evenodd" clip-rule="evenodd" d="M177.562 3.61969C175.49 3.61969 173.803 5.19601 173.803 7.13369V19.9464C173.803 29.2104 181.737 36.7718 191.489 36.8022H191.551C196.293 36.8022 200.746 35.078 204.1 31.9431C207.468 28.7946 209.314 24.608 209.297 20.1544C209.265 11.0372 201.177 3.61969 191.267 3.61969H177.562ZM191.458 39.0727H191.387C180.249 39.0383 171.188 30.4192 171.188 19.8597V7.07263C171.188 3.82045 174.018 1.1748 177.497 1.1748H191.174C202.469 1.1748 211.689 9.64615 211.726 20.0592C211.744 25.1452 209.636 29.9271 205.79 33.5228C201.96 37.1033 196.872 39.0727 191.458 39.0727ZM180.874 26.1489C180.207 26.1489 179.644 25.666 179.597 25.0354C179.548 24.3754 180.08 23.8037 180.786 23.7575C188.545 23.2514 194.803 17.4007 195.344 10.1477C195.392 9.48804 196.011 8.99155 196.71 9.03649C197.416 9.08231 197.948 9.65435 197.899 10.3137C197.27 18.7512 189.99 25.5574 180.964 26.1459C180.934 26.1476 180.904 26.1489 180.874 26.1489ZM179.572 20.5605C178.862 20.5605 178.287 20.0223 178.287 19.3585C178.287 18.6948 178.862 18.1566 179.572 18.1566C184.965 18.1566 189.353 14.0551 189.353 9.01333C189.353 8.34959 189.928 7.8114 190.638 7.8114C191.348 7.8114 191.924 8.34959 191.924 9.01333C191.924 15.3805 186.383 20.5605 179.572 20.5605ZM179.579 15.1465C178.865 15.1465 178.287 14.6056 178.287 13.9384C178.287 13.2713 178.865 12.7304 179.579 12.7304C181.768 12.7304 183.548 11.0658 183.548 9.01944C183.548 8.35232 184.127 7.8114 184.841 7.8114C185.554 7.8114 186.133 8.35232 186.133 9.01944C186.133 12.3979 183.192 15.1465 179.579 15.1465Z" fill="white"/>
</mask>
<g mask="url(#mask0)">
<rect x="171" y="1" width="41.0989" height="38.4219" fill="white"/>
</g>
<path d="M1.43466 27H7.32244C10.6534 27 12.2869 25.3026 12.2869 23.0369C12.2869 20.8352 10.7244 19.5426 9.17614 19.4645V19.3224C10.5966 18.9886 11.7188 17.9943 11.7188 16.2259C11.7188 14.0597 10.1562 12.4545 7.00284 12.4545H1.43466V27ZM4.0696 24.7983V20.5369H6.97443C8.60085 20.5369 9.60938 21.5312 9.60938 22.831C9.60938 23.9886 8.81392 24.7983 6.90341 24.7983H4.0696ZM4.0696 18.6406V14.6278H6.73295C8.28125 14.6278 9.08381 15.4446 9.08381 16.5668C9.08381 17.8452 8.04688 18.6406 6.67614 18.6406H4.0696ZM21.4187 22.4119C21.4187 24.0739 20.2326 24.8977 19.0962 24.8977C17.8604 24.8977 17.0366 24.0241 17.0366 22.6392V16.0909H14.4656V23.0369C14.4656 25.6577 15.957 27.142 18.1019 27.142C19.7354 27.142 20.886 26.2827 21.3832 25.0611H21.4968V27H23.9897V16.0909H21.4187V22.4119ZM18.2582 14.6562H20.1829L22.3633 11.4105H19.8491L18.2582 14.6562ZM29.2045 20.608C29.2045 19.0312 30.1562 18.1222 31.5128 18.1222C32.8409 18.1222 33.6364 18.9957 33.6364 20.4517V27H36.2074V20.054C36.2145 17.4403 34.723 15.9489 32.4716 15.9489C30.8381 15.9489 29.7159 16.7301 29.2188 17.9446H29.0909V16.0909H26.6335V27H29.2045V20.608ZM41.9602 27.2202C43.6719 27.2202 44.6946 26.4176 45.1634 25.5014H45.2486V27H47.7202V19.6989C47.7202 16.8153 45.3693 15.9489 43.2884 15.9489C40.9943 15.9489 39.233 16.9716 38.6648 18.9602L41.0653 19.3011C41.321 18.5554 42.0455 17.9162 43.3026 17.9162C44.4957 17.9162 45.1491 18.527 45.1491 19.5994V19.642C45.1491 20.3807 44.375 20.4162 42.4503 20.6222C40.3338 20.8494 38.3097 21.4815 38.3097 23.9389C38.3097 26.0838 39.8793 27.2202 41.9602 27.2202ZM42.6278 25.331C41.5554 25.331 40.7884 24.8409 40.7884 23.8963C40.7884 22.9091 41.6477 22.4972 42.7983 22.3338C43.473 22.2415 44.8224 22.071 45.1562 21.8011V23.0866C45.1562 24.3011 44.1761 25.331 42.6278 25.331ZM58.1747 13.4915L57.4645 12.1278L55.3622 13.179C54.5597 12.5185 53.7074 11.9716 52.8693 11.5455L51.733 13.2074C52.3438 13.5341 52.8764 13.8608 53.3523 14.1875L51.4631 15.1321L52.1733 16.5028L54.6733 15.2457C55.6108 16.1335 56.2074 17.0355 56.6832 17.9943H56.5412C55.9872 17.2557 54.9574 16.7585 53.7145 16.8509C51.6903 17.071 49.858 18.9957 49.858 22C49.858 25.0398 51.7543 27.2273 54.723 27.2273C57.6491 27.2273 59.5952 25.1818 59.5952 21.6591C59.5952 18.6406 58.3026 16.1548 56.5625 14.3011L58.1747 13.4915ZM54.8011 25.1534C53.1605 25.1534 52.3438 23.8963 52.3438 21.9858C52.3438 20.0114 53.2315 18.804 54.8011 18.804C56.456 18.804 57.294 20.1392 57.294 22.0355C57.294 23.9744 56.3991 25.1534 54.8011 25.1534ZM64.929 27.2202C66.6406 27.2202 67.6634 26.4176 68.1321 25.5014H68.2173V27H70.6889V19.6989C70.6889 16.8153 68.3381 15.9489 66.2571 15.9489C63.9631 15.9489 62.2017 16.9716 61.6335 18.9602L64.0341 19.3011C64.2898 18.5554 65.0142 17.9162 66.2713 17.9162C67.4645 17.9162 68.1179 18.527 68.1179 19.5994V19.642C68.1179 20.3807 67.3438 20.4162 65.419 20.6222C63.3026 20.8494 61.2784 21.4815 61.2784 23.9389C61.2784 26.0838 62.848 27.2202 64.929 27.2202ZM65.5966 25.331C64.5241 25.331 63.7571 24.8409 63.7571 23.8963C63.7571 22.9091 64.6165 22.4972 65.767 22.3338C66.4418 22.2415 67.7912 22.071 68.125 21.8011V23.0866C68.125 24.3011 67.1449 25.331 65.5966 25.331ZM73.2741 27H75.8452V20.5866C75.8452 19.2017 76.8892 18.2216 78.3026 18.2216C78.7358 18.2216 79.2756 18.2997 79.4957 18.3707V16.0057C79.2614 15.9631 78.8565 15.9347 78.5724 15.9347C77.3224 15.9347 76.2784 16.6449 75.8807 17.9091H75.767V16.0909H73.2741V27ZM81.3175 27H83.8459V25.2812H83.995C84.3999 26.0767 85.245 27.1918 87.12 27.1918C89.6911 27.1918 91.6158 25.1534 91.6158 21.5597C91.6158 17.9233 89.6342 15.9489 87.1129 15.9489C85.1882 15.9489 84.3857 17.1065 83.995 17.8949H83.8885V12.4545H81.3175V27ZM83.8388 21.5455C83.8388 19.429 84.7479 18.0582 86.4027 18.0582C88.1143 18.0582 88.995 19.5142 88.995 21.5455C88.995 23.5909 88.1001 25.0824 86.4027 25.0824C84.7621 25.0824 83.8388 23.6619 83.8388 21.5455ZM96.9407 27.2202C98.6523 27.2202 99.6751 26.4176 100.144 25.5014H100.229V27H102.701V19.6989C102.701 16.8153 100.35 15.9489 98.2688 15.9489C95.9748 15.9489 94.2134 16.9716 93.6452 18.9602L96.0458 19.3011C96.3015 18.5554 97.0259 17.9162 98.283 17.9162C99.4762 17.9162 100.13 18.527 100.13 19.5994V19.642C100.13 20.3807 99.3555 20.4162 97.4308 20.6222C95.3143 20.8494 93.2901 21.4815 93.2901 23.9389C93.2901 26.0838 94.8597 27.2202 96.9407 27.2202ZM97.6083 25.331C96.5359 25.331 95.7688 24.8409 95.7688 23.8963C95.7688 22.9091 96.6282 22.4972 97.7788 22.3338C98.4535 22.2415 99.8029 22.071 100.137 21.8011V23.0866C100.137 24.3011 99.1566 25.331 97.6083 25.331ZM107.857 20.608C107.857 19.0312 108.809 18.1222 110.165 18.1222C111.493 18.1222 112.289 18.9957 112.289 20.4517V27H114.86V20.054C114.867 17.4403 113.375 15.9489 111.124 15.9489C109.49 15.9489 108.368 16.7301 107.871 17.9446H107.743V16.0909H105.286V27H107.857V20.608ZM117.473 27H120.044V23.3352L120.982 22.3338L124.32 27H127.395L122.921 20.7997L127.147 16.0909H124.142L120.222 20.473H120.044V12.4545H117.473V27ZM128.86 27H131.431V16.0909H128.86V27ZM130.153 14.5426C130.969 14.5426 131.637 13.9176 131.637 13.1506C131.637 12.3764 130.969 11.7514 130.153 11.7514C129.329 11.7514 128.661 12.3764 128.661 13.1506C128.661 13.9176 129.329 14.5426 130.153 14.5426ZM136.646 20.608C136.646 19.0312 137.598 18.1222 138.954 18.1222C140.282 18.1222 141.078 18.9957 141.078 20.4517V27H143.649V20.054C143.656 17.4403 142.164 15.9489 139.913 15.9489C138.279 15.9489 137.157 16.7301 136.66 17.9446H136.532V16.0909H134.075V27H136.646V20.608ZM148.833 20.608C148.833 19.0312 149.785 18.1222 151.142 18.1222C152.47 18.1222 153.265 18.9957 153.265 20.4517V27H155.836V20.054C155.843 17.4403 154.352 15.9489 152.1 15.9489C150.467 15.9489 149.345 16.7301 148.848 17.9446H148.72V16.0909H146.262V27H148.833V20.608Z" fill="white"/>
</svg>
